<?xml version="1.0" encoding="UTF-8" standalone="no"?>
<!-- Created with Inkscape (http://www.inkscape.org/) -->

<svg
   xmlns:dc="http://purl.org/dc/elements/1.1/"
   xmlns:cc="http://creativecommons.org/ns#"
   xmlns:rdf="http://www.w3.org/1999/02/22-rdf-syntax-ns#"
   xmlns:svg="http://www.w3.org/2000/svg"
   xmlns="http://www.w3.org/2000/svg"
   xmlns:sodipodi="http://sodipodi.sourceforge.net/DTD/sodipodi-0.dtd"
   xmlns:inkscape="http://www.inkscape.org/namespaces/inkscape"
   width="193.79904"
   height="119.02249"
   viewBox="0 0 51.275995 31.49137"
   version="1.1"
   id="svg8"
   inkscape:version="0.92.4 (5da689c313, 2019-01-14)"
   sodipodi:docname="ddgd.svg">
  <defs
     id="defs2" />
  <sodipodi:namedview
     id="base"
     pagecolor="#ffffff"
     bordercolor="#666666"
     borderopacity="1.0"
     inkscape:pageopacity="0.0"
     inkscape:pageshadow="2"
     inkscape:zoom="4.0336066"
     inkscape:cx="106.85734"
     inkscape:cy="34.463604"
     inkscape:document-units="px"
     inkscape:current-layer="layer1"
     showgrid="false"
     units="px"
     inkscape:window-width="1050"
     inkscape:window-height="900"
     inkscape:window-x="0"
     inkscape:window-y="0"
     inkscape:window-maximized="0"
     fit-margin-top="0"
     fit-margin-left="0"
     fit-margin-right="0"
     fit-margin-bottom="0" />
  <metadata
     id="metadata5">
    <rdf:RDF>
      <cc:Work
         rdf:about="">
        <dc:format>image/svg+xml</dc:format>
        <dc:type
           rdf:resource="http://purl.org/dc/dcmitype/StillImage" />
        <dc:title></dc:title>
      </cc:Work>
    </rdf:RDF>
  </metadata>
  <g
     inkscape:label="Layer 1"
     inkscape:groupmode="layer"
     id="layer1"
     transform="translate(-1.6092711,-269.93954)">
    <path
       style="opacity:1;fill:#0000ff;fill-opacity:0.95939086;stroke:none;stroke-width:0.26011768;stroke-miterlimit:4;stroke-dasharray:none;stroke-dashoffset:0;stroke-opacity:1"
       id="path162"
       d="m 6.4253291,273.11508 c -0.2073957,0.0393 -0.4363244,0.11555 -0.6015631,0.2845 -0.012466,0.0123 0.031016,-0.0109 0.046524,-0.0173 -0.2514585,0.28249 -0.3681051,0.59766 -0.3869951,1.01074 2.859e-4,0.2644 0.02337,0.53554 0.1989113,0.71022 0.1841562,0.11528 0.3631306,0.0468 0.5359768,-0.0636 0.033669,-0.0273 0.084545,-0.0366 0.1010097,-0.0819 0.012612,-0.0348 -0.083789,0.0793 -0.086307,0.0415 -0.00359,-0.054 0.056219,-0.0836 0.080505,-0.12879 0.089743,-0.16697 0.1423349,-0.35208 0.1975141,-0.53875 0.1304215,-0.43853 0.1282476,-0.84981 0.05579,-1.3011 -0.1059292,-0.54773 -0.2787614,-0.79537 -0.634304,-1.13153 -0.3458442,-0.29208 -0.7393049,-0.48755 -1.159571,-0.51114 -0.1653772,0.0235 -0.092716,0.003 -0.2199248,0.0516 0,0 0.1626454,-0.16993 0.1626454,-0.16993 v 0 c 0.1284386,-0.0406 0.055099,-0.0233 0.2214326,-0.0419 0.4219332,0.0337 0.8165587,0.23193 1.1642013,0.526 0.3524828,0.33238 0.5417728,0.60122 0.6444395,1.14534 0.072357,0.44429 0.079364,0.88075 -0.04994,1.31301 -0.1505059,0.52233 -0.2155645,0.70005 -0.6363379,1.00003 -0.18142,0.10778 -0.3658577,0.16915 -0.5526842,0.0413 -0.1771464,-0.18623 -0.2065424,-0.45716 -0.2063146,-0.73305 0.014381,-0.418 0.1295272,-0.74 0.3795076,-1.03086 0.2902425,-0.25377 0.5469553,-0.49665 0.9109695,-0.54429 0,0 -0.1654844,0.17011 -0.1654844,0.17011 z"
       inkscape:connector-curvature="0" />
    <path
       style="opacity:1;fill:#0000ff;fill-opacity:0.95939086;stroke:none;stroke-width:0.26011768;stroke-miterlimit:4;stroke-dasharray:none;stroke-dashoffset:0;stroke-opacity:1"
       id="path164"
       d="m 6.9188135,275.72704 c -0.1806597,0.72431 -0.3162588,1.46082 -0.4199024,2.20725 -0.033558,0.46371 -0.1688522,0.92658 -0.1596461,1.39507 0,0 -0.1855969,0.1307 -0.1855969,0.1307 v 0 c 0.00276,-0.47376 0.1352069,-0.93919 0.1720105,-1.40874 0.1027355,-0.74243 0.2354443,-1.4753 0.4046679,-2.19925 0,0 0.188467,-0.1251 0.188467,-0.1251 z"
       inkscape:connector-curvature="0" />
    <path
       style="opacity:1;fill:#0000ff;fill-opacity:0.95939086;stroke:none;stroke-width:0.26011768;stroke-miterlimit:4;stroke-dasharray:none;stroke-dashoffset:0;stroke-opacity:1"
       id="path166"
       d="m 6.6763438,275.77464 c 0.2414121,-0.0967 0.4854009,-0.005 0.7153073,0.0954 0.2450516,0.14155 0.3111242,0.31534 0.1941192,0.6224 -0.1305216,0.18621 -0.2963721,0.30117 -0.4822956,0.39784 -0.1143233,0.0595 -0.3066995,0.0553 -0.4317774,0.0664 0,0 0.1638158,-0.16412 0.1638158,-0.16412 v 0 c 0.097195,-0.008 0.1853236,-0.0136 0.2823856,-0.0334 0.048846,-0.01 0.098532,-0.0593 0.1451396,-0.0389 0.026164,0.0109 -0.080329,0.0835 -0.052724,0.0795 0.044403,-0.007 0.1581873,-0.15477 0.1863447,-0.18869 0.1265719,-0.28995 0.061239,-0.45118 -0.1742298,-0.58553 -0.2291609,-0.0986 -0.4709183,-0.18556 -0.7089158,-0.0775 0,0 0.1628299,-0.1737 0.1628299,-0.1737 z"
       inkscape:connector-curvature="0" />
    <path
       style="opacity:1;fill:#0000ff;fill-opacity:0.95939086;stroke:none;stroke-width:0.26011768;stroke-miterlimit:4;stroke-dasharray:none;stroke-dashoffset:0;stroke-opacity:1"
       id="path168"
       d="m 9.9852574,273.21798 c -0.1906221,-0.31269 -0.3214656,-0.24983 -0.5775416,-0.0813 0.00934,0 0.033531,-0.01 0.028023,2e-5 -0.2582467,0.4362 -0.023891,-0.0842 -0.2646701,0.41792 -0.1301095,0.27135 -0.2063355,0.54998 -0.2722501,0.85213 -0.044344,0.34398 -0.1159751,0.89455 0.221724,1.06573 0.048792,0.0247 0.103548,0.025 0.1553225,0.0375 0.1722826,-0.0427 0.2083569,-0.0297 0.3611403,-0.16543 0.00863,-0.008 -0.00888,-0.0281 -0.00322,-0.0391 0.044177,-0.0866 0.1069985,-0.15768 0.1487313,-0.24608 0.1229412,-0.26045 0.1209602,-0.35563 0.1745016,-0.64784 0.021647,-0.71189 -0.1968413,-1.37946 -0.5850253,-1.90503 -0.087261,-0.11815 -0.1882095,-0.21977 -0.2823147,-0.32965 -0.3539048,-0.32659 -0.7194823,-0.69027 -1.1520993,-0.84254 0,0 0.1690766,-0.1568 0.1690766,-0.1568 v 0 c 0.4262318,0.17859 0.7929122,0.5285 1.1457925,0.86224 0.094739,0.11077 0.1962178,0.21345 0.2842148,0.33238 0.3923998,0.53038 0.6147321,1.20113 0.5985641,1.92036 -0.02005,0.11528 -0.03122,0.23349 -0.06016,0.34587 -0.1127855,0.43795 -0.2813478,0.6205 -0.5930059,0.87479 -0.058867,0.048 -0.1224027,0.0894 -0.1893384,0.11692 -0.058571,0.0242 -0.1219334,0.0246 -0.1829002,0.0368 -0.053492,-0.0151 -0.110345,-0.018 -0.1604769,-0.0456 -0.3413778,-0.18765 -0.2765562,-0.73509 -0.2308861,-1.09544 0.087545,-0.41119 0.2528226,-1.00024 0.52787,-1.28306 0.099716,-0.10259 0.2121685,-0.18462 0.3182524,-0.27694 0.2589191,-0.16034 0.4118654,-0.20155 0.5997371,0.10559 0,0 -0.1790589,0.14643 -0.1790589,0.14643 z"
       inkscape:connector-curvature="0" />
    <path
       style="opacity:1;fill:#0000ff;fill-opacity:0.95939086;stroke:none;stroke-width:0.26011768;stroke-miterlimit:4;stroke-dasharray:none;stroke-dashoffset:0;stroke-opacity:1"
       id="path170"
       d="m 11.182388,274.35446 c -0.233781,-0.008 -0.434391,-0.0205 -0.656523,0.0846 -0.01858,0.008 0.06206,-0.0443 0.05737,-0.0205 -0.01345,0.0685 -0.05924,0.12033 -0.08886,0.18057 -0.181793,0.63287 -0.238022,1.31052 -0.323692,1.97115 -0.0045,0.18027 -0.08864,0.45637 0.02568,0.61961 0.08865,0.1266 0.264007,0.13329 0.384716,0.15305 0.179405,-10e-4 0.09485,0.004 0.253831,-0.0158 0,0 -0.164125,0.16514 -0.164125,0.16514 v 0 c -0.159524,0.0161 -0.07451,0.0123 -0.255153,0.01 -0.129966,-0.0232 -0.30543,-0.0351 -0.398219,-0.17337 -0.1157325,-0.17246 -0.032541,-0.44766 -0.024984,-0.63737 0.087392,-0.66164 0.145437,-1.33784 0.315508,-1.97632 0.02817,-0.0629 0.04237,-0.1389 0.08451,-0.18845 0.304802,-0.35839 0.569058,-0.34507 0.956711,-0.33645 0,0 -0.166776,0.16465 -0.166776,0.16465 z"
       inkscape:connector-curvature="0" />
    <path
       style="opacity:1;fill:#0000ff;fill-opacity:0.95939086;stroke:none;stroke-width:0.26011768;stroke-miterlimit:4;stroke-dasharray:none;stroke-dashoffset:0;stroke-opacity:1"
       id="path172"
       d="m 11.501818,275.536 c -0.05673,0.6916 -0.161486,1.37492 -0.246581,2.06163 -0.04027,0.52148 -0.145856,1.03671 -0.151065,1.5621 0,0 -0.185691,0.12947 -0.185691,0.12947 v 0 c 0.02257,-0.52931 0.120999,-1.04844 0.164916,-1.57503 0.08287,-0.68238 0.186195,-1.36197 0.230536,-2.05047 0,0 0.187885,-0.12783 0.187885,-0.12783 z"
       inkscape:connector-curvature="0" />
    <path
       style="opacity:1;fill:#0000ff;fill-opacity:0.95939086;stroke:none;stroke-width:0.26011768;stroke-miterlimit:4;stroke-dasharray:none;stroke-dashoffset:0;stroke-opacity:1"
       id="path174"
       d="m 11.331435,276.03181 c 0.171673,-0.11051 0.361524,-0.21674 0.559887,-0.15809 0.04169,0.0123 0.0804,0.0367 0.120594,0.0551 0.10812,0.0804 0.288094,0.19795 0.244091,0.39294 -0.02963,0.13137 -0.112102,0.20836 -0.184987,0.30171 -0.29979,0.30507 -0.556904,0.48493 -0.934733,0.54626 0,0 0.163279,-0.16568 0.163279,-0.16568 v 0 c 0.102717,-0.0175 0.164558,-0.0229 0.267418,-0.0653 0.05608,-0.0231 0.107622,-0.0611 0.163751,-0.084 0.0049,-0.001 -0.0072,0.0218 -0.0029,0.0184 0.05358,-0.043 0.103028,-0.0933 0.154535,-0.13996 0.06798,-0.0828 0.154403,-0.16449 0.188689,-0.28195 0.05304,-0.1817 -0.129531,-0.29443 -0.228329,-0.36671 -0.03919,-0.0166 -0.077,-0.0393 -0.117551,-0.0499 -0.19783,-0.0516 -0.384915,0.0632 -0.554909,0.17218 0,0 0.161196,-0.17488 0.161196,-0.17488 z"
       inkscape:connector-curvature="0" />
    <path
       style="opacity:1;fill:#0000ff;fill-opacity:0.95939086;stroke:none;stroke-width:0.26011768;stroke-miterlimit:4;stroke-dasharray:none;stroke-dashoffset:0;stroke-opacity:1"
       id="path176"
       d="m 14.713323,273.04958 c -0.205319,-0.28454 -0.559952,-0.21222 -0.829697,-0.14395 -0.0593,0.0338 -0.122168,0.0593 -0.177904,0.1015 -0.0066,0.005 0.02031,0.0123 0.01644,0.0203 -0.03297,0.0707 -0.08471,0.1262 -0.117728,0.19689 -0.05735,0.12265 -0.104976,0.29169 -0.103238,0.43609 8.49e-4,0.0698 0.02206,0.13695 0.03309,0.20543 0.02855,0.0578 0.04864,0.1236 0.08564,0.17372 0.07291,0.0988 0.171499,0.15072 0.277422,0.16495 0.05051,0.007 0.10233,0.003 0.15225,-0.01 0.09148,-0.0215 0.209892,-0.10395 0.100437,-0.0312 0.239626,-0.25957 0.403119,-0.60496 0.516209,-0.96895 0.01931,-0.0862 0.04229,-0.31399 0.215384,-0.12523 0.04479,0.0488 -0.0041,0.14731 -0.0059,0.22096 -0.01018,0.41965 -0.0074,0.24552 -0.0054,0.70822 0.04603,0.92728 0.05324,1.85576 0.05383,2.78446 -0.03341,0.58196 0.01322,1.27281 -0.125979,1.83627 -0.02255,0.0913 -0.0588,0.17652 -0.08819,0.26478 -0.180141,0.38949 -0.450708,0.68156 -0.801589,0.82878 -0.124309,0.0521 -0.251836,-0.0285 -0.362565,-0.0754 -0.229501,-0.19008 -0.438438,-0.48269 -0.480744,-0.83415 -0.02724,-0.22636 0.01739,-0.3049 0.07428,-0.51914 0.257921,-0.64339 0.732255,-1.08225 1.184521,-1.50819 0,0 0.183841,-0.10286 0.183841,-0.10286 v 0 c -0.450655,0.42235 -0.924114,0.85691 -1.186339,1.49262 -0.05716,0.20412 -0.103515,0.28685 -0.07968,0.50457 0.03779,0.34528 0.243686,0.63165 0.470522,0.81344 0.566018,0.22263 -0.212704,-0.0573 0.353027,0.0619 0.01272,0.003 -0.0024,0.0531 0.0093,0.0464 0.204538,-0.11787 0.338034,-0.36554 0.452991,-0.59107 0.03021,-0.087 0.06742,-0.17086 0.09064,-0.26108 0.144216,-0.56014 0.09891,-1.25536 0.133655,-1.83551 8.2e-4,-0.92815 -0.0045,-1.85623 -0.05601,-2.78264 -0.0065,-0.52518 -0.006,-0.23538 -0.0013,-0.70442 7.03e-4,-0.0724 -0.02627,-0.1537 0.0018,-0.21741 0.04183,-0.0951 0.129884,-0.14556 0.191715,-0.22229 0.003,-0.004 -0.0084,2e-5 -0.01258,2e-5 -0.0073,0.0322 -0.01455,0.0643 -0.02182,0.0965 -0.112531,0.36761 -0.27692,0.71547 -0.512241,0.98454 -0.102563,0.0815 -0.200012,0.1736 -0.307692,0.2443 -0.18563,0.12182 -0.448971,0.07 -0.589225,-0.1236 -0.03821,-0.0528 -0.05947,-0.12101 -0.08921,-0.18142 -0.01209,-0.0712 -0.03457,-0.14083 -0.03628,-0.21352 -0.01223,-0.52246 0.370531,-0.87312 0.724399,-1.04255 0.280862,-0.066 0.636005,-0.1281 0.849995,0.16185 0,0 -0.179969,0.14618 -0.179969,0.14618 z"
       inkscape:connector-curvature="0" />
    <path
       style="opacity:1;fill:#0000ff;fill-opacity:0.95939086;stroke:none;stroke-width:0.26011768;stroke-miterlimit:4;stroke-dasharray:none;stroke-dashoffset:0;stroke-opacity:1"
       id="path178"
       d="m 15.858588,274.9096 c -0.03836,0.4569 -0.08746,0.91206 -0.143634,1.36611 -0.0096,0.0879 0.02036,0.33157 -0.173597,0.21381 -0.0027,-0.001 0.128579,-0.47347 0.141728,-0.51875 0.120849,-0.34706 0.27183,-0.64744 0.568187,-0.80253 0.02651,-0.0139 0.05648,0.0139 0.08472,0.0209 0.02445,0.0329 0.05489,0.0604 0.07335,0.0988 0.110345,0.22944 0.10574,0.63943 0.09556,0.89978 -0.0023,0.14512 0.03289,0.19873 -0.170498,0.21773 -0.02502,0.003 0.02459,-0.0539 0.03714,-0.0806 0.06713,-0.14303 0.05014,-0.10655 0.125932,-0.25425 0.165795,-0.31059 0.372797,-0.56569 0.661164,-0.70171 0.02729,-0.0123 0.05807,0.008 0.08711,0.0123 0.02353,0.0237 0.05274,0.0409 0.07063,0.0714 0.119176,0.20233 0.03518,0.69965 0.02009,0.93743 -0.01029,0.20239 -0.002,0.11009 -0.02142,0.2773 0,0 -0.18661,0.12647 -0.18661,0.12647 v 0 c 0.02373,-0.16671 0.01369,-0.0742 0.02585,-0.278 0.01422,-0.21794 0.09671,-0.72985 -0.01294,-0.91284 -0.01568,-0.0262 -0.04212,-0.0393 -0.06318,-0.0588 -0.117396,-0.007 -0.09974,0.019 -0.0015,-0.0997 -0.04217,-0.005 -0.07089,0.058 -0.10305,0.0921 -0.112711,0.11964 -0.203616,0.26829 -0.287201,0.41853 -0.01299,0.0252 -0.146961,0.32378 -0.157654,0.33428 -0.0641,0.0629 -0.136293,0.11378 -0.210611,0.15632 -0.03181,0.0183 0.08255,-0.24921 0.0023,-0.12961 0.01429,-0.25163 0.02069,-0.65907 -0.08725,-0.88112 -0.01621,-0.0334 -0.04391,-0.0558 -0.06587,-0.0838 -0.02505,-0.003 -0.08116,0.0221 -0.07518,-0.008 0.0093,-0.0466 0.06727,-0.12073 0.09383,-0.0857 0.02639,0.0349 -0.0587,0.0626 -0.08385,0.0989 -0.101301,0.14591 -0.168436,0.32309 -0.234087,0.49513 -0.01443,0.0495 -0.120881,0.49473 -0.136351,0.51615 -0.05824,0.0806 -0.134103,0.14049 -0.209435,0.19555 -0.03798,0.0278 0.08545,-0.36672 0.0095,-0.16282 0.06005,-0.45185 0.110024,-0.90583 0.138889,-1.36245 0,0 0.187884,-0.1277 0.187884,-0.1277 z"
       inkscape:connector-curvature="0" />
    <path
       style="opacity:1;fill:#0000ff;fill-opacity:0.95939086;stroke:none;stroke-width:0.26011768;stroke-miterlimit:4;stroke-dasharray:none;stroke-dashoffset:0;stroke-opacity:1"
       id="path180"
       d="m 17.934026,273.92064 c 0.120657,0.001 0.242723,-0.007 0.362604,-0.0242 0.05536,-0.008 0.193396,-0.0462 0.255111,-0.0327 0.03152,0.007 0.05782,0.0338 0.08673,0.0507 0.01719,0.0392 0.04194,0.0745 0.05157,0.11746 0.02567,0.11446 0.01545,0.32081 0.01434,0.42917 -0.0032,0.31345 -0.0055,0.62688 -0.0075,0.94035 0.009,0.42837 0.02441,0.85604 0.02152,1.28466 -4.98e-4,0.0738 0.0079,0.14871 -0.0027,0.22136 -0.0085,0.0588 -0.03568,0.11105 -0.05352,0.16652 -0.355452,0.36568 -0.805943,0.43396 -1.239339,0.55045 0,0 0.159289,-0.1642 0.159289,-0.1642 v 0 c 0.138357,-0.036 0.277661,-0.0664 0.415632,-0.1045 0.08645,-0.0239 0.16999,-0.0662 0.258004,-0.0786 0.02298,-0.003 0.04189,0.0416 0.06398,0.0331 0.05808,-0.0222 0.103847,-0.078 0.155771,-0.11705 0.01968,-0.0529 0.04954,-0.10191 0.05904,-0.15896 0.01209,-0.0726 0.0034,-0.14814 0.0044,-0.22222 0.0061,-0.42931 -0.007,-0.85768 -0.01856,-1.28669 8.49e-4,-0.31258 0.0018,-0.62515 0.0035,-0.93773 5.56e-4,-0.0981 0.0094,-0.30801 -0.01311,-0.4149 -0.0079,-0.0377 -0.02945,-0.0686 -0.04416,-0.103 -0.02652,-0.014 -0.05101,-0.037 -0.07956,-0.042 -0.05742,-0.01 -0.203314,0.0252 -0.253362,0.0322 -0.121887,0.0169 -0.245377,0.0258 -0.368,0.0267 0,0 0.168213,-0.16606 0.168213,-0.16606 z"
       inkscape:connector-curvature="0" />
    <path
       style="opacity:1;fill:#0000ff;fill-opacity:0.95939086;stroke:none;stroke-width:0.26011768;stroke-miterlimit:4;stroke-dasharray:none;stroke-dashoffset:0;stroke-opacity:1"
       id="path182"
       d="m 19.919389,273.97222 c -0.172786,-0.0637 -0.361336,-0.0824 -0.54063,-0.0581 -0.01787,0.0136 -0.07376,0.0472 -0.05359,0.0404 0.04824,-0.0164 0.093,-0.0933 0.139164,-0.0694 0.03291,0.0169 -0.01975,0.0847 -0.02532,0.12824 -0.02857,0.22299 -0.02314,0.45473 -0.02603,0.6795 7.03e-4,0.59684 0.0061,1.1929 -0.01545,1.78927 0.01741,0.20585 -0.08075,0.81614 -0.01,0.99166 0.01233,0.0306 0.04057,0.0465 0.06085,0.0697 0.195853,0.066 0.40603,0.0296 0.604214,-0.008 0,0 -0.165158,0.16779 -0.165158,0.16779 v 0 c -0.202853,0.0323 -0.418367,0.0743 -0.615133,-0.0123 -0.02256,-0.0281 -0.05349,-0.0488 -0.06768,-0.0843 -0.07118,-0.17787 0.03111,-0.79194 0.01405,-1.00066 0.02308,-0.59583 0.01766,-1.19137 0.01467,-1.78775 0.0012,-0.15483 0.0013,-0.33866 0.0076,-0.49443 2.12e-4,-0.005 0.01264,-0.29104 0.03201,-0.32081 0.117029,-0.17979 0.153019,-0.19124 0.27107,-0.25562 0.18266,-0.0176 0.371451,4e-4 0.547206,0.0656 0,0 -0.171973,0.15888 -0.171973,0.15888 z"
       inkscape:connector-curvature="0" />
    <path
       style="opacity:1;fill:#0000ff;fill-opacity:0.95939086;stroke:none;stroke-width:0.26011768;stroke-miterlimit:4;stroke-dasharray:none;stroke-dashoffset:0;stroke-opacity:1"
       id="path184"
       d="m 20.586379,275.2659 c -0.0039,0.38481 -0.0028,0.76966 -0.0019,1.15448 -0.0028,0.10723 0.06491,0.39919 -0.157465,0.30634 -0.03494,-0.0146 0.01831,-0.0881 0.02653,-0.13246 0.01158,-0.0625 0.0219,-0.12524 0.03285,-0.18786 0.06467,-0.35575 0.176721,-0.71074 0.387716,-0.97295 0.08456,-0.0603 0.162159,-0.13873 0.253672,-0.18085 0.02396,-0.0109 0.05081,0.0141 0.07256,0.0307 0.115258,0.0877 0.152757,0.29365 0.186767,0.43968 0.05191,0.28173 0.0714,0.56766 0.05032,0.8549 -0.0056,0.0958 -0.0046,0.18878 0.01041,0.2827 0,0 -0.184292,0.13547 -0.184292,0.13547 v 0 c -0.01572,-0.0966 -0.01756,-0.19203 -0.01152,-0.29067 0.02221,-0.28449 0.0066,-0.5677 -0.04551,-0.84709 -0.0292,-0.12579 -0.05545,-0.254 -0.124685,-0.35752 -0.01495,-0.0224 -0.03148,-0.0447 -0.05222,-0.0584 -0.01899,-0.0123 -0.07058,0.007 -0.063,-0.0175 0.01524,-0.0499 0.06643,-0.0684 0.09964,-0.10245 -0.218052,0.25073 -0.330515,0.60808 -0.395639,0.96057 -0.01018,0.0622 -0.02049,0.12456 -0.03065,0.18679 -0.0073,0.045 0.0025,0.10041 -0.02186,0.13506 -0.27267,0.38807 -0.210896,0.15862 -0.216188,-0.0562 8.79e-4,-0.38393 0.002,-0.76789 -0.0019,-1.1518 0,0 0.186423,-0.13111 0.186423,-0.13111 z"
       inkscape:connector-curvature="0" />
    <path
       style="opacity:1;fill:#0000ff;fill-opacity:0.95939086;stroke:none;stroke-width:0.26011768;stroke-miterlimit:4;stroke-dasharray:none;stroke-dashoffset:0;stroke-opacity:1"
       id="path186"
       d="m 24.595903,273.66229 c -0.108208,-0.35987 -0.259751,-0.46619 -0.554113,-0.54947 -0.175776,-0.045 -0.270807,-0.0274 -0.433657,0.0499 -0.02184,0.0109 0.06857,-0.0592 0.06571,-0.0306 -0.0061,0.0614 -0.05968,0.10095 -0.07844,0.15824 -0.01954,0.0596 -0.02332,0.12551 -0.03499,0.18818 -0.0059,0.26649 0.07397,0.51269 0.271447,0.64504 0.041,0.0274 0.08451,0.055 0.130912,0.0613 0.04552,0.005 0.09054,-0.0169 0.135808,-0.0254 -0.01114,0.004 -0.03909,0.023 -0.03342,0.0109 0.144397,-0.31421 0.148162,-0.13001 0.220506,-0.52267 0.08999,-0.48841 -0.0183,-0.79056 -0.156358,-1.23915 -0.07566,-0.14792 -0.139791,-0.30583 -0.226984,-0.44378 -0.306717,-0.48526 -0.822304,-0.95261 -1.341085,-0.97126 -0.08041,-0.003 -0.158721,0.0325 -0.238082,0.0487 0,0 0.158138,-0.16092 0.158138,-0.16092 v 0 c 0.07946,-0.0123 0.158364,-0.0439 0.238397,-0.0386 0.530765,0.0355 1.030276,0.49354 1.346448,0.99128 0.08826,0.13895 0.153734,0.29776 0.230602,0.44663 0.04769,0.15128 0.107743,0.2975 0.143064,0.45384 0.08245,0.36501 0.07693,0.75673 -0.05917,1.10153 -0.03267,0.0828 -0.06949,0.16773 -0.12526,0.22894 -0.0952,0.1045 -0.212971,0.17282 -0.319457,0.25923 -0.04737,0.005 -0.09509,0.024 -0.142087,0.0152 -0.04756,-0.01 -0.0919,-0.0377 -0.133693,-0.067 -0.201314,-0.14152 -0.285748,-0.39447 -0.283775,-0.67049 0.01052,-0.0651 0.01332,-0.13274 0.03162,-0.19518 0.07271,-0.24789 0.288854,-0.4221 0.494247,-0.46832 0.112904,-0.0254 0.193769,-4.5e-4 0.305846,0.018 0.299655,0.09 0.454025,0.20315 0.570706,0.56579 0,0 -0.182874,0.14017 -0.182874,0.14017 z"
       inkscape:connector-curvature="0" />
    <path
       style="opacity:1;fill:#0000ff;fill-opacity:0.95939086;stroke:none;stroke-width:0.26011768;stroke-miterlimit:4;stroke-dasharray:none;stroke-dashoffset:0;stroke-opacity:1"
       id="path188"
       d="m 25.088375,274.37102 c -0.01029,0.51655 0.01893,1.03267 0.03961,1.54835 0.01198,0.23381 -0.01291,0.46749 -0.0071,0.70101 0,0 -0.185702,0.1311 -0.185702,0.1311 v 0 c -0.0011,-0.23514 0.02492,-0.46991 0.01465,-0.70548 -0.01886,-0.5145 -0.04814,-1.02872 -0.04787,-1.54391 0,0 0.186424,-0.13111 0.186424,-0.13111 z"
       inkscape:connector-curvature="0" />
    <path
       style="opacity:1;fill:#0000ff;fill-opacity:0.95939086;stroke:none;stroke-width:0.26011768;stroke-miterlimit:4;stroke-dasharray:none;stroke-dashoffset:0;stroke-opacity:1"
       id="path190"
       d="m 24.933198,276.24502 c 0.231998,-0.40377 0.526705,-0.74619 0.809781,-1.0948 0,0 0.189286,-0.10968 0.189286,-0.10968 v 0 c -0.28374,0.34353 -0.579395,0.68386 -0.805651,1.08903 0,0 -0.193416,0.11541 -0.193416,0.11541 z"
       inkscape:connector-curvature="0" />
    <path
       style="opacity:1;fill:#0000ff;fill-opacity:0.95939086;stroke:none;stroke-width:0.26011768;stroke-miterlimit:4;stroke-dasharray:none;stroke-dashoffset:0;stroke-opacity:1"
       id="path192"
       d="m 25.199944,275.68312 c 0.184622,0.21421 0.365193,0.43393 0.546375,0.6526 0.06992,0.0718 0.197693,0.14926 0.268446,0.0136 0.01319,-0.0254 -0.07648,0.0507 -0.07126,0.0213 0.01052,-0.0593 0.06433,-0.0925 0.09273,-0.14215 0.02484,-0.0435 0.04445,-0.0911 0.06666,-0.13676 0.01511,-0.0359 0.03021,-0.0718 0.04532,-0.10751 0,0 0.189479,-0.11869 0.189479,-0.11869 v 0 c -0.01542,0.0366 -0.03085,0.0731 -0.04627,0.10983 -0.130099,0.27557 -0.194409,0.34643 -0.435447,0.54684 -0.03224,0.0269 -0.06799,0.052 -0.106481,0.0588 -0.07698,0.0136 -0.123214,-0.0491 -0.178188,-0.098 -0.180313,-0.22008 -0.360115,-0.44171 -0.548851,-0.65075 0,0 0.177478,-0.14865 0.177478,-0.14865 z"
       inkscape:connector-curvature="0" />
    <path
       style="opacity:1;fill:#0000ff;fill-opacity:0.95939086;stroke:none;stroke-width:0.26011768;stroke-miterlimit:4;stroke-dasharray:none;stroke-dashoffset:0;stroke-opacity:1"
       id="path194"
       d="m 26.500979,273.90792 c 0.253973,-0.0701 0.519221,-0.115 0.779783,-0.103 0.03357,0.0173 0.07254,0.0236 0.100714,0.052 0.157622,0.15878 0.122824,0.83096 0.12303,1.0557 0.0082,0.55001 0.05983,1.0973 0.09344,1.64554 -0.0096,0.16367 0.07483,0.57783 -0.0056,0.71646 -0.01704,0.0293 -0.04493,0.0462 -0.06739,0.0694 -0.101434,0.0565 -0.197134,0.13233 -0.304287,0.1694 -0.03861,0.0136 -0.375938,-0.0139 -0.397547,-0.015 -0.37759,-0.0196 -0.05763,0.005 -0.386182,-0.0233 0,0 0.163888,-0.15937 0.163888,-0.15937 v 0 c 0.198947,0.0188 0.399836,0.033 0.599388,0.0363 0.06082,9.7e-4 0.130815,-0.0449 0.182426,-0.005 0.02833,0.0218 -0.0347,0.0702 -0.05206,0.10545 0.02408,-0.0186 0.05327,-0.0295 0.07224,-0.0555 0.0845,-0.11583 0.0072,-0.56181 0.01525,-0.70988 -0.03072,-0.54953 -0.08215,-1.09766 -0.09211,-1.64855 -5.56e-4,-0.2021 0.02917,-0.88606 -0.115074,-1.02572 -0.02674,-0.0259 -0.06336,-0.0304 -0.09505,-0.0457 -0.261403,-0.008 -0.526302,0.0366 -0.780311,0.11132 0,0 0.165484,-0.1701 0.165484,-0.1701 z"
       inkscape:connector-curvature="0" />
    <path
       style="opacity:1;fill:#0000ff;fill-opacity:0.95939086;stroke:none;stroke-width:0.26011768;stroke-miterlimit:4;stroke-dasharray:none;stroke-dashoffset:0;stroke-opacity:1"
       id="path196"
       d="m 29.230871,272.92545 c 0.05682,-0.004 0.11356,-0.0109 0.170464,-0.0123 0.354505,-0.0123 0.709248,0.007 1.063904,-0.004 0.302418,-0.008 0.564781,-0.0276 0.865684,-0.0465 0.429294,-0.0184 0.230063,-0.0109 0.59766,-0.0229 0,0 -0.159389,0.15802 -0.159389,0.15802 v 0 c -0.36258,0.007 -0.165707,10e-4 -0.590584,0.0168 -0.291187,0.0171 -0.573255,0.0353 -0.864994,0.0446 -0.357849,0.0109 -0.716617,-0.004 -1.074248,0.0157 -0.05797,0.003 -0.115706,0.0109 -0.173558,0.0168 0,0 0.165061,-0.16633 0.165061,-0.16633 z"
       inkscape:connector-curvature="0" />
    <path
       style="opacity:1;fill:#0000ff;fill-opacity:0.95939086;stroke:none;stroke-width:0.26011768;stroke-miterlimit:4;stroke-dasharray:none;stroke-dashoffset:0;stroke-opacity:1"
       id="path198"
       d="m 29.223042,273.5634 c 0.74393,-0.034 1.486459,-0.10178 2.229311,-0.16017 0.509294,-0.0265 0.269934,-0.0211 0.717994,-0.0207 0,0 -0.157221,0.15508 -0.157221,0.15508 v 0 c -0.442545,-0.004 -0.205745,-0.008 -0.710341,0.0152 -0.748922,0.0573 -1.497096,0.12851 -2.246519,0.17523 0,0 0.166776,-0.16466 0.166776,-0.16466 z"
       inkscape:connector-curvature="0" />
    <path
       style="opacity:1;fill:#0000ff;fill-opacity:0.95939086;stroke:none;stroke-width:0.26011768;stroke-miterlimit:4;stroke-dasharray:none;stroke-dashoffset:0;stroke-opacity:1"
       id="path200"
       d="m 2.4109163,282.67856 c 0.4800955,-0.0899 0.9615768,-0.15568 1.4468918,-0.17637 0.077248,-10e-4 0.1544962,-0.003 0.2317442,-0.004 0,0 -0.1602755,0.15868 -0.1602755,0.15868 v 0 c -0.076887,10e-4 -0.1537754,0.003 -0.2306631,0.004 -0.4877065,0.021 -0.9719353,0.0859 -1.4532452,0.18633 0,0 0.1655478,-0.16825 0.1655478,-0.16825 z"
       inkscape:connector-curvature="0" />
    <path
       style="opacity:1;fill:#0000ff;fill-opacity:0.95939086;stroke:none;stroke-width:0.26011768;stroke-miterlimit:4;stroke-dasharray:none;stroke-dashoffset:0;stroke-opacity:1"
       id="path202"
       d="m 2.5007603,283.30564 c 0.4844667,-0.0655 0.9668295,0.0325 1.4510836,0.0493 0.083487,0.007 0.1669741,0.0147 0.2504611,0.0222 0,0 -0.1606063,0.15619 -0.1606063,0.15619 v 0 c -0.082713,-0.008 -0.1654267,-0.0153 -0.2481401,-0.0231 -0.4864062,-0.0171 -0.9719969,-0.11541 -1.4580654,-0.0377 0,0 0.1652671,-0.1669 0.1652671,-0.1669 z"
       inkscape:connector-curvature="0" />
    <path
       style="opacity:1;fill:#0000ff;fill-opacity:0.95939086;stroke:none;stroke-width:0.26011768;stroke-miterlimit:4;stroke-dasharray:none;stroke-dashoffset:0;stroke-opacity:1"
       id="path204"
       d="m 6.3531934,281.96107 c 0.253223,-0.40269 0.4113166,-0.87348 0.532862,-1.35597 0.017881,-0.0863 0.036549,-0.17235 0.053643,-0.2589 0.01352,-0.0685 0.026591,-0.13708 0.038192,-0.20607 0.0068,-0.0404 0.012948,-0.0812 0.016988,-0.1221 6.444e-4,-0.007 -0.00814,-0.0173 -0.00304,-0.0195 0.2247003,-0.0903 0.1796325,-0.0997 0.1553214,0.12933 -0.045408,0.60653 -0.064761,1.21628 -0.0571,1.82522 0.014543,0.26703 0.013831,0.5335 0.00231,0.80042 0,0 -0.1815532,0.12579 -0.1815532,0.12579 v 0 c 0.014633,-0.26718 0.0175,-0.53393 0.00237,-0.80149 -0.00817,-0.60859 0.012003,-1.21748 0.050253,-1.82431 0.021483,-0.26381 -0.01888,-0.18002 0.215114,-0.39066 0.0065,-0.005 0.0038,0.0198 0.00272,0.0296 -0.00465,0.0421 -0.012316,0.0838 -0.019785,0.12537 -0.028319,0.15768 -0.061733,0.3121 -0.094268,0.46863 -0.120034,0.48231 -0.2752841,0.95175 -0.5210129,1.36002 0,0 -0.1930194,0.1146 -0.1930194,0.1146 z"
       inkscape:connector-curvature="0" />
    <path
       style="opacity:1;fill:#0000ff;fill-opacity:0.95939086;stroke:none;stroke-width:0.26011768;stroke-miterlimit:4;stroke-dasharray:none;stroke-dashoffset:0;stroke-opacity:1"
       id="path206"
       d="m 5.4446166,283.67471 c 0.613801,-0.0704 1.2250038,-0.16326 1.840279,-0.21436 0.4567863,-0.0312 0.9141567,-0.0443 1.3714973,-0.0548 0,0 -0.1598592,0.15828 -0.1598592,0.15828 v 0 c -0.4543857,0.005 -0.9088183,0.0157 -1.3625699,0.0476 -0.6213977,0.0531 -1.2382252,0.15051 -1.8575593,0.22932 0,0 0.1682121,-0.16607 0.1682121,-0.16607 z"
       inkscape:connector-curvature="0" />
    <path
       style="opacity:1;fill:#0000ff;fill-opacity:0.95939086;stroke:none;stroke-width:0.26011768;stroke-miterlimit:4;stroke-dasharray:none;stroke-dashoffset:0;stroke-opacity:1"
       id="path208"
       d="m 6.5464733,284.73976 c 0.086054,-0.3312 0.2840993,-0.51841 0.5407268,-0.65705 0.040822,-0.0221 0.088215,-0.0158 0.1323218,-0.0237 0.1585991,0.0184 0.3917566,0.0461 0.4616306,0.26408 0.042708,0.13329 0.00621,0.20783 -0.022373,0.33787 -0.1863814,0.50411 -0.5506943,0.85724 -0.8872819,1.20615 -0.2376265,0.25094 -0.488878,0.49292 -0.6413183,0.83598 -0.077765,0.24347 -0.1003477,0.32627 0.1340129,0.34567 0.3386044,-0.0224 0.6725013,-0.0963 1.0069642,-0.16045 0.2278791,-0.0617 0.4596419,-0.0147 0.6895446,-0.0236 0.035439,7.9e-4 0.070879,10e-4 0.1063166,0.003 0,0 -0.1658358,0.16321 -0.1658358,0.16321 v 0 c -0.035162,-5.7e-4 -0.070324,-10e-4 -0.1054853,-10e-4 -0.2287384,0.007 -0.4591314,-0.0363 -0.6858211,0.0242 -0.336234,0.0637 -0.6720765,0.13827 -1.0125229,0.15794 -0.2485728,-0.0327 -0.2369212,-0.12674 -0.1567354,-0.38907 0.149827,-0.35027 0.4035497,-0.5952 0.6441865,-0.84857 0.3350927,-0.34482 0.6974954,-0.69425 0.8886822,-1.19009 0.029057,-0.1161 0.067953,-0.19409 0.030864,-0.31627 -0.063873,-0.21044 -0.2982917,-0.22977 -0.4471765,-0.24179 -0.043053,0.01 -0.091965,0.058 -0.1291591,0.0295 -0.025831,-0.0198 0.093542,-0.0929 0.065597,-0.0782 -0.1355813,0.0716 -0.2095375,0.2838 -0.2571128,0.43993 0,0 -0.1900226,0.12373 -0.1900226,0.12373 z"
       inkscape:connector-curvature="0" />
    <path
       style="opacity:1;fill:#0000ff;fill-opacity:0.95939086;stroke:none;stroke-width:0.26011768;stroke-miterlimit:4;stroke-dasharray:none;stroke-dashoffset:0;stroke-opacity:1"
       id="path210"
       d="m 10.235795,279.01216 c -0.229568,0.28911 -0.3750441,0.65555 -0.5106614,1.01901 -0.1954111,0.60412 -0.2524914,1.25174 -0.2933682,1.89449 -0.039562,0.67556 -0.037883,1.35174 0.00599,2.02652 0.036638,0.56804 0.1348228,1.11588 0.2933466,1.64976 0.1096542,0.40166 0.25365,0.78617 0.402614,1.16739 0.05487,0.14656 0.110001,0.28683 0.196177,0.40846 0,0 -0.177081,0.14562 -0.177081,0.14562 v 0 c -0.08355,-0.12633 -0.141418,-0.26783 -0.1962664,-0.41625 -0.1483133,-0.38271 -0.2937357,-0.76756 -0.4015169,-1.17117 -0.1583944,-0.53665 -0.2571322,-1.08666 -0.2939883,-1.65725 -0.044855,-0.6764 -0.043668,-1.35406 -0.00562,-2.03131 0.039118,-0.64376 0.094983,-1.29222 0.2854196,-1.89929 0.1331276,-0.36363 0.2774095,-0.72939 0.500794,-1.02339 0,0 0.194162,-0.11254 0.194162,-0.11254 z"
       inkscape:connector-curvature="0" />
    <path
       style="opacity:1;fill:#0000ff;fill-opacity:0.95939086;stroke:none;stroke-width:0.26011768;stroke-miterlimit:4;stroke-dasharray:none;stroke-dashoffset:0;stroke-opacity:1"
       id="path212"
       d="m 13.030439,282.48569 c -0.249701,-0.0315 -0.482631,0.0201 -0.716344,0.12538 -0.04024,0.0271 -0.08088,0.0533 -0.120703,0.0813 -0.0238,0.0168 0.08186,-0.0793 0.07264,-0.0475 -0.01399,0.0483 -0.06175,0.0689 -0.08981,0.10668 -0.02907,0.0392 -0.05659,0.0804 -0.08125,0.12388 -0.06657,0.11746 -0.07409,0.15765 -0.119782,0.28882 -0.05963,0.25672 -0.05554,0.53272 0.09697,0.73506 0.179489,0.16075 0.412023,0.0348 0.593818,-0.0607 0.03628,-0.0278 0.07953,-0.0452 0.108828,-0.0836 0.01795,-0.0235 -0.08134,0.0668 -0.07275,0.0363 0.01442,-0.0512 0.06504,-0.0728 0.09441,-0.1131 0.09289,-0.12701 0.151166,-0.27334 0.20966,-0.42641 0.14015,-0.4392 0.05949,-0.89682 -0.05117,-1.33026 -0.156173,-0.47985 -0.392701,-0.95683 -0.720793,-1.2904 -0.05863,-0.0596 -0.126639,-0.10368 -0.189959,-0.15541 -0.174263,-0.0884 -0.348595,-0.10136 -0.526519,-0.0197 -0.04151,0.0191 -0.146637,0.0368 -0.117094,0.0775 0.03132,0.0431 0.08913,-0.0364 0.133709,-0.0546 0,0 -0.190448,0.11869 -0.190448,0.11869 v 0 c 0.07161,-0.0786 0.137989,-0.16515 0.214848,-0.23586 0.188666,-0.17355 0.451922,-0.13165 0.653349,-0.0325 0.06366,0.0535 0.131942,0.0995 0.190975,0.16043 0.328219,0.33921 0.568926,0.81601 0.727634,1.29939 0.113483,0.43654 0.198124,0.89874 0.0627,1.34411 -0.159602,0.42921 -0.332833,0.64463 -0.686809,0.8759 -0.191615,0.096 -0.428505,0.2139 -0.611488,0.037 -0.155191,-0.21225 -0.165388,-0.49345 -0.106958,-0.76234 0.138503,-0.41661 0.343627,-0.64876 0.685602,-0.8418 0.237241,-0.10245 0.475483,-0.15103 0.727518,-0.11828 0,0 -0.170803,0.16192 -0.170803,0.16192 z"
       inkscape:connector-curvature="0" />
    <path
       style="opacity:1;fill:#0000ff;fill-opacity:0.95939086;stroke:none;stroke-width:0.26011768;stroke-miterlimit:4;stroke-dasharray:none;stroke-dashoffset:0;stroke-opacity:1"
       id="path214"
       d="m 13.543132,283.30887 c -0.0054,0.54228 -10e-4,1.08452 -0.01407,1.62661 -0.01029,0.2936 -0.02258,0.58656 -0.02408,0.8804 0,0 -0.180648,0.1266 -0.180648,0.1266 v 0 c 0.004,-0.29512 0.01938,-0.5892 0.02866,-0.88415 0.01303,-0.53929 0.0076,-1.07873 0.0033,-1.61819 0,0 0.186823,-0.13137 0.186823,-0.13137 z"
       inkscape:connector-curvature="0" />
    <path
       style="opacity:1;fill:#0000ff;fill-opacity:0.95939086;stroke:none;stroke-width:0.26011768;stroke-miterlimit:4;stroke-dasharray:none;stroke-dashoffset:0;stroke-opacity:1"
       id="path216"
       d="m 13.396068,285.63974 c 0.26837,-0.31421 0.509136,-0.6612 0.767629,-0.9872 0.103958,-0.13682 0.05911,-0.0753 0.135819,-0.18311 0,0 0.192928,-0.11364 0.192928,-0.11364 v 0 c -0.07979,0.11064 -0.0334,0.0478 -0.140379,0.18732 -0.258751,0.3224 -0.497419,0.66837 -0.761835,0.9841 0,0 -0.194162,0.11255 -0.194162,0.11255 z"
       inkscape:connector-curvature="0" />
    <path
       style="opacity:1;fill:#0000ff;fill-opacity:0.95939086;stroke:none;stroke-width:0.26011768;stroke-miterlimit:4;stroke-dasharray:none;stroke-dashoffset:0;stroke-opacity:1"
       id="path218"
       d="m 13.588656,285.14379 c 0.196679,0.12987 0.407915,0.22034 0.611868,0.33058 0,0 -0.168858,0.15305 -0.168858,0.15305 v 0 c -0.205177,-0.1105 -0.417286,-0.20122 -0.616652,-0.32792 0,0 0.173642,-0.15571 0.173642,-0.15571 z"
       inkscape:connector-curvature="0" />
    <path
       style="opacity:1;fill:#0000ff;fill-opacity:0.95939086;stroke:none;stroke-width:0.26011768;stroke-miterlimit:4;stroke-dasharray:none;stroke-dashoffset:0;stroke-opacity:1"
       id="path220"
       d="m 17.538257,282.6385 c -0.182566,-0.20521 -0.312998,-0.28397 -0.562167,-0.30387 -0.340589,0.0389 -0.384827,0.10191 -0.580245,0.3817 -0.175363,0.37473 -0.17709,0.67252 -0.03254,1.05962 0.181463,0.34508 0.494617,0.31091 0.779158,0.21181 0.09076,-0.0461 0.219859,-0.1 0.293545,-0.18551 0.01116,-0.0123 -0.05138,0.0123 -0.04581,-0.004 0.02126,-0.0671 0.07366,-0.11282 0.102806,-0.17535 0.08001,-0.1717 0.09183,-0.27241 0.135349,-0.46402 0.07451,-0.5468 0.03757,-1.12818 -0.203158,-1.61119 -0.05337,-0.10709 -0.123617,-0.19993 -0.185426,-0.29989 -0.252238,-0.29909 -0.525963,-0.63446 -0.876121,-0.74952 -0.166405,-0.0547 -0.243339,-0.0351 -0.40932,-0.0254 -0.0908,-0.0164 -0.444235,0.20061 -0.07968,0.007 0,0 -0.190027,0.1236 -0.190027,0.1236 v 0 c 0.173587,-0.19234 0.209565,-0.26684 0.43107,-0.29067 0.168787,-0.005 0.244594,-0.0237 0.413125,0.0352 0.351114,0.12279 0.625306,0.46097 0.879131,0.76343 0.06263,0.10136 0.133644,0.19548 0.187891,0.30387 0.243346,0.48622 0.284864,1.07131 0.21465,1.62381 -0.04135,0.19213 -0.05328,0.29723 -0.130384,0.4709 -0.143296,0.32271 -0.429229,0.51501 -0.697422,0.64546 -0.30906,0.1 -0.599725,0.12333 -0.797237,-0.24046 -0.148029,-0.39461 -0.150007,-0.6982 0.0215,-1.08558 0.233335,-0.34649 0.558166,-0.64018 0.934518,-0.65445 0.251333,0.0258 0.38621,0.10968 0.573324,0.31229 0,0 -0.17653,0.1524 -0.17653,0.1524 z"
       inkscape:connector-curvature="0" />
    <path
       style="opacity:1;fill:#0000ff;fill-opacity:0.95939086;stroke:none;stroke-width:0.26011768;stroke-miterlimit:4;stroke-dasharray:none;stroke-dashoffset:0;stroke-opacity:1"
       id="path222"
       d="m 18.117942,284.10341 c -0.04347,0.61261 -0.07366,1.22676 -0.09985,1.84087 -0.01757,0.56272 -0.07639,1.12351 -0.08654,1.6865 0,0 -0.183103,0.12769 -0.183103,0.12769 v 0 c 0.01921,-0.56557 0.08121,-1.12855 0.09745,-1.6946 0.02358,-0.60992 0.05114,-1.21978 0.08483,-1.82891 0,0 0.187224,-0.13165 0.187224,-0.13165 z"
       inkscape:connector-curvature="0" />
    <path
       style="opacity:1;fill:#0000ff;fill-opacity:0.95939086;stroke:none;stroke-width:0.26011768;stroke-miterlimit:4;stroke-dasharray:none;stroke-dashoffset:0;stroke-opacity:1"
       id="path224"
       d="m 17.930122,284.1742 c 0.194218,-0.12347 0.407779,-0.1 0.613631,-0.0422 0.242414,0.093 0.39938,0.17636 0.407946,0.51605 -0.05562,0.38597 -0.371114,0.58049 -0.636903,0.72969 -0.115794,0.0554 -0.237429,0.0865 -0.357549,0.12347 0,0 0.162715,-0.16875 0.162715,-0.16875 v 0 c 0.119189,-0.0356 0.239536,-0.0678 0.353345,-0.12564 0.04058,-0.0239 0.07778,-0.06 0.121742,-0.0718 0.02589,-0.007 -0.08428,0.0788 -0.06487,0.0566 0.02898,-0.0331 0.06502,-0.0562 0.09375,-0.0896 0.0763,-0.0891 0.126384,-0.19563 0.142965,-0.32347 7.9e-4,-0.32835 -0.160355,-0.4015 -0.391088,-0.48783 -0.205409,-0.0539 -0.416297,-0.0711 -0.606082,0.0603 0,0 0.160402,-0.17671 0.160402,-0.17671 z"
       inkscape:connector-curvature="0" />
    <path
       style="opacity:1;fill:#0000ff;fill-opacity:0.95939086;stroke:none;stroke-width:0.26011768;stroke-miterlimit:4;stroke-dasharray:none;stroke-dashoffset:0;stroke-opacity:1"
       id="path226"
       d="m 21.378125,282.71671 c -0.151121,-0.14502 -0.323254,-0.27686 -0.522227,-0.2745 -0.04479,5.5e-4 -0.08889,0.0136 -0.133336,0.0205 -0.09299,0.0392 -0.197396,0.0684 -0.269646,0.16046 -0.01358,0.0173 0.06345,-0.0319 0.05823,-0.008 -0.01432,0.0636 -0.0662,0.10437 -0.0927,0.16168 -0.07446,0.16108 -0.07545,0.21641 -0.111887,0.39397 -0.0045,0.0652 -0.01599,0.13042 -0.01373,0.1958 0.0072,0.20834 0.09201,0.4941 0.234604,0.62207 0.03196,0.0286 0.07203,0.0401 0.108053,0.0603 0.08352,0.0136 0.304202,-0.0136 0.349452,-0.12196 0.01208,-0.0291 -0.0785,0.0396 -0.07925,0.007 -0.0017,-0.0693 0.05497,-0.12169 0.07509,-0.18645 0.02361,-0.0761 0.03704,-0.15639 0.05555,-0.23458 0.0783,-0.48243 0.119014,-0.98975 -0.01074,-1.46546 -0.03121,-0.11445 -0.07624,-0.22246 -0.114352,-0.33369 -0.299635,-0.71761 -0.771729,-1.26186 -1.302826,-1.71546 -0.02929,-0.1176 -0.239896,-0.10586 -0.25369,-0.23799 0,0 0.194244,-0.11951 0.194244,-0.11951 v 0 c -0.123988,-0.01 0.400392,0.27922 0.226241,0.21258 0.529651,0.46211 1.002506,1.0109 1.307484,1.72838 0.03904,0.112 0.085,0.22085 0.117117,0.33621 0.133132,0.47812 0.09488,0.98785 0.01929,1.47458 -0.0196,0.0887 -0.06585,0.34878 -0.123989,0.42937 -0.112346,0.15573 -0.318315,0.37631 -0.51019,0.39456 -0.04009,0.004 -0.08008,-0.01 -0.120128,-0.0136 -0.03749,-0.0229 -0.07917,-0.0375 -0.112493,-0.0686 -0.144424,-0.13519 -0.232897,-0.42616 -0.242168,-0.6414 -0.0029,-0.0667 0.0084,-0.13315 0.01262,-0.19971 0.09029,-0.46805 0.151216,-0.54748 0.486243,-0.84129 0.123534,-0.10833 0.136475,-0.0988 0.276478,-0.15272 0.04554,-0.005 0.09087,-0.0169 0.136616,-0.016 0.20239,0.004 0.375991,0.1394 0.532383,0.28335 0,0 -0.176384,0.15127 -0.176384,0.15127 z"
       inkscape:connector-curvature="0" />
    <path
       style="opacity:1;fill:#0000ff;fill-opacity:0.95939086;stroke:none;stroke-width:0.26011768;stroke-miterlimit:4;stroke-dasharray:none;stroke-dashoffset:0;stroke-opacity:1"
       id="path228"
       d="m 22.171364,284.00715 c -0.165161,-0.0137 -0.437676,-0.0589 -0.591247,0.0154 -0.02826,0.0136 -0.0516,0.0396 -0.07739,0.0592 0.03951,-0.0197 0.08119,-0.0845 0.11852,-0.0591 0.02941,0.0199 -0.02553,0.0769 -0.03257,0.11746 -0.0089,0.0512 -0.01204,0.10368 -0.01498,0.15586 -0.01181,0.21081 -0.0024,0.42453 0.0013,0.63543 0.02394,0.33707 0.0052,0.67318 6.44e-4,1.00982 0.0059,0.0382 3.51e-4,0.0843 0.04042,0.0967 0.08289,0.0257 0.318371,-0.0593 0.402649,-0.0821 0.105585,-0.0267 0.06152,-0.0209 0.131149,-0.0269 0,0 -0.1675,0.16792 -0.1675,0.16792 v 0 c -0.06487,0.007 -0.0228,6.9e-4 -0.125246,0.0257 -0.09513,0.0256 -0.324661,0.1176 -0.418494,0.066 -0.04592,-0.0252 -0.04046,-0.0659 -0.04862,-0.1176 0.0069,-0.33743 0.02962,-0.67411 0.0048,-1.01226 -0.0045,-0.21142 -0.01402,-0.42488 -0.0054,-0.63636 0.0013,-0.033 0.01157,-0.24695 0.03998,-0.28572 0.06655,-0.0908 0.155013,-0.153 0.23252,-0.2295 0.02706,-0.0175 0.0522,-0.0404 0.08116,-0.0523 0.171723,-0.0703 0.419387,-0.0201 0.598388,-0.01 0,0 -0.170021,0.16225 -0.170021,0.16225 z"
       inkscape:connector-curvature="0" />
    <path
       style="opacity:1;fill:#0000ff;fill-opacity:0.95939086;stroke:none;stroke-width:0.26011768;stroke-miterlimit:4;stroke-dasharray:none;stroke-dashoffset:0;stroke-opacity:1"
       id="path230"
       d="m 22.757128,284.6531 c -0.06155,0.5444 -0.118609,1.08855 -0.157804,1.63624 -0.0184,0.25709 -0.03195,0.51385 -0.03206,0.77187 0,0 -0.182068,0.1277 -0.182068,0.1277 v 0 c 0.0031,-0.25995 0.01799,-0.51869 0.03698,-0.77765 0.03904,-0.54523 0.09519,-1.08732 0.146431,-1.63075 0,0 0.188524,-0.12742 0.188524,-0.12742 z"
       inkscape:connector-curvature="0" />
    <path
       style="opacity:1;fill:#0000ff;fill-opacity:0.95939086;stroke:none;stroke-width:0.26011768;stroke-miterlimit:4;stroke-dasharray:none;stroke-dashoffset:0;stroke-opacity:1"
       id="path232"
       d="m 22.795182,284.44265 c 0.203717,-0.11418 0.436608,-0.13478 0.656006,-0.097 0.146122,0.0628 0.249141,0.23491 0.175859,0.42783 -0.01535,0.0404 -0.04103,0.0735 -0.06154,0.11037 -0.254804,0.30132 -0.579055,0.50135 -0.925593,0.57504 -0.105065,0.007 -0.207079,0.0201 -0.307871,0.0563 0,0 0.16326,-0.17003 0.16326,-0.17003 v 0 c 0.100902,-0.0303 0.202841,-0.0426 0.306495,-0.0521 0.137164,-0.0317 0.143276,-0.0259 0.277789,-0.0876 0.04626,-0.0213 0.08747,-0.0623 0.136276,-0.0713 0.0214,-0.004 -0.06736,0.0649 -0.04736,0.0547 0.08019,-0.0408 0.143271,-0.12087 0.206405,-0.19004 0.0214,-0.0338 0.04752,-0.0637 0.06421,-0.10136 0.07831,-0.17672 -0.01695,-0.3372 -0.155028,-0.39111 -0.218556,-0.0331 -0.450081,-0.0109 -0.649311,0.11323 0,0 0.160402,-0.17672 0.160402,-0.17672 z"
       inkscape:connector-curvature="0" />
    <path
       style="opacity:1;fill:#0000ff;fill-opacity:0.95939086;stroke:none;stroke-width:0.26011768;stroke-miterlimit:4;stroke-dasharray:none;stroke-dashoffset:0;stroke-opacity:1"
       id="path234"
       d="m 25.757709,282.25304 c -0.09797,-0.19599 -0.24016,-0.33819 -0.404308,-0.44215 -0.115031,-0.0408 -0.242633,-0.0671 -0.360672,-0.0239 -0.02597,0.01 -0.09484,0.0626 -0.07409,0.0412 0.03061,-0.0317 0.06964,-0.0484 0.104456,-0.0726 -0.180939,0.19045 -0.240425,0.38899 -0.21282,0.67563 0.03423,0.30204 0.08432,0.50465 0.248486,0.73497 0.139411,0.16234 0.268497,0.19586 0.434402,0.0753 -0.03424,0.0239 -0.06411,0.0809 -0.102707,0.0716 -0.03031,-0.007 0.04464,-0.0527 0.06566,-0.0805 0.08673,-0.11514 0.165372,-0.24245 0.240381,-0.36922 0.07194,-0.14345 0.142591,-0.31068 0.123959,-0.48469 -0.0037,7.7e-4 -0.0073,0.001 -0.01096,0.003 0.05727,-0.0364 0.108884,-0.0921 0.171785,-0.10941 0.01744,-0.005 -0.0071,0.0431 -0.01041,0.0648 -0.01978,0.13165 -0.033,0.2634 -0.04519,0.39639 -0.02991,0.38708 4.98e-4,0.77669 0.01309,1.16418 0.01254,0.44205 0.05048,0.8821 0.06986,1.32383 0.01826,0.43943 0.05353,0.87728 0.07348,1.31673 0.0028,0.34278 -0.0086,0.69199 -0.108518,1.01511 -0.08073,0.23396 -0.291136,0.4361 -0.500602,0.45899 -0.03776,0.004 -0.07575,-0.004 -0.113633,-0.005 -0.2147,-0.051 -0.438471,-0.14403 -0.587483,-0.35304 -0.03391,-0.0476 -0.05967,-0.10314 -0.0895,-0.15464 -0.09645,-0.25903 -0.224853,-0.5898 -0.123439,-0.87776 0.02152,-0.0611 0.05577,-0.11405 0.08366,-0.17112 0.282313,-0.40054 0.622689,-0.73108 0.938923,-1.08974 0.22439,-0.29863 0.490135,-0.52081 0.767641,-0.73485 0,0 -0.15982,0.17521 -0.15982,0.17521 v 0 c 0.03726,-0.0318 0.08818,-0.0477 0.11178,-0.0955 0.02215,-0.0447 -0.07266,0.055 -0.107024,0.0859 -0.152739,0.13776 -0.287304,0.30327 -0.425368,0.46184 -0.315014,0.35783 -0.652588,0.68826 -0.938788,1.08196 -0.02838,0.0546 -0.06274,0.10505 -0.08515,0.1636 -0.10667,0.27907 0.018,0.60578 0.113003,0.85867 0.02915,0.0499 0.05425,0.10382 0.08744,0.14974 0.147085,0.20346 0.368616,0.2929 0.579705,0.3368 0.0369,-3.3e-4 0.0741,0.005 0.110677,-9.8e-4 0.03077,-0.005 0.09542,-0.069 0.08957,-0.0314 -0.008,0.0513 -0.07104,0.0588 -0.09981,0.0971 -0.05197,0.0693 0.284616,-0.28962 0.159844,-0.2344 0.10667,-0.31819 0.116812,-0.66714 0.116433,-1.00768 -0.01881,-0.43963 -0.05607,-0.87733 -0.07326,-1.31693 -0.019,-0.4417 -0.05737,-0.88161 -0.07076,-1.32355 -0.01315,-0.38823 -0.04288,-0.77832 -0.01631,-1.16636 0.007,-0.0827 0.02244,-0.83389 0.265298,-0.6153 0.01941,0.18064 -0.04417,0.35315 -0.119018,0.5041 -0.154976,0.2676 -0.312312,0.50911 -0.554108,0.668 -0.177149,0.10859 -0.309974,0.0644 -0.451254,-0.10395 -0.165996,-0.2351 -0.218763,-0.44158 -0.254795,-0.74836 -0.03227,-0.2916 0.02058,-0.49886 0.201683,-0.69955 0.291073,-0.24168 0.359125,-0.3314 0.696372,-0.20685 0.167602,0.10928 0.312141,0.25664 0.415095,0.45575 0,0 -0.182874,0.14018 -0.182874,0.14018 z"
       inkscape:connector-curvature="0" />
    <path
       style="opacity:1;fill:#0000ff;fill-opacity:0.95939086;stroke:none;stroke-width:0.26011768;stroke-miterlimit:4;stroke-dasharray:none;stroke-dashoffset:0;stroke-opacity:1"
       id="path236"
       d="m 27.186512,284.29515 c -0.03645,0.26406 -0.04797,0.53208 -0.05768,0.79929 -0.0071,0.19924 0.0069,0.40084 -0.04743,0.59165 -0.189241,0.35167 -0.275205,0.2407 -0.260674,-0.0272 0.04255,-0.20181 0.06336,-0.41065 0.123546,-0.606 0.09432,-0.3149 0.22556,-0.40216 0.455446,-0.58318 0.130094,-0.0606 0.211143,0.003 0.284992,0.13288 0.0574,0.16526 0.02428,0.33505 -0.0037,0.50311 -0.02886,0.17437 -0.07014,0.34469 -0.09937,0.51916 -0.02346,0.11801 -0.02148,0.12224 -0.206427,0.14992 -0.01585,0.003 0.01398,-0.24881 0.01573,-0.26533 0.02117,-0.24436 0.0695,-0.48301 0.160565,-0.7019 0.04551,-0.0909 0.09492,-0.18162 0.173154,-0.23417 0.188109,-0.12633 0.222121,-0.22681 0.332636,-0.0562 0.07942,0.20439 0.05439,0.42736 0.03803,0.64471 -0.01041,0.14531 -0.02455,0.36831 0.09289,0.46286 0.02637,0.0213 0.0593,0.0262 0.08896,0.0393 0,0 -0.170736,0.15613 -0.170736,0.15613 v 0 c -0.03176,-0.0164 -0.06706,-0.0247 -0.09527,-0.0491 -0.119904,-0.10327 -0.114552,-0.32518 -0.102076,-0.48111 0.01643,-0.21034 0.04477,-0.4275 -0.03053,-0.62633 -0.106271,-0.1573 -0.124086,0.0323 0.04136,-0.19752 0.01689,-0.0235 -0.04561,0.0291 -0.06522,0.049 -0.05003,0.051 -0.07702,0.109 -0.113519,0.17386 -0.09469,0.2141 -0.142625,0.45135 -0.163761,0.6933 -9.38e-4,0.01 -0.01777,0.17143 -0.01849,0.19269 -0.0056,0.16718 0.0688,0.004 -0.184502,0.21853 -0.01074,0.01 0.112467,-0.06 0.01843,-0.0423 0.03116,-0.17407 0.06933,-0.34565 0.10026,-0.5195 0.02686,-0.16113 0.06333,-0.32386 0.0119,-0.48417 -0.07036,-0.12278 -0.146667,-0.16843 -0.265007,-0.10204 0.03845,-0.0327 0.07482,-0.0694 0.115331,-0.098 0.02136,-0.0151 -0.03976,0.0362 -0.05754,0.0572 -0.07602,0.0899 -0.123234,0.20935 -0.164359,0.32676 -0.06426,0.19178 -0.07966,0.39942 -0.125836,0.59838 -0.0021,0.0325 -0.0085,0.10832 -0.005,0.14427 0.01241,0.12401 0.184911,-0.0528 -0.13595,0.17464 -0.01172,0.008 0.01626,-0.0266 0.0244,-0.04 0.06231,-0.18612 0.04437,-0.38868 0.053,-0.58586 0.01007,-0.26735 0.0219,-0.53525 0.05383,-0.80024 0,0 0.188525,-0.12742 0.188525,-0.12742 z"
       inkscape:connector-curvature="0" />
    <path
       style="opacity:1;fill:#0000ff;fill-opacity:0.95939086;stroke:none;stroke-width:0.26011768;stroke-miterlimit:4;stroke-dasharray:none;stroke-dashoffset:0;stroke-opacity:1"
       id="path238"
       d="m 28.535502,283.76419 c 0.239193,-0.0312 0.479005,-0.0547 0.719101,-0.0724 0.277187,0.019 0.291789,0.3283 0.299727,0.60445 -0.02072,0.42658 0.02736,0.84985 0.04669,1.27445 0.01924,0.23683 0.04612,0.49943 -0.100216,0.68278 -0.08131,0.0542 -0.156785,0.12456 -0.243943,0.16248 -0.03217,0.0141 -0.06788,-0.008 -0.101887,-0.0123 -0.04662,-0.004 -0.09331,-0.008 -0.139975,-0.0123 -0.14741,-0.0123 -0.292424,-0.0217 -0.440123,-0.0182 0,0 0.164097,-0.16249 0.164097,-0.16249 v 0 c 0.147825,-0.001 0.293483,0.01 0.441037,0.0198 0.04722,0.004 0.09442,0.007 0.141667,0.0109 0.03292,0.001 0.103803,-0.0361 0.09883,0.004 -0.0075,0.0608 -0.07607,0.0795 -0.114103,0.11937 0.160578,-0.16196 0.129665,-0.43593 0.113156,-0.6651 -0.01669,-0.42468 -0.06687,-0.84782 -0.04753,-1.27439 -0.0071,-0.26323 -0.01456,-0.55891 -0.281861,-0.56929 -0.241448,0.0173 -0.482424,0.042 -0.722886,0.0741 0,0 0.168212,-0.16609 0.168212,-0.16609 z"
       inkscape:connector-curvature="0" />
    <path
       style="opacity:1;fill:#0000ff;fill-opacity:0.95939086;stroke:none;stroke-width:0.26011768;stroke-miterlimit:4;stroke-dasharray:none;stroke-dashoffset:0;stroke-opacity:1"
       id="path240"
       d="m 30.607352,284.37188 c 0.06553,0.30631 0.07253,0.61996 0.09223,0.93349 0.02795,0.21635 0.03478,0.4198 -0.02709,0.62661 -0.313672,0.46966 -0.276171,-0.069 -0.27359,-0.28299 0.0066,-0.29331 0.07139,-0.4977 0.214239,-0.72756 0.106359,-0.13701 0.19209,-0.30804 0.320897,-0.41717 0.07927,-0.0671 0.161436,-0.12892 0.242156,-0.19345 0.183886,-0.0952 0.169165,0.19958 0.171705,0.34551 -0.0018,0.23171 -0.0083,0.46334 -0.01178,0.69502 0.0021,0.26295 -0.02328,0.34723 0.214301,0.37026 0.171231,-0.0194 0.08598,-0.01 0.255753,-0.0288 0,0 -0.163551,0.16449 -0.163551,0.16449 v 0 c -0.170789,0.0188 -0.08443,0.01 -0.259069,0.0258 -0.0367,-0.005 -0.07452,-0.004 -0.11009,-0.0162 -0.137405,-0.048 -0.123445,-0.24607 -0.122874,-0.3856 0.0039,-0.23143 0.01085,-0.46278 0.01236,-0.69426 -0.0021,-0.13643 0.03018,-0.40737 -0.145823,-0.30016 0.037,-0.0307 0.07114,-0.0674 0.110968,-0.0921 0.02452,-0.0151 -0.04388,0.0408 -0.06443,0.0633 -0.09631,0.10532 -0.173163,0.2326 -0.259606,0.34925 -0.15053,0.23419 -0.209576,0.40996 -0.22099,0.71285 -0.0014,0.11733 -0.01196,0.24742 0.0097,0.36322 0.0034,0.0181 0.02845,0.0368 0.01853,0.0509 -0.04327,0.0611 -0.105397,0.0974 -0.157965,0.14628 -0.0094,0.008 0.019,-0.0172 0.02849,-0.0258 0.06901,-0.20234 0.06226,-0.40391 0.03546,-0.61878 -0.01901,-0.31354 -0.02268,-0.62815 -0.09718,-0.93229 0,0 0.187222,-0.13165 0.187222,-0.13165 z"
       inkscape:connector-curvature="0" />
    <path
       style="opacity:1;fill:#0000ff;fill-opacity:0.95939086;stroke:none;stroke-width:0.26011768;stroke-miterlimit:4;stroke-dasharray:none;stroke-dashoffset:0;stroke-opacity:1"
       id="path242"
       d="m 33.562801,282.42224 c 0.388922,-0.0357 0.778462,-0.0566 1.168263,-0.07 0.241324,-0.015 0.482255,-0.0382 0.722291,-0.0722 0,0 -0.16382,0.16532 -0.16382,0.16532 v 0 c -0.238964,0.0292 -0.4785,0.051 -0.718358,0.0656 -0.39241,0.0146 -0.784572,0.0363 -1.175869,0.0765 0,0 0.167493,-0.16537 0.167493,-0.16537 z"
       inkscape:connector-curvature="0" />
    <path
       style="opacity:1;fill:#0000ff;fill-opacity:0.95939086;stroke:none;stroke-width:0.26011768;stroke-miterlimit:4;stroke-dasharray:none;stroke-dashoffset:0;stroke-opacity:1"
       id="path244"
       d="m 37.577567,278.85474 c 0.02484,-0.019 0.09455,-0.0829 0.07455,-0.0567 -0.450991,0.59152 0.164192,-0.33728 -0.370996,0.44803 -0.291516,0.42775 -0.442666,0.80945 -0.634399,1.31093 -0.199227,0.68503 -0.373272,1.44629 -0.225886,2.17733 0.08403,0.41679 0.166483,0.49239 0.362415,0.82686 0.198905,0.2671 0.443555,0.45924 0.693149,0.64349 0,0 -0.167891,0.14782 -0.167891,0.14782 v 0 c -0.247136,-0.19218 -0.492407,-0.38785 -0.690794,-0.65746 -0.196902,-0.33908 -0.280634,-0.41778 -0.36557,-0.83877 -0.148233,-0.73472 0.02522,-1.50009 0.222334,-2.19022 0.06403,-0.17008 0.121708,-0.344 0.192082,-0.51024 0.18004,-0.42528 0.472196,-0.96082 0.792541,-1.25181 0.08973,-0.0816 0.187532,-0.1486 0.281299,-0.2229 0,0 -0.16283,0.17371 -0.16283,0.17371 z"
       inkscape:connector-curvature="0" />
    <path
       style="opacity:1;fill:#0000ff;fill-opacity:0.95939086;stroke:none;stroke-width:0.26011768;stroke-miterlimit:4;stroke-dasharray:none;stroke-dashoffset:0;stroke-opacity:1"
       id="path246"
       d="m 38.013861,280.70291 c -0.0086,0.51549 -0.02989,1.02938 -0.02838,1.54527 -0.0021,0.28223 0.01228,0.56436 0.01292,0.84652 1.31e-4,0.0572 -0.0031,0.11433 -0.0037,0.1715 -2.94e-4,0.0274 0.02027,0.0688 8.78e-4,0.082 -0.04624,0.0318 -0.105009,0.0172 -0.157506,0.0256 0.08421,-0.44547 0.171565,-0.88909 0.282295,-1.32585 0.106792,-0.36791 0.190403,-0.76397 0.459205,-1.00192 0.08786,-0.0473 0.169162,-0.12142 0.263596,-0.14216 0.03079,-0.007 0.05691,0.0373 0.07593,0.0679 0.118796,0.19109 0.07967,0.62656 0.0778,0.85183 -0.01362,0.34915 -0.0049,0.69874 0.0063,1.04775 0,0 -0.180834,0.1281 -0.180834,0.1281 v 0 c -0.0082,-0.34981 -0.01749,-0.70007 -0.0051,-1.04993 0.0018,-0.22694 0.02041,-0.47979 -0.02648,-0.70268 -0.0092,-0.0438 -0.02314,-0.0879 -0.04587,-0.12346 -0.0166,-0.0259 -0.07254,-0.0214 -0.06756,-0.0539 0.0089,-0.0576 0.06388,-0.0869 0.09583,-0.13028 -0.02999,0.0239 -0.06305,0.0426 -0.08996,0.0715 -0.214379,0.23012 -0.278777,0.60746 -0.3801,0.91778 -0.111483,0.43498 -0.200856,0.87674 -0.276279,1.32333 -0.07251,0.0757 -0.133731,0.1718 -0.21751,0.22702 -0.0203,0.0136 0.0012,-0.0568 0.0021,-0.085 0.01201,-0.34037 -0.0023,-0.68077 -0.0027,-1.02142 -0.0021,-0.51321 0.01863,-1.02498 0.01774,-1.53791 0,0 0.187223,-0.13165 0.187223,-0.13165 z"
       inkscape:connector-curvature="0" />
    <path
       style="opacity:1;fill:#0000ff;fill-opacity:0.95939086;stroke:none;stroke-width:0.26011768;stroke-miterlimit:4;stroke-dasharray:none;stroke-dashoffset:0;stroke-opacity:1"
       id="path248"
       d="m 39.95273,282.33275 c 0.510701,-0.0281 1.020692,-0.0688 1.53082,-0.10955 0.14737,-0.0123 0.282482,-0.0136 0.42527,-0.0595 0.03787,-0.0123 0.145247,-0.0722 0.108684,-0.0548 -0.218883,0.10327 -0.09091,0.11541 -0.177705,-0.0165 -0.02865,-0.0435 -0.06536,-0.078 -0.09804,-0.11705 -0.0364,-0.0348 -0.07205,-0.0708 -0.109193,-0.10437 -0.02454,-0.0222 -0.04978,-0.0432 -0.0757,-0.0629 -0.0072,-0.005 -0.03022,-0.007 -0.02323,-0.0123 0.188558,-0.15358 0.181988,-0.16933 0.316066,-0.04 0.0052,0.0276 0.01965,0.0548 0.01564,0.0828 -0.02038,0.14135 -0.254415,0.41907 -0.320731,0.51762 -0.15844,0.23548 -0.161869,0.24987 -0.301181,0.48949 -0.03246,0.0554 -0.06491,0.11078 -0.09737,0.16625 0,0 -0.187656,0.11323 -0.187656,0.11323 v 0 c 0.03356,-0.0559 0.06713,-0.11201 0.100692,-0.168 0.137967,-0.23771 0.145268,-0.25827 0.300823,-0.49176 0.06083,-0.0913 0.289286,-0.36766 0.321014,-0.49165 0.0054,-0.0214 -0.0045,-0.0445 -0.0068,-0.0668 -0.01813,-0.0169 -0.03511,-0.0359 -0.0544,-0.0506 -0.02013,-0.0154 -0.07412,-0.0138 -0.06341,-0.0398 0.130823,-0.31836 0.218833,-0.11433 0.359161,0.0123 0.06246,0.0734 0.173445,0.18742 0.151654,0.23146 -0.156888,0.31712 -0.486951,0.29907 -0.740577,0.31972 -0.513791,0.0401 -1.027485,0.0809 -1.541405,0.11801 0,0 0.167494,-0.16536 0.167494,-0.16536 z"
       inkscape:connector-curvature="0" />
    <path
       style="opacity:1;fill:#0000ff;fill-opacity:0.95939086;stroke:none;stroke-width:0.26011768;stroke-miterlimit:4;stroke-dasharray:none;stroke-dashoffset:0;stroke-opacity:1"
       id="path250"
       d="m 40.169429,281.86308 c -0.04171,0.0817 -0.332917,0.37839 -0.272904,0.46289 0.01643,0.0232 0.04229,0.0327 0.06343,0.049 0.169962,0.10041 0.342445,0.19478 0.516593,0.28366 0,0 -0.169686,0.15428 -0.169686,0.15428 v 0 c -0.174801,-0.0921 -0.349278,-0.18566 -0.52111,-0.28586 -0.02437,-0.0213 -0.05438,-0.0352 -0.0731,-0.064 -0.07973,-0.12223 0.212135,-0.38208 0.263074,-0.48357 0,0 0.193702,-0.1165 0.193702,-0.1165 z"
       inkscape:connector-curvature="0" />
    <path
       style="opacity:1;fill:#0000ff;fill-opacity:0.95939086;stroke:none;stroke-width:0.26011768;stroke-miterlimit:4;stroke-dasharray:none;stroke-dashoffset:0;stroke-opacity:1"
       id="path252"
       d="m 43.014728,278.80031 c -0.07606,0.93933 -0.202303,1.87089 -0.316589,2.80392 -0.04427,0.42695 -0.105784,0.85153 -0.140717,1.2799 0,0 -0.184551,0.12633 -0.184551,0.12633 v 0 c 0.04571,-0.43121 0.108363,-0.85954 0.154954,-1.29062 0.11583,-0.9277 0.242169,-1.85512 0.301148,-2.79164 0,0 0.185755,-0.12783 0.185755,-0.12783 z"
       inkscape:connector-curvature="0" />
    <path
       style="opacity:1;fill:#0000ff;fill-opacity:0.95939086;stroke:none;stroke-width:0.26011768;stroke-miterlimit:4;stroke-dasharray:none;stroke-dashoffset:0;stroke-opacity:1"
       id="path254"
       d="m 42.440566,282.06972 c 0.42786,-0.42177 0.841361,-0.87012 1.206237,-1.37464 0.0205,-0.0473 0.04101,-0.0948 0.06151,-0.14212 0,0 0.187902,-0.11746 0.187902,-0.11746 v 0 c -0.02153,0.0503 -0.04303,0.10055 -0.06455,0.15085 -0.363786,0.50088 -0.773216,0.94895 -1.195666,1.37333 0,0 -0.195441,0.1101 -0.195441,0.1101 z"
       inkscape:connector-curvature="0" />
    <path
       style="opacity:1;fill:#0000ff;fill-opacity:0.95939086;stroke:none;stroke-width:0.26011768;stroke-miterlimit:4;stroke-dasharray:none;stroke-dashoffset:0;stroke-opacity:1"
       id="path256"
       d="m 42.756126,281.40081 c 0.12659,0.28961 0.224483,0.62269 0.442117,0.83328 0.05065,0.049 0.111371,0.0797 0.167059,0.1195 0.260047,0.11978 0.484443,0.0109 0.709377,-0.15519 0.02943,-0.0217 -0.05995,0.0412 -0.08993,0.0618 0,0 0.193343,-0.10791 0.193343,-0.10791 v 0 c -0.232429,0.1944 -0.486815,0.44743 -0.789589,0.41291 -0.06585,-0.008 -0.127862,-0.0417 -0.191794,-0.0626 -0.05672,-0.0417 -0.118469,-0.0746 -0.170166,-0.12537 -0.216899,-0.2128 -0.317355,-0.54331 -0.450386,-0.83033 0,0 0.179967,-0.14618 0.179967,-0.14618 z"
       inkscape:connector-curvature="0" />
    <path
       style="opacity:1;fill:#0000ff;fill-opacity:0.95939086;stroke:none;stroke-width:0.26011768;stroke-miterlimit:4;stroke-dasharray:none;stroke-dashoffset:0;stroke-opacity:1"
       id="path258"
       d="m 44.004471,278.68892 c 0.415218,0.25777 0.789764,0.64099 1.112097,1.05213 0.09039,0.11528 0.171743,0.24083 0.257616,0.36125 0.0649,0.13219 0.141203,0.25701 0.194703,0.39682 0.296269,0.77423 0.147278,1.4825 -0.0493,2.25256 -0.06927,0.3047 -0.231086,0.56493 -0.284,0.87619 -0.0083,0.0487 -0.0044,0.0993 -0.0066,0.14899 0,0 -0.184082,0.1277 -0.184082,0.1277 v 0 c 0.0023,-0.0523 -0.0014,-0.1056 0.0072,-0.15676 0.05389,-0.31437 0.219739,-0.5749 0.292163,-0.88158 0.196123,-0.75339 0.346385,-1.47635 0.05821,-2.23494 -0.05269,-0.13869 -0.128075,-0.26248 -0.192114,-0.39372 -0.08544,-0.11978 -0.166142,-0.24505 -0.256312,-0.3595 -0.32245,-0.40929 -0.700582,-0.79205 -1.122653,-1.03124 0,0 0.173076,-0.15794 0.173076,-0.15794 z"
       inkscape:connector-curvature="0" />
    <path
       style="opacity:1;fill:#0000ff;fill-opacity:0.95939086;stroke:none;stroke-width:0.26011768;stroke-miterlimit:4;stroke-dasharray:none;stroke-dashoffset:0;stroke-opacity:1"
       id="path260"
       d="m 43.707059,276.73368 c 0.351969,0.2747 0.71224,0.53369 1.032075,0.86583 0.100902,0.10477 0.19481,0.2194 0.292218,0.32909 0.486671,0.62728 0.857672,1.38398 1.101287,2.19785 0.04676,0.1562 0.08337,0.31672 0.125056,0.47509 0.186063,0.89172 0.192512,1.81421 0.109404,2.72364 -0.104179,0.85831 -0.407303,1.64639 -0.712708,2.41916 -0.201105,0.4928 -0.406925,0.98699 -0.689841,1.41706 -0.09281,0.13056 -0.02322,0.045 -0.243803,0.20417 0,0 0.166969,-0.17012 0.166969,-0.17012 v 0 c -0.175597,0.15302 -0.20194,0.19584 -0.113894,0.0793 0.291087,-0.42672 0.499542,-0.9241 0.703686,-1.41888 0.306301,-0.76961 0.60699,-1.55646 0.714849,-2.41113 0.08719,-0.90632 0.0802,-1.82696 -0.102142,-2.71678 -0.04115,-0.15804 -0.0771,-0.31825 -0.123451,-0.47408 -0.241243,-0.81108 -0.611717,-1.56509 -1.097731,-2.18794 -0.0976,-0.10873 -0.191643,-0.22242 -0.292795,-0.32606 -0.323087,-0.33099 -0.686653,-0.58882 -1.045706,-0.85381 0,0 0.176529,-0.1524 0.176529,-0.1524 z"
       inkscape:connector-curvature="0" />
    <path
       style="opacity:1;fill:#0000ff;fill-opacity:0.95939086;stroke:none;stroke-width:0.26011768;stroke-miterlimit:4;stroke-dasharray:none;stroke-dashoffset:0;stroke-opacity:1"
       id="path262"
       d="m 48.456939,281.8855 c 0.515404,-0.0682 1.033074,-0.0615 1.550592,-0.0641 0.36796,-0.0136 0.73432,-0.0492 1.102442,-0.0333 0,0 -0.162257,0.15896 -0.162257,0.15896 v 0 c -0.365986,-0.0181 -0.730451,0.0154 -1.096331,0.0287 -0.521383,0.004 -1.042777,4e-4 -1.561579,0.0748 0,0 0.167133,-0.16502 0.167133,-0.16502 z"
       inkscape:connector-curvature="0" />
    <path
       style="opacity:1;fill:#0000ff;fill-opacity:0.95939086;stroke:none;stroke-width:0.26011768;stroke-miterlimit:4;stroke-dasharray:none;stroke-dashoffset:0;stroke-opacity:1"
       id="path264"
       d="m 48.586237,282.79246 c 0.421661,0.003 0.843029,-0.0517 1.263188,-0.0928 0.403737,-0.0417 0.808352,-0.0662 1.213172,-0.0843 0,0 -0.161312,0.16039 -0.161312,0.16039 v 0 c -0.403514,0.0161 -0.806797,0.0402 -1.209181,0.0817 -0.424315,0.0431 -0.849956,0.0992 -1.275888,0.097 0,0 0.170021,-0.16225 0.170021,-0.16225 z"
       inkscape:connector-curvature="0" />
    <path
       style="opacity:1;fill:#0000ff;fill-opacity:0.95939086;stroke:none;stroke-width:0.26011768;stroke-miterlimit:4;stroke-dasharray:none;stroke-dashoffset:0;stroke-opacity:1"
       id="path266"
       d="m 2.8291902,292.4317 c 0.4719194,-0.075 0.9425845,-0.15833 1.4157947,-0.22091 0.4188712,-0.0337 0.2169555,-0.025 0.60565,-0.0295 0,0 -0.1583843,0.15664 -0.1583843,0.15664 v 0 c -0.3856156,0.003 -0.184998,-0.005 -0.6017496,0.0288 -0.4772095,0.0644 -0.9519522,0.14843 -1.4267952,0.23509 0,0 0.1654844,-0.17011 0.1654844,-0.17011 z"
       inkscape:connector-curvature="0" />
    <path
       style="opacity:1;fill:#0000ff;fill-opacity:0.95939086;stroke:none;stroke-width:0.26011768;stroke-miterlimit:4;stroke-dasharray:none;stroke-dashoffset:0;stroke-opacity:1"
       id="path268"
       d="m 2.92111,293.44132 c 0.2833839,0.0644 0.5667145,0.0906 0.8546326,0.0936 0.2947368,-0.01 0.582923,-0.0876 0.8735162,-0.14014 0.2131695,-0.0312 0.4287432,-0.0727 0.6405426,-0.0154 0.1245155,0.0542 0.062584,0.0262 0.1857999,0.0835 0,0 -0.1706047,0.15639 -0.1706047,0.15639 v 0 c -0.1222773,-0.0562 -0.060897,-0.0296 -0.1841316,-0.0801 -0.2101389,-0.0513 -0.4235336,-0.01 -0.6342877,0.021 -0.2906953,0.0531 -0.5795928,0.12906 -0.8745609,0.13588 -0.2895796,-0.004 -0.5745662,-0.0341 -0.8602617,-0.0925 0,0 0.1693553,-0.16241 0.1693553,-0.16241 z"
       inkscape:connector-curvature="0" />
    <path
       style="opacity:1;fill:#0000ff;fill-opacity:0.95939086;stroke:none;stroke-width:0.26011768;stroke-miterlimit:4;stroke-dasharray:none;stroke-dashoffset:0;stroke-opacity:1"
       id="path270"
       d="m 7.3527237,291.72792 c 0.1856884,-0.34757 0.3477312,-0.71081 0.4928755,-1.08621 0.078857,-0.21423 0.1386121,-0.4381 0.1928477,-0.66332 0.0091,-0.0378 0.017758,-0.0759 0.025238,-0.11419 0.00185,-0.01 -0.00449,-0.0248 0.00263,-0.0288 0.055251,-0.0307 0.1153615,-0.046 0.1730425,-0.069 -0.1086425,0.49339 -0.1321586,1.01312 -0.1673713,1.52141 -0.00737,0.3887 -0.1142046,0.78573 -0.060759,1.17346 0,0 -0.1827521,0.13329 -0.1827521,0.13329 v 0 c -0.049816,-0.39215 0.056399,-0.79103 0.065066,-1.1838 0.034743,-0.50807 0.059951,-1.02442 0.1552279,-1.52118 0.069023,-0.0611 0.1341172,-0.12947 0.2070683,-0.18314 0.00805,-0.005 -0.00217,0.0231 -0.00458,0.0342 -0.00847,0.0393 -0.01828,0.078 -0.028027,0.11678 -0.056799,0.22593 -0.1147111,0.45216 -0.1939789,0.66803 -0.1429262,0.37395 -0.3023779,0.73594 -0.4841684,1.08363 0,0 -0.1923759,0.11868 -0.1923759,0.11868 z"
       inkscape:connector-curvature="0" />
    <path
       style="opacity:1;fill:#0000ff;fill-opacity:0.95939086;stroke:none;stroke-width:0.26011768;stroke-miterlimit:4;stroke-dasharray:none;stroke-dashoffset:0;stroke-opacity:1"
       id="path272"
       d="m 6.4697026,292.98152 c 0.5663944,-0.0606 1.1332476,-0.0374 1.6993769,0.0109 0.427372,0.0285 0.85472,0.0472 1.2811006,0.0941 0,0 -0.1623991,0.15723 -0.1623991,0.15723 v 0 c -0.4235841,-0.0536 -0.8484709,-0.0731 -1.2735832,-0.10054 -0.5707069,-0.0465 -1.1420322,-0.0659 -1.7123482,0.004 0,0 0.167853,-0.16573 0.167853,-0.16573 z"
       inkscape:connector-curvature="0" />
    <path
       style="opacity:1;fill:#0000ff;fill-opacity:0.95939086;stroke:none;stroke-width:0.26011768;stroke-miterlimit:4;stroke-dasharray:none;stroke-dashoffset:0;stroke-opacity:1"
       id="path274"
       d="m 7.4178273,294.49383 c 0.066748,-0.26458 0.1540341,-0.55312 0.3619269,-0.69724 0.1005636,-0.0697 0.2074915,-0.12441 0.3112376,-0.18668 0.1977246,-4.6e-4 0.418815,0.0864 0.5056929,0.33147 0.062756,0.17701 0.032951,0.28386 0.018675,0.47148 -0.1727203,0.70012 -0.6223787,1.20214 -1.0339623,1.69856 -0.078764,0.12906 -0.5362873,0.53935 -0.5060618,0.73286 0.014422,0.0923 0.1956004,0.0707 0.2074787,0.0716 0.5335357,-0.051 1.0675672,-0.0749 1.6021067,-0.10382 0.2857197,-0.0186 0.5682994,-0.0743 0.8476321,-0.1482 0,0 -0.1610937,0.16584 -0.1610937,0.16584 v 0 c -0.2788835,0.0689 -0.5605089,0.12251 -0.8449698,0.14016 -0.5367885,0.0273 -1.0727433,0.0548 -1.6084366,0.10573 -0.051943,-0.007 -0.2080943,0.0109 -0.2302351,-0.10832 -0.036944,-0.19994 0.4291484,-0.62048 0.5113628,-0.75033 0.4090009,-0.49244 0.8573665,-0.98789 1.0355093,-1.67983 0.015005,-0.1764 0.04535,-0.286 -0.013309,-0.45347 -0.083296,-0.2378 -0.3007681,-0.31531 -0.4907042,-0.30571 0.013482,-0.0293 0.067362,-0.0936 0.040446,-0.0879 -0.048146,0.0109 -0.083242,0.0643 -0.119429,0.10477 -0.133155,0.14896 -0.1949762,0.36903 -0.243844,0.57534 0,0 -0.1900226,0.12374 -0.1900226,0.12374 z"
       inkscape:connector-curvature="0" />
    <path
       style="opacity:1;fill:#0000ff;fill-opacity:0.95939086;stroke:none;stroke-width:0.26011768;stroke-miterlimit:4;stroke-dasharray:none;stroke-dashoffset:0;stroke-opacity:1"
       id="path276"
       d="m 11.88793,288.34054 c -0.403998,0.51377 -0.746723,1.10498 -1.00316,1.74769 -0.08047,0.20168 -0.146853,0.41145 -0.22028,0.61718 -0.339539,1.10197 -0.499188,2.28295 -0.363247,3.45771 0.02489,0.21508 0.07048,0.42574 0.105711,0.63862 0.203165,0.86674 0.458447,1.70015 0.981153,2.35091 0,0 -0.172294,0.14376 -0.172294,0.14376 v 0 c -0.124295,-0.16252 -0.17955,-0.22412 -0.289226,-0.42389 -0.323672,-0.58959 -0.525682,-1.27108 -0.682538,-1.95087 -0.03526,-0.21391 -0.08083,-0.42561 -0.105769,-0.64171 -0.135909,-1.17742 0.02174,-2.36136 0.35843,-3.46762 0.07236,-0.20583 0.137803,-0.41559 0.217088,-0.61751 0.250813,-0.63877 0.586599,-1.22667 0.981148,-1.74235 0,0 0.192984,-0.11186 0.192984,-0.11186 z"
       inkscape:connector-curvature="0" />
    <path
       style="opacity:1;fill:#0000ff;fill-opacity:0.95939086;stroke:none;stroke-width:0.26011768;stroke-miterlimit:4;stroke-dasharray:none;stroke-dashoffset:0;stroke-opacity:1"
       id="path278"
       d="m 11.83124,292.09231 c 0.02988,-0.41531 0.27966,-0.72642 0.507231,-1.00503 0.265854,-0.25142 0.61259,-0.593 0.968234,-0.40854 0.04147,0.0215 0.0769,0.0576 0.115356,0.0863 0.06666,0.088 0.127645,0.13961 0.138405,0.2714 0.02662,0.32613 -0.260185,0.71208 -0.410821,0.94355 -0.357524,0.47386 -0.752176,0.90253 -1.136721,1.34241 -0.0739,0.10164 -0.37792,0.40423 -0.315017,0.58255 0.0087,0.0248 0.03081,0.0385 0.04622,0.0577 0.02941,0.01 0.05815,0.0232 0.08824,0.0289 0.110729,0.0209 0.1968,0.0123 0.310316,0.005 0.242356,-0.0162 0.483336,-0.0524 0.724667,-0.0832 0.382054,-0.0512 0.767356,-0.0641 1.151449,-0.0685 0,0 -0.162164,0.16037 -0.162164,0.16037 v 0 c -0.382532,0.003 -0.7663,0.0157 -1.146764,0.067 -0.242807,0.0317 -0.485452,0.0696 -0.729385,0.0857 -0.104489,0.007 -0.213834,0.0161 -0.317969,-0.008 -0.03303,-0.008 -0.06381,-0.0262 -0.09571,-0.0392 -0.01794,-0.0243 -0.04281,-0.0428 -0.05381,-0.0727 -0.07322,-0.19881 0.22889,-0.4934 0.313236,-0.6079 0.385497,-0.43918 0.779762,-0.86863 1.139717,-1.34012 0.143937,-0.21855 0.434094,-0.6068 0.415267,-0.91598 -0.0076,-0.1251 -0.06756,-0.17483 -0.130555,-0.25716 -0.131152,-0.0951 -0.241533,-0.14713 -0.398433,-0.11473 -0.05611,0.0109 -0.107578,0.0493 -0.164005,0.0582 -0.009,0.001 0.0121,-0.0385 0.0043,-0.0327 -0.0597,0.0437 -0.111775,0.1015 -0.167664,0.15221 -0.224475,0.27072 -0.475391,0.57421 -0.50645,0.98134 0,0 -0.187224,0.13165 -0.187224,0.13165 z"
       inkscape:connector-curvature="0" />
    <path
       style="opacity:1;fill:#0000ff;fill-opacity:0.95939086;stroke:none;stroke-width:0.26011768;stroke-miterlimit:4;stroke-dasharray:none;stroke-dashoffset:0;stroke-opacity:1"
       id="path280"
       d="m 17.617837,291.75234 c -0.242973,-0.27599 -0.597653,0.0286 -0.816226,0.20399 -0.03363,0.18859 0.02142,-0.0817 -0.152316,0.31136 -0.113818,0.25752 -0.169542,0.56893 -0.154712,0.86133 0.0041,0.0817 0.02247,0.16124 0.0337,0.24186 0.02515,0.0603 0.0392,0.13002 0.07546,0.18101 0.146351,0.20599 0.436529,0.0914 0.56842,-0.0745 0.0094,-0.0123 -0.01161,-0.0299 -0.01741,-0.0447 0.284841,-0.42195 0.523623,-0.90093 0.659204,-1.42686 0.02504,-0.0971 0.0409,-0.1975 0.06135,-0.29625 0.04237,-0.50307 -0.07861,-0.95191 -0.478171,-1.1722 -0.07435,-0.0409 -0.156142,-0.0572 -0.234212,-0.0858 -0.272738,-0.0503 -0.52569,0.004 -0.766341,0.17204 -0.01321,0.01 -0.01018,0.036 -0.01941,0.0507 -0.04068,0.0651 -0.08643,0.1251 -0.129649,0.18762 0,0 -0.186658,0.11064 -0.186658,0.11064 v 0 c 0.04327,-0.0644 0.07817,-0.13908 0.129825,-0.19334 0.257256,-0.2702 0.529964,-0.48451 0.874819,-0.50397 0.08713,-0.005 0.173955,0.0161 0.260932,0.0243 0.07925,0.0303 0.162356,0.0483 0.237753,0.091 0.404778,0.22935 0.531971,0.68506 0.491326,1.19951 -0.02035,0.0997 -0.036,0.20113 -0.06103,0.29925 -0.134564,0.52748 -0.372138,1.00784 -0.652803,1.43526 -0.187991,0.18804 -0.639755,0.76505 -0.914341,0.36533 -0.03694,-0.0538 -0.0515,-0.12579 -0.07725,-0.1887 -0.01147,-0.0824 -0.02997,-0.16378 -0.03442,-0.24719 -0.01893,-0.35508 0.07606,-0.87051 0.288815,-1.12836 0.105662,-0.1281 0.233121,-0.22557 0.349683,-0.33836 0.234175,-0.18236 0.590873,-0.47223 0.843626,-0.18106 0,0 -0.179967,0.14616 -0.179967,0.14616 z"
       inkscape:connector-curvature="0" />
    <path
       style="opacity:1;fill:#0000ff;fill-opacity:0.95939086;stroke:none;stroke-width:0.26011768;stroke-miterlimit:4;stroke-dasharray:none;stroke-dashoffset:0;stroke-opacity:1"
       id="path282"
       d="m 18.036413,292.91778 c -0.05101,0.72933 -0.102541,1.45863 -0.147448,2.18858 -0.01804,0.29732 -0.03204,0.59496 -0.04559,0.89262 0,0 -0.181359,0.12565 -0.181359,0.12565 v 0 c 0.01725,-0.2993 0.03345,-0.59869 0.05256,-0.89782 0.04636,-0.7269 0.09851,-1.45331 0.135075,-2.18107 0,0 0.186763,-0.12796 0.186762,-0.12796 z"
       inkscape:connector-curvature="0" />
    <path
       style="opacity:1;fill:#0000ff;fill-opacity:0.95939086;stroke:none;stroke-width:0.26011768;stroke-miterlimit:4;stroke-dasharray:none;stroke-dashoffset:0;stroke-opacity:1"
       id="path284"
       d="m 17.606974,295.40327 c 0.215607,-0.22361 0.419129,-0.46425 0.623701,-0.7029 0,0 0.189382,-0.109 0.189382,-0.109 v 0 c -0.203961,0.23644 -0.406118,0.47556 -0.617642,0.70179 0,0 -0.195441,0.1101 -0.195441,0.1101 z"
       inkscape:connector-curvature="0" />
    <path
       style="opacity:1;fill:#0000ff;fill-opacity:0.95939086;stroke:none;stroke-width:0.26011768;stroke-miterlimit:4;stroke-dasharray:none;stroke-dashoffset:0;stroke-opacity:1"
       id="path286"
       d="m 17.785017,295.09085 c 0.175241,0.33396 0.277298,0.5359 0.564167,0.74235 0.155566,0.0793 0.247671,0.1 0.403061,0.014 0.01549,-0.008 -0.033,0.01 -0.0495,0.0147 0,0 0.190406,-0.10723 0.190406,-0.10723 v 0 c -0.299005,0.25945 -0.373947,0.40098 -0.714388,0.22902 -0.04437,-0.0326 -0.09114,-0.0607 -0.133112,-0.0978 -0.191668,-0.16953 -0.303132,-0.41673 -0.438649,-0.64601 0,0 0.178017,-0.14908 0.178017,-0.14908 z"
       inkscape:connector-curvature="0" />
    <path
       style="opacity:1;fill:#0000ff;fill-opacity:0.95939086;stroke:none;stroke-width:0.26011768;stroke-miterlimit:4;stroke-dasharray:none;stroke-dashoffset:0;stroke-opacity:1"
       id="path288"
       d="m 21.815458,291.86913 c -0.278261,-0.09 -0.574821,-0.10232 -0.837249,0.0643 -0.07212,0.0458 -0.136322,0.10845 -0.204483,0.16272 -0.0069,0.0266 -0.0082,0.0563 -0.02055,0.0797 -0.138869,0.26274 -0.190519,0.23498 -0.257367,0.54242 -0.06594,0.30326 0.0017,0.44577 0.133567,0.68357 0.182823,0.21154 0.393455,0.25159 0.608687,0.0776 0.0079,-0.007 -0.0066,-0.0254 -0.0012,-0.0349 0.04893,-0.0847 0.107079,-0.16071 0.160611,-0.24106 0.296132,-0.58129 0.354182,-1.27113 0.170924,-1.92156 -0.04148,-0.14721 -0.104046,-0.28406 -0.156078,-0.4261 -0.237674,-0.46552 -0.575958,-1.09026 -1.084944,-1.08225 -0.05478,8.7e-4 -0.10781,0.0241 -0.161712,0.0363 0,0 0.161076,-0.16432 0.161076,-0.16432 v 0 c 0.05459,-0.01 0.10864,-0.0301 0.163757,-0.0287 0.512593,0.0142 0.848175,0.63478 1.089186,1.10932 0.05284,0.14314 0.116128,0.2811 0.158523,0.42942 0.186698,0.6532 0.134647,1.34803 -0.156707,1.93811 -0.206077,0.32093 -0.154553,0.28529 -0.499951,0.55429 -0.223071,0.17373 -0.445022,0.10873 -0.626466,-0.106 -0.08781,-0.16015 -0.146533,-0.22498 -0.160876,-0.43041 -0.02062,-0.2953 0.104998,-0.62647 0.273949,-0.82941 0.109648,-0.13179 0.238651,-0.23652 0.357977,-0.35477 0.06939,-0.0532 0.134829,-0.11528 0.208148,-0.15974 0.268733,-0.16319 0.5715,-0.14532 0.854244,-0.0565 0,0 -0.173075,0.15795 -0.173075,0.15795 z"
       inkscape:connector-curvature="0" />
    <path
       style="opacity:1;fill:#0000ff;fill-opacity:0.95939086;stroke:none;stroke-width:0.26011768;stroke-miterlimit:4;stroke-dasharray:none;stroke-dashoffset:0;stroke-opacity:1"
       id="path290"
       d="m 22.461814,293.31378 c -0.1147,-0.0293 -0.229056,-0.0746 -0.348007,-0.0626 -0.03705,0.004 -0.08264,0.0617 -0.108962,0.0293 -0.02335,-0.0286 0.08026,-0.0937 0.08852,-0.0544 0.01117,0.0532 -0.04705,0.0932 -0.07057,0.13986 -0.132436,0.52271 -0.152919,1.0812 -0.180413,1.62509 0.02289,0.25396 -0.07428,0.58132 -0.02585,0.8305 0.01549,0.0797 0.04284,0.0855 0.09187,0.12346 0.07946,0.022 0.138903,10e-4 0.209884,-0.0398 0,0 -0.161394,0.17281 -0.161394,0.17281 v 0 c -0.07713,0.0352 -0.141873,0.0531 -0.223238,0.0195 -0.0531,-0.0469 -0.08357,-0.057 -0.100537,-0.14543 -0.04628,-0.24094 0.05211,-0.58969 0.03033,-0.837 0.02812,-0.54618 0.05006,-1.10383 0.171103,-1.63249 0.02194,-0.0495 0.0318,-0.11077 0.06583,-0.14852 0.269793,-0.29903 0.415372,-0.26902 0.731443,-0.1825 0,0 -0.170021,0.16227 -0.170021,0.16227 z"
       inkscape:connector-curvature="0" />
    <path
       style="opacity:1;fill:#0000ff;fill-opacity:0.95939086;stroke:none;stroke-width:0.26011768;stroke-miterlimit:4;stroke-dasharray:none;stroke-dashoffset:0;stroke-opacity:1"
       id="path292"
       d="m 22.684515,294.04921 c -0.102806,0.69427 -0.209144,1.38772 -0.315052,2.08131 -0.07747,0.50941 -0.194184,1.00745 -0.293316,1.51058 0,0 -0.182861,0.12128 -0.182861,0.12128 v 0 c 0.106769,-0.50374 0.227838,-1.00341 0.304363,-1.51621 0.104057,-0.68882 0.207574,-1.37776 0.298342,-2.06946 0,0 0.188524,-0.12742 0.188524,-0.12742 z"
       inkscape:connector-curvature="0" />
    <path
       style="opacity:1;fill:#0000ff;fill-opacity:0.95939086;stroke:none;stroke-width:0.26011768;stroke-miterlimit:4;stroke-dasharray:none;stroke-dashoffset:0;stroke-opacity:1"
       id="path294"
       d="m 22.245855,294.33084 c 0.173059,-0.18392 0.450423,-0.38396 0.695345,-0.28624 0.04098,0.0164 0.07517,0.0518 0.112745,0.0779 0.12619,0.16521 0.249279,0.38298 0.14208,0.61274 -0.06437,0.13798 -0.161489,0.2063 -0.261475,0.29903 -0.143048,0.0991 -0.528027,0.43702 -0.744317,0.3011 -0.01677,-0.0109 -0.02332,-0.0364 -0.03499,-0.0547 0,0 0.179594,-0.14625 0.179594,-0.14625 v 0 c 0.0921,0.15322 0.298487,-0.003 0.407751,-0.0256 0.0083,-10e-4 0.0018,0.0206 0.0028,0.031 0.317373,-0.28159 0.4393,-0.46511 0.137468,-0.86483 -0.141393,-0.0915 -0.198592,-0.10368 -0.359083,-0.0637 -0.03974,0.01 -0.09504,0.0829 -0.116995,0.0411 -0.02115,-0.0405 0.06011,-0.0615 0.09034,-0.0919 0.01892,-0.0191 -0.03762,0.0385 -0.05642,0.0577 0,0 -0.19475,0.11296 -0.19475,0.11296 z"
       inkscape:connector-curvature="0" />
    <path
       style="opacity:1;fill:#0000ff;fill-opacity:0.95939086;stroke:none;stroke-width:0.26011768;stroke-miterlimit:4;stroke-dasharray:none;stroke-dashoffset:0;stroke-opacity:1"
       id="path296"
       d="m 25.36329,291.65426 c -0.211069,-0.19237 -0.471533,-0.31721 -0.738784,-0.25512 -0.225753,0.0524 -0.206301,0.0123 -0.227606,0.15223 -0.0348,0.0849 -0.08159,0.16383 -0.104411,0.2547 -0.05827,0.23202 -0.03064,0.52174 0.157163,0.6539 0.133448,0.0939 0.20498,0.0407 0.342286,0.004 0.05822,-0.0409 0.116421,-0.0819 0.174633,-0.12278 -0.006,-0.01 -0.02289,-0.0172 -0.01808,-0.0274 0.03089,-0.0652 0.0779,-0.11664 0.114816,-0.17694 0.02823,-0.0461 0.05342,-0.0949 0.08053,-0.14206 0.01461,-0.0254 0.02316,-0.0591 0.04462,-0.0754 0.06238,-0.0478 0.13374,-0.0746 0.20061,-0.11201 -0.06716,0.80365 -0.156828,1.60451 -0.227587,2.40787 -0.105895,0.97522 -0.19776,1.9713 -0.453802,2.90905 -0.03842,0.14073 -0.08938,0.27576 -0.134071,0.41365 -0.102519,0.23984 -0.373651,0.73643 -0.644916,0.52272 -0.223312,-0.17592 -0.198895,-0.54627 -0.197724,-0.81868 0.02693,-0.12947 0.04365,-0.26286 0.08079,-0.38845 0.208266,-0.70429 0.65556,-1.26498 1.102887,-1.74859 0.283977,-0.27751 0.144657,-0.14933 0.416553,-0.38688 0,0 0.187071,-0.10369 0.187071,-0.10369 v 0 c -0.275206,0.23723 -0.134352,0.10914 -0.42114,0.38663 -0.448796,0.47823 -0.89789,1.03452 -1.108539,1.73543 -0.03706,0.12333 -0.05407,0.25446 -0.0811,0.38169 -0.0021,0.24781 -0.03065,0.38937 0.06494,0.61428 0.02856,0.0673 0.06925,0.13178 0.122118,0.1707 0.194376,0.14291 0.201806,-0.0634 0.302838,-0.25214 0.04603,-0.1378 0.09861,-0.27254 0.138089,-0.41339 0.262137,-0.93511 0.352503,-1.93263 0.458224,-2.90728 0.06731,-0.79196 0.144462,-1.5827 0.215463,-2.37409 0.05713,-0.0507 0.108352,-0.11364 0.171396,-0.15238 0.02342,-0.0145 -0.03266,0.0505 -0.04802,0.0765 -0.02801,0.0476 -0.05367,0.0973 -0.08207,0.14458 -0.166588,0.27716 -0.364678,0.45889 -0.618382,0.6031 -0.146362,0.0306 -0.216623,0.0799 -0.354589,-0.024 -0.190942,-0.1438 -0.22466,-0.43777 -0.167895,-0.68285 0.02166,-0.0936 0.06727,-0.176 0.100913,-0.26401 0.116947,-0.10873 0.22463,-0.23454 0.350841,-0.32622 0.313853,-0.22795 0.706189,-0.06 0.978024,0.1727 0,0 -0.176098,0.15038 -0.176098,0.15038 z"
       inkscape:connector-curvature="0" />
    <path
       style="opacity:1;fill:#0000ff;fill-opacity:0.95939086;stroke:none;stroke-width:0.26011768;stroke-miterlimit:4;stroke-dasharray:none;stroke-dashoffset:0;stroke-opacity:1"
       id="path298"
       d="m 26.120756,293.60758 c 0.06422,0.42055 0.102341,0.84967 0.0817,1.27742 -0.01422,0.11105 0.01041,0.41792 -0.208034,0.29012 -0.03803,-0.0222 0.01145,-0.10287 0.01995,-0.15366 0.03195,-0.19079 0.05327,-0.26377 0.09901,-0.45358 0.04839,-0.20504 0.313066,-0.96986 0.583581,-0.71537 0.03051,0.0287 0.04697,0.0748 0.07045,0.11228 0.109714,0.28375 0.113521,0.59898 0.09531,0.90635 0.01393,0.0738 0.03918,0.19323 -0.171996,0.0716 -0.03668,-0.0212 0.01927,-0.0969 0.02908,-0.14531 0.04218,-0.20811 0.09032,-0.41011 0.147033,-0.61291 0.09131,-0.25526 0.181052,-0.3775 0.413873,-0.48271 0.02875,-0.0136 0.06377,0.005 0.0895,0.0255 0.07598,0.0604 0.08271,0.15844 0.106736,0.25441 0.0244,0.26898 0.0012,0.53952 -0.01652,0.8079 0,0 -0.182932,0.12606 -0.182932,0.12606 v 0 c 0.01869,-0.26518 0.04208,-0.53244 0.01924,-0.79845 -0.01968,-0.0806 -0.02666,-0.18125 -0.09541,-0.22952 -0.02386,-0.0168 -0.08256,0.0194 -0.08151,-0.0145 0.0014,-0.0479 0.07421,-0.14439 0.08503,-0.0984 0.02603,0.11078 -0.241802,0.14102 -0.153461,0.28981 -0.05577,0.19597 -0.06328,0.21042 -0.106991,0.41245 -0.01408,0.0651 -0.02613,0.13083 -0.03856,0.19642 -0.0091,0.0479 -7.03e-4,0.10586 -0.02595,0.14382 -0.197297,0.29679 -0.192947,0.30029 -0.203977,0.1823 0.02535,-0.30114 0.02152,-0.61189 -0.08534,-0.89067 -0.02126,-0.0329 -0.03574,-0.0746 -0.06378,-0.0986 -0.02299,-0.0196 -0.08296,0.01 -0.08135,-0.0252 0.0021,-0.046 0.08825,-0.13356 0.08661,-0.0876 -0.002,0.057 -0.0632,0.0842 -0.08819,0.1322 -0.07639,0.14668 -0.09911,0.25391 -0.147483,0.41796 -0.0459,0.18985 -0.06644,0.25747 -0.09694,0.44818 -0.0079,0.0494 0.0065,0.109 -0.01773,0.14957 -0.04961,0.0828 -0.117794,0.15053 -0.191368,0.1992 -0.05632,0.0372 0.150581,-0.37423 0.02976,-0.23345 0.02463,-0.42404 -0.01151,-0.85076 -0.08262,-1.26637 0,0 0.183283,-0.1373 0.183283,-0.1373 z"
       inkscape:connector-curvature="0" />
    <path
       style="opacity:1;fill:#0000ff;fill-opacity:0.95939086;stroke:none;stroke-width:0.26011768;stroke-miterlimit:4;stroke-dasharray:none;stroke-dashoffset:0;stroke-opacity:1"
       id="path300"
       d="m 27.598905,292.79015 c 0.171059,6.9e-4 0.511575,-0.1596 0.63806,0.0375 0.03158,0.0492 0.04237,0.11419 0.06355,0.17119 0.0094,0.0858 0.02422,0.17093 0.02814,0.25736 0.02767,0.61062 -0.08554,1.29671 -0.151661,1.90426 -0.05295,0.23339 -0.0205,0.79304 -0.137144,0.98771 -0.06781,0.11323 -0.385601,0.28027 -0.405696,0.29294 -0.114934,0.0367 -0.222698,0.0411 -0.336598,0.007 0,0 0.169824,-0.15994 0.169824,-0.15994 v 0 c 0.110968,0.0303 0.215906,0.0226 0.326603,-0.0157 -0.01506,0.0276 -0.07204,0.0847 -0.04518,0.0825 0.192383,-0.0157 0.202407,-0.59863 0.216508,-0.73804 0.01134,-0.11214 0.02346,-0.22412 0.03519,-0.33618 0.07841,-0.70276 0.2035,-1.43653 0.122159,-2.14402 -0.01946,-0.0525 -0.02893,-0.11283 -0.05839,-0.15778 -0.118433,-0.18069 -0.471669,-0.0229 -0.630962,-0.0196 0,0 0.16558,-0.16909 0.16558,-0.16909 z"
       inkscape:connector-curvature="0" />
    <path
       style="opacity:1;fill:#0000ff;fill-opacity:0.95939086;stroke:none;stroke-width:0.26011768;stroke-miterlimit:4;stroke-dasharray:none;stroke-dashoffset:0;stroke-opacity:1"
       id="path302"
       d="m 29.069583,292.68737 c -0.08512,-0.007 -0.176063,-0.0523 -0.262185,-0.0318 -0.02641,0.007 -0.09908,0.0516 -0.07386,0.0401 0.149761,-0.0685 0.136343,-0.11623 0.06818,0.0764 -0.09013,0.56001 -0.106902,1.13419 -0.163269,1.70072 -0.05088,0.55174 -0.166344,1.0915 -0.220777,1.6421 0.003,0.0441 -0.0013,0.0899 0.0091,0.13233 0.05835,0.23662 0.326501,0.13961 0.460837,0.10655 0.151165,-0.0573 0.08227,-0.018 0.208278,-0.11364 0,0 -0.158332,0.17402 -0.158332,0.17402 v 0 c -0.129907,0.0884 -0.0596,0.0517 -0.212263,0.10628 -0.152203,0.0349 -0.418155,0.1135 -0.481773,-0.14186 -0.01107,-0.0442 -0.0064,-0.0921 -0.0095,-0.13824 0.0576,-0.55186 0.176028,-1.09253 0.226879,-1.64619 0.05627,-0.56668 0.0741,-1.13935 0.153398,-1.70176 0.01441,-0.0477 0.01498,-0.106 0.04326,-0.14315 0.215535,-0.28282 0.315022,-0.27917 0.582116,-0.22414 0,0 -0.170021,0.16225 -0.170021,0.16225 z"
       inkscape:connector-curvature="0" />
    <path
       style="opacity:1;fill:#0000ff;fill-opacity:0.95939086;stroke:none;stroke-width:0.26011768;stroke-miterlimit:4;stroke-dasharray:none;stroke-dashoffset:0;stroke-opacity:1"
       id="path304"
       d="m 29.29992,293.43173 c -0.0031,0.41901 -0.0205,0.83753 -0.03409,1.25622 3.23e-4,0.0496 -2.93e-4,0.0994 9.37e-4,0.14905 0.0012,0.0505 0.06021,0.24838 -0.135341,0.13956 -0.03484,-0.0194 0.03438,-0.0842 0.05134,-0.12632 0.02331,-0.058 0.04633,-0.11624 0.06949,-0.17433 0.159041,-0.34557 0.222748,-0.79842 0.484474,-1.05487 0.0831,-0.0456 0.159081,-0.12264 0.249311,-0.1366 0.03105,-0.005 0.04595,0.0543 0.06053,0.0884 0.09325,0.21818 0.03447,0.51225 0.0037,0.7384 -0.02562,0.1882 -0.04726,0.3769 -0.07378,0.56491 0,0 -0.184191,0.12428 -0.184191,0.12428 v 0 c 0.0272,-0.18827 0.04892,-0.37732 0.07531,-0.56576 0.02699,-0.19356 0.06054,-0.3928 0.0333,-0.59009 -0.006,-0.0433 -0.0153,-0.0866 -0.03166,-0.12551 -0.0116,-0.0276 -0.05902,-0.0404 -0.05037,-0.0696 0.018,-0.0606 0.07435,-0.091 0.111525,-0.1365 -0.02719,0.0232 -0.05831,0.0405 -0.08156,0.0696 -0.204142,0.25408 -0.266453,0.67335 -0.410076,0.97575 -0.0225,0.0577 -0.04532,0.11514 -0.06753,0.17297 -0.01626,0.0423 -0.02139,0.094 -0.04789,0.12755 -0.139241,0.17659 -0.238442,0.32277 -0.240201,0.10723 -4.1e-4,-0.0506 6.15e-4,-0.10109 9.08e-4,-0.15166 0.01619,-0.41683 0.03291,-0.83431 0.02941,-1.25163 0,0 0.186423,-0.13111 0.186423,-0.13111 z"
       inkscape:connector-curvature="0" />
    <path
       style="opacity:1;fill:#0000ff;fill-opacity:0.95939086;stroke:none;stroke-width:0.26011768;stroke-miterlimit:4;stroke-dasharray:none;stroke-dashoffset:0;stroke-opacity:1"
       id="path306"
       d="m 32.793477,291.82985 c -0.170026,-0.20746 -0.401437,-0.37388 -0.643814,-0.40372 -0.05222,-0.007 -0.104943,0.003 -0.15742,0.003 -0.04749,0.0197 -0.09517,0.0386 -0.142471,0.0589 -0.01535,0.007 0.05175,-0.0367 0.04654,-0.0177 -0.01804,0.0655 -0.0685,0.11146 -0.08994,0.17544 -0.08244,0.24584 -0.02806,0.46207 0.03692,0.6989 0.11933,0.24955 0.276382,0.56222 0.546905,0.55687 0.166266,-0.003 0.221383,-0.0794 0.359487,-0.18401 -0.0018,-0.0368 -0.01329,-0.0752 -0.0049,-0.11064 0.110146,-0.46231 0.179467,-0.30666 0.149782,-0.84666 -0.04219,-0.76742 -0.328724,-1.23272 -0.659402,-1.84767 -0.380645,-0.59463 -0.847889,-1.08098 -1.371659,-1.47336 -0.168802,-0.12647 -0.416813,-0.30026 -0.62821,-0.33914 -0.04307,-0.008 -0.08609,0.0164 -0.129131,0.0246 0,0 0.163181,-0.16477 0.163181,-0.16477 v 0 c 0.04295,-0.004 0.08666,-0.0212 0.128852,-0.0109 0.209685,0.0521 0.450198,0.22493 0.61968,0.35536 0.520902,0.40085 0.988899,0.88951 1.371629,1.48413 0.118381,0.2172 0.251354,0.42335 0.355143,0.6516 0.229091,0.5038 0.391813,1.09698 0.29768,1.68036 -0.0212,0.13151 -0.05043,0.26794 -0.113876,0.37677 -0.08927,0.15315 -0.221889,0.25973 -0.332831,0.38959 -0.145247,0.10232 -0.199519,0.17547 -0.371207,0.17116 -0.275368,-0.007 -0.434259,-0.32379 -0.557414,-0.57995 -0.02276,-0.0812 -0.05378,-0.15958 -0.06831,-0.2436 -0.08885,-0.51354 0.15525,-0.84211 0.556901,-0.96693 0.05326,5.3e-4 0.106891,-0.007 0.159766,0.001 0.247778,0.0367 0.482457,0.2064 0.658933,0.41661 0,0 -0.180857,0.14363 -0.180857,0.14363 z"
       inkscape:connector-curvature="0" />
    <path
       style="opacity:1;fill:#0000ff;fill-opacity:0.95939086;stroke:none;stroke-width:0.26011768;stroke-miterlimit:4;stroke-dasharray:none;stroke-dashoffset:0;stroke-opacity:1"
       id="path308"
       d="m 33.583877,293.53207 c 0.04303,0.66599 5.86e-4,1.33362 -0.02378,1.99941 -0.0068,0.70772 -0.141496,1.40741 -0.141898,2.11446 0.0038,0.0322 0.0074,0.0643 0.01116,0.0965 0,0 -0.184156,0.13315 -0.184156,0.13315 v 0 c -0.003,-0.034 -0.006,-0.0681 -0.009,-0.10204 0.01134,-0.70975 0.140772,-1.41113 0.151067,-2.12184 0.02343,-0.66211 0.06589,-1.32753 0.01063,-1.98888 0,0 0.186025,-0.1307 0.186025,-0.1307 z"
       inkscape:connector-curvature="0" />
    <path
       style="opacity:1;fill:#0000ff;fill-opacity:0.95939086;stroke:none;stroke-width:0.26011768;stroke-miterlimit:4;stroke-dasharray:none;stroke-dashoffset:0;stroke-opacity:1"
       id="path310"
       d="m 33.615709,293.76149 c 0.288187,-0.1075 0.405034,-0.0572 0.565738,0.25752 0.04478,0.17113 0.149753,0.40848 0.08549,0.59483 -0.05377,0.15595 -0.314779,0.27884 -0.367995,0.31687 -0.139202,0.0727 -0.287622,0.0805 -0.435638,0.0959 0,0 0.163513,-0.1643 0.163513,-0.1643 v 0 c 0.146827,-0.0158 0.29312,-0.0262 0.430103,-0.10231 -0.01429,0.0215 -0.06142,0.0806 -0.04286,0.0647 0.175153,-0.15004 0.04396,-0.4781 -0.0096,-0.66451 -0.159863,-0.31215 -0.272468,-0.33662 -0.551594,-0.22501 0,0 0.162831,-0.17371 0.162831,-0.17371 z"
       inkscape:connector-curvature="0" />
    <path
       style="opacity:1;fill:#0000ff;fill-opacity:0.95939086;stroke:none;stroke-width:0.26011768;stroke-miterlimit:4;stroke-dasharray:none;stroke-dashoffset:0;stroke-opacity:1"
       id="path312"
       d="m 34.561005,292.16323 c 0.208993,10e-4 0.486537,-0.15091 0.685727,-0.0385 0.03065,0.0173 0.05203,0.0528 0.07804,0.0793 0.01324,0.0385 0.03209,0.0746 0.03973,0.11528 0.03756,0.19982 0.01121,0.42747 0.01584,0.62999 0.0038,0.16667 0.0176,0.43575 0.02536,0.59995 0.03382,0.53616 0.01696,1.07456 0.0061,1.61147 -0.01541,0.28544 -0.05092,0.56829 -0.0712,0.85317 -0.05562,0.47448 -0.433342,0.31804 -0.683352,0.26551 -0.172352,-0.0188 -0.08961,-0.0171 -0.248152,-0.008 0,0 0.164892,-0.16382 0.164892,-0.16382 v 0 c 0.159535,-0.004 0.07636,-0.007 0.249406,0.014 0.02322,0.005 0.268356,0.0573 0.291005,0.0596 0.03793,0.004 0.114515,-0.048 0.114199,-10e-4 -2.92e-4,0.0613 -0.06973,0.0918 -0.114977,0.11719 -0.04004,0.0225 0.113841,-0.18382 0.04083,-0.15479 0.02071,-0.28549 0.05787,-0.56861 0.07565,-0.85446 0.01409,-0.53702 0.03201,-1.0757 -0.0014,-1.61216 -0.0055,-0.11078 -0.02475,-0.48298 -0.02817,-0.59937 -0.0059,-0.19969 0.01795,-0.42073 -0.01646,-0.61804 -0.0064,-0.0367 -0.02262,-0.0696 -0.03394,-0.1045 -0.02372,-0.0233 -0.04326,-0.0552 -0.07113,-0.07 -0.198759,-0.10546 -0.476394,0.0438 -0.683398,0.0497 0,0 0.165483,-0.1701 0.165483,-0.1701 z"
       inkscape:connector-curvature="0" />
    <path
       style="opacity:1;fill:#0000ff;fill-opacity:0.95939086;stroke:none;stroke-width:0.26011768;stroke-miterlimit:4;stroke-dasharray:none;stroke-dashoffset:0;stroke-opacity:1"
       id="path314"
       d="m 36.596825,290.93592 c 0.324831,0.0673 0.655041,0.0564 0.982856,0.0449 0.344801,-0.0153 0.689634,-0.0296 1.03442,-0.0456 0,0 -0.163729,0.16273 -0.163729,0.16273 v 0 c -0.34355,0.0109 -0.687027,0.0258 -1.030466,0.0415 -0.331442,0.0123 -0.665116,0.0229 -0.993886,-0.0416 0,0 0.170805,-0.16192 0.170805,-0.16192 z"
       inkscape:connector-curvature="0" />
    <path
       inkscape:connector-curvature="0"
       d="m 41.716498,288.6088 c 0.02484,-0.019 0.09455,-0.0829 0.07455,-0.0567 -0.45099,0.59152 0.164193,-0.33728 -0.370996,0.44803 -0.291515,0.42775 -0.442665,0.80945 -0.634398,1.31093 -0.199228,0.68503 -0.373272,1.44629 -0.225886,2.17733 0.08403,0.41679 0.166482,0.49239 0.362414,0.82686 0.198906,0.2671 0.443556,0.45924 0.693149,0.64349 0,0 -0.167891,0.14782 -0.167891,0.14782 v 0 c -0.247136,-0.19218 -0.492406,-0.38785 -0.690794,-0.65746 -0.196902,-0.33908 -0.280633,-0.41778 -0.36557,-0.83877 -0.148232,-0.73472 0.02522,-1.50009 0.222334,-2.19022 0.06403,-0.17008 0.121708,-0.344 0.192082,-0.51024 0.18004,-0.42528 0.472196,-0.96082 0.792541,-1.25181 0.08973,-0.0816 0.187532,-0.1486 0.281299,-0.2229 0,0 -0.16283,0.17371 -0.16283,0.17371 z"
       id="path316"
       style="opacity:1;fill:#0000ff;fill-opacity:0.95939086;stroke:none;stroke-width:0.26011768;stroke-miterlimit:4;stroke-dasharray:none;stroke-dashoffset:0;stroke-opacity:1" />
    <path
       inkscape:connector-curvature="0"
       d="m 42.152793,290.45697 c -0.0086,0.51549 -0.02989,1.02938 -0.02838,1.54527 -0.0021,0.28223 0.01228,0.56436 0.01292,0.84652 1.32e-4,0.0572 -0.0031,0.11433 -0.0037,0.1715 -2.93e-4,0.0274 0.02027,0.0688 8.79e-4,0.082 -0.04624,0.0318 -0.105009,0.0172 -0.157506,0.0256 0.08421,-0.44547 0.171565,-0.88909 0.282295,-1.32585 0.106792,-0.36791 0.190403,-0.76397 0.459205,-1.00192 0.08786,-0.0473 0.169161,-0.12142 0.263596,-0.14216 0.03079,-0.007 0.05691,0.0373 0.07593,0.0679 0.118797,0.19109 0.07967,0.62656 0.0778,0.85183 -0.01362,0.34915 -0.0049,0.69874 0.0063,1.04775 0,0 -0.180833,0.1281 -0.180833,0.1281 v 0 c -0.0082,-0.34982 -0.01749,-0.70007 -0.0051,-1.04993 0.0018,-0.22694 0.02041,-0.47979 -0.02648,-0.70268 -0.0092,-0.0438 -0.02314,-0.0879 -0.04587,-0.12346 -0.0166,-0.0259 -0.07254,-0.0214 -0.06756,-0.0539 0.0089,-0.0576 0.06388,-0.0869 0.09583,-0.13028 -0.02999,0.0239 -0.06305,0.0426 -0.08996,0.0715 -0.214379,0.23012 -0.278777,0.60746 -0.3801,0.91778 -0.111483,0.43497 -0.200856,0.87674 -0.276279,1.32333 -0.07251,0.0757 -0.133731,0.17179 -0.217511,0.22702 -0.0203,0.0136 0.0012,-0.0567 0.0021,-0.085 0.01201,-0.34037 -0.0023,-0.68077 -0.0027,-1.02142 -0.0021,-0.51321 0.01863,-1.02498 0.01774,-1.53791 0,0 0.187222,-0.13165 0.187222,-0.13165 z"
       id="path318"
       style="opacity:1;fill:#0000ff;fill-opacity:0.95939086;stroke:none;stroke-width:0.26011768;stroke-miterlimit:4;stroke-dasharray:none;stroke-dashoffset:0;stroke-opacity:1" />
    <path
       inkscape:connector-curvature="0"
       d="m 44.091662,292.08681 c 0.510701,-0.0281 1.020692,-0.0688 1.530819,-0.10955 0.147371,-0.0123 0.282482,-0.0136 0.42527,-0.0595 0.03787,-0.0123 0.145247,-0.0722 0.108685,-0.0548 -0.218884,0.10327 -0.09091,0.11541 -0.177706,-0.0165 -0.02865,-0.0435 -0.06536,-0.078 -0.09803,-0.11705 -0.0364,-0.0348 -0.07205,-0.0708 -0.109194,-0.10437 -0.02454,-0.0222 -0.04978,-0.0432 -0.0757,-0.0629 -0.0072,-0.005 -0.03022,-0.007 -0.02322,-0.0123 0.188559,-0.15358 0.181989,-0.16933 0.316067,-0.04 0.0052,0.0276 0.01965,0.0548 0.01564,0.0828 -0.02038,0.14135 -0.254414,0.41907 -0.320731,0.51762 -0.158439,0.23548 -0.161869,0.24987 -0.30118,0.48949 -0.03246,0.0554 -0.06491,0.11077 -0.09737,0.16624 0,0 -0.187656,0.11324 -0.187656,0.11324 v 0 c 0.03356,-0.0559 0.06713,-0.11201 0.100692,-0.168 0.137966,-0.23771 0.145268,-0.25827 0.300823,-0.49176 0.06083,-0.0913 0.289285,-0.36767 0.321014,-0.49165 0.0054,-0.0214 -0.0045,-0.0445 -0.0068,-0.0668 -0.01813,-0.0169 -0.03511,-0.0359 -0.0544,-0.0506 -0.02013,-0.0154 -0.07412,-0.0138 -0.06341,-0.0398 0.130823,-0.31836 0.218834,-0.11433 0.359162,0.0123 0.06246,0.0734 0.173444,0.18742 0.151653,0.23146 -0.156887,0.31712 -0.48695,0.29907 -0.740577,0.31972 -0.51379,0.0401 -1.027484,0.0809 -1.541404,0.11801 0,0 0.167493,-0.16536 0.167493,-0.16536 z"
       id="path320"
       style="opacity:1;fill:#0000ff;fill-opacity:0.95939086;stroke:none;stroke-width:0.26011768;stroke-miterlimit:4;stroke-dasharray:none;stroke-dashoffset:0;stroke-opacity:1" />
    <path
       inkscape:connector-curvature="0"
       d="m 44.308361,291.61714 c -0.04171,0.0817 -0.332918,0.37839 -0.272905,0.46289 0.01643,0.0232 0.04229,0.0327 0.06343,0.049 0.169962,0.10041 0.342446,0.19478 0.516593,0.28366 0,0 -0.169686,0.15428 -0.169686,0.15428 v 0 c -0.174801,-0.0921 -0.349277,-0.18566 -0.52111,-0.28586 -0.02436,-0.0213 -0.05438,-0.0352 -0.0731,-0.064 -0.07972,-0.12223 0.212136,-0.38208 0.263075,-0.48357 0,0 0.193701,-0.1165 0.193701,-0.1165 z"
       id="path322"
       style="opacity:1;fill:#0000ff;fill-opacity:0.95939086;stroke:none;stroke-width:0.26011768;stroke-miterlimit:4;stroke-dasharray:none;stroke-dashoffset:0;stroke-opacity:1" />
    <path
       inkscape:connector-curvature="0"
       d="m 47.153659,288.55437 c -0.07606,0.93933 -0.202302,1.87089 -0.316588,2.80392 -0.04427,0.42695 -0.105784,0.85153 -0.140718,1.2799 0,0 -0.184551,0.12633 -0.184551,0.12633 v 0 c 0.04571,-0.43121 0.108364,-0.85954 0.154955,-1.29062 0.11583,-0.9277 0.242169,-1.85512 0.301148,-2.79164 0,0 0.185754,-0.12783 0.185754,-0.12783 z"
       id="path324"
       style="opacity:1;fill:#0000ff;fill-opacity:0.95939086;stroke:none;stroke-width:0.26011768;stroke-miterlimit:4;stroke-dasharray:none;stroke-dashoffset:0;stroke-opacity:1" />
    <path
       inkscape:connector-curvature="0"
       d="m 46.579498,291.82378 c 0.427859,-0.42177 0.84136,-0.87012 1.206236,-1.37465 0.0205,-0.0473 0.04101,-0.0948 0.06152,-0.14211 0,0 0.187902,-0.11746 0.187902,-0.11746 v 0 c -0.02153,0.0503 -0.04303,0.10055 -0.06455,0.15085 -0.363786,0.50088 -0.773216,0.94895 -1.195667,1.37333 0,0 -0.19544,0.1101 -0.19544,0.1101 z"
       id="path326"
       style="opacity:1;fill:#0000ff;fill-opacity:0.95939086;stroke:none;stroke-width:0.26011768;stroke-miterlimit:4;stroke-dasharray:none;stroke-dashoffset:0;stroke-opacity:1" />
    <path
       inkscape:connector-curvature="0"
       d="m 46.895057,291.15487 c 0.12659,0.28961 0.224484,0.62269 0.442117,0.83328 0.05065,0.049 0.111371,0.0797 0.16706,0.1195 0.260047,0.11978 0.484443,0.0109 0.709377,-0.15519 0.02943,-0.0217 -0.05996,0.0412 -0.08993,0.0618 0,0 0.193343,-0.10791 0.193343,-0.10791 v 0 c -0.23243,0.1944 -0.486816,0.44743 -0.789589,0.41291 -0.06585,-0.008 -0.127862,-0.0417 -0.191794,-0.0626 -0.05672,-0.0417 -0.118469,-0.0746 -0.170167,-0.12537 -0.216898,-0.2128 -0.317355,-0.54331 -0.450385,-0.83033 0,0 0.179967,-0.14618 0.179967,-0.14618 z"
       id="path328"
       style="opacity:1;fill:#0000ff;fill-opacity:0.95939086;stroke:none;stroke-width:0.26011768;stroke-miterlimit:4;stroke-dasharray:none;stroke-dashoffset:0;stroke-opacity:1" />
    <path
       inkscape:connector-curvature="0"
       d="m 48.143402,288.44298 c 0.415218,0.25777 0.789765,0.64099 1.112098,1.05213 0.09039,0.11528 0.171743,0.24083 0.257616,0.36125 0.0649,0.13219 0.141203,0.25701 0.194703,0.39682 0.296269,0.77423 0.147277,1.4825 -0.04931,2.25256 -0.06926,0.3047 -0.231085,0.56493 -0.284,0.87619 -0.0083,0.0487 -0.0044,0.0993 -0.0066,0.14899 0,0 -0.184082,0.1277 -0.184082,0.1277 v 0 c 0.0023,-0.0523 -0.0014,-0.1056 0.0072,-0.15676 0.05389,-0.31437 0.219739,-0.5749 0.292163,-0.88158 0.196124,-0.75339 0.346386,-1.47635 0.05821,-2.23494 -0.05269,-0.13869 -0.128076,-0.26248 -0.192114,-0.39372 -0.08544,-0.11978 -0.166142,-0.24505 -0.256312,-0.3595 -0.32245,-0.40929 -0.700582,-0.79205 -1.122654,-1.03124 0,0 0.173076,-0.15794 0.173076,-0.15794 z"
       id="path330"
       style="opacity:1;fill:#0000ff;fill-opacity:0.95939086;stroke:none;stroke-width:0.26011768;stroke-miterlimit:4;stroke-dasharray:none;stroke-dashoffset:0;stroke-opacity:1" />
    <path
       inkscape:connector-curvature="0"
       d="m 47.845991,286.48774 c 0.351968,0.2747 0.71224,0.53369 1.032074,0.86583 0.100903,0.10477 0.194811,0.2194 0.292218,0.32909 0.486672,0.62728 0.857672,1.38398 1.101287,2.19785 0.04676,0.1562 0.08337,0.31672 0.125057,0.47509 0.186062,0.89172 0.192511,1.81421 0.109404,2.72364 -0.104179,0.85831 -0.407303,1.64639 -0.712708,2.41916 -0.201105,0.4928 -0.406926,0.98699 -0.689841,1.41706 -0.09281,0.13056 -0.02322,0.045 -0.243804,0.20417 0,0 0.16697,-0.17012 0.16697,-0.17012 v 0 c -0.175598,0.15302 -0.201941,0.19584 -0.113894,0.0793 0.291087,-0.42672 0.499541,-0.9241 0.703686,-1.41888 0.3063,-0.76961 0.606989,-1.55646 0.714849,-2.41113 0.08719,-0.90632 0.0802,-1.82696 -0.102142,-2.71678 -0.04115,-0.15804 -0.0771,-0.31825 -0.123452,-0.47408 -0.241242,-0.81108 -0.611716,-1.56509 -1.097731,-2.18794 -0.0976,-0.10873 -0.191642,-0.22242 -0.292795,-0.32606 -0.323087,-0.33099 -0.686653,-0.58882 -1.045706,-0.85381 0,0 0.176529,-0.1524 0.176529,-0.1524 z"
       id="path332"
       style="opacity:1;fill:#0000ff;fill-opacity:0.95939086;stroke:none;stroke-width:0.26011768;stroke-miterlimit:4;stroke-dasharray:none;stroke-dashoffset:0;stroke-opacity:1" />
  </g>
</svg>
