<?xml version="1.0" encoding="UTF-8" standalone="no"?>
<svg
   xmlns:dc="http://purl.org/dc/elements/1.1/"
   xmlns:cc="http://creativecommons.org/ns#"
   xmlns:rdf="http://www.w3.org/1999/02/22-rdf-syntax-ns#"
   xmlns:svg="http://www.w3.org/2000/svg"
   xmlns="http://www.w3.org/2000/svg"
   xmlns:sodipodi="http://sodipodi.sourceforge.net/DTD/sodipodi-0.dtd"
   xmlns:inkscape="http://www.inkscape.org/namespaces/inkscape"
   width="1400"
   height="1200"
   viewBox="0 0 1400 1200"
   version="1.1"
   id="svg8"
   sodipodi:docname="divergence.svg"
   inkscape:version="1.0.2 (e86c870879, 2021-01-15)">
  <defs
     id="defs2" />
  <sodipodi:namedview
     id="base"
     pagecolor="#ffffff"
     bordercolor="#666666"
     borderopacity="1.0"
     inkscape:pageopacity="0.0"
     inkscape:pageshadow="2"
     inkscape:zoom="0.88567902"
     inkscape:cx="722.65326"
     inkscape:cy="534.16199"
     inkscape:document-units="px"
     inkscape:current-layer="layer1"
     showgrid="false"
     units="px"
     inkscape:window-width="1422"
     inkscape:window-height="1080"
     inkscape:window-x="-5"
     inkscape:window-y="0"
     inkscape:window-maximized="0"
     inkscape:document-rotation="0" />
  <metadata
     id="metadata5">
    <rdf:RDF>
      <cc:Work
         rdf:about="">
        <dc:format>image/svg+xml</dc:format>
        <dc:type
           rdf:resource="http://purl.org/dc/dcmitype/StillImage" />
        <dc:title />
      </cc:Work>
    </rdf:RDF>
  </metadata>
  <g
     inkscape:label="Layer 1"
     inkscape:groupmode="layer"
     id="layer1"
     transform="translate(0,77.480378)">
    <path
       style="opacity:0.996732;fill:#800000;stroke-width:0.8"
       id="path7"
       d="m 132.13216,-4.649004 c -1.07406,-3.148511 -2.58912,-6.487327 -5.4354,-8.441493 -0.53783,-0.369252 -1.17133,-0.574806 -1.75699,-0.86221 -2.10556,0.04879 -2.28747,-0.241678 -4.15777,1.101578 -1.63024,1.170845 -3.29505,2.339479 -4.66786,3.80371 -2.26438,2.415185 -3.26141,8.009975 -3.93584,11.058144 -1.71194,10.128172 -1.62215,20.423858 -1.98651,30.655027 -0.31001,6.51118 -0.93834,13.03892 -2.80727,19.3114 -1.09764,3.68389 -1.56477,4.42213 -3.11383,7.85612 -1.9817,3.15593 -1.6392,3.17587 -4.369751,5.4903 -0.131548,0.1115 0.388711,-0.45628 0.216791,-0.46973 -0.834034,-0.0652 -1.658699,0.35678 -2.492742,0.29166 -2.039623,-0.15927 -2.752803,-0.93743 -4.361222,-2.01696 -1.657523,-1.51661 -5.476319,-5.86588 -1.967473,-7.70063 0.403365,-0.21092 -0.612582,0.67342 -0.918873,1.01013 0.829494,-0.0868 1.655063,-0.29247 2.48848,-0.26056 5.311496,0.20337 11.0203,3.82651 15.65014,6.17148 5.50771,3.05175 11.28307,5.55332 17.61686,6.169 1.32279,0.12859 2.65658,0.0882 3.98488,0.1323 7.33037,-0.24629 11.10539,-3.51929 16.94068,-7.60506 0,0 -2.94522,1.33352 -2.94522,1.33352 v 0 c -2.65029,3.22992 -7.61905,3.85914 -11.46576,4.25703 -1.31886,-0.0336 -2.64272,0.0187 -3.95658,-0.10095 -6.31292,-0.57472 -12.06612,-3.0545 -17.55136,-6.09264 -4.70736,-2.39168 -10.3461,-5.97343 -15.723687,-6.34321 -0.847026,-0.0582 -1.694458,0.11041 -2.541686,0.16562 -0.807107,0.45729 -4.840013,2.00086 -5.635161,3.90453 -1.09151,2.61318 1.8274,5.23956 3.337138,6.8606 1.650321,1.13945 2.404659,1.9592 4.50221,2.19682 3.924639,0.4446 7.814776,-2.68607 10.077786,-5.63246 0.77168,-1.00471 1.32282,-2.16098 1.98423,-3.24147 1.53361,-3.46581 1.98376,-4.18385 3.06927,-7.89616 1.84041,-6.29395 2.44699,-12.83427 2.75391,-19.35858 0.36554,-10.218824 0.26957,-20.508332 2.03949,-30.61599 0.75349,-3.252235 0.98017,-5.083147 2.37727,-8.064289 0.47121,-1.005469 1.37683,-1.802818 1.69873,-2.865541 0.0768,-0.253684 -0.9418,-0.01878 -0.76518,-0.216431 1.22034,-1.365657 2.37039,-1.190966 3.95107,-1.333187 0.5693,0.259985 1.18642,0.433898 1.7079,0.779955 2.8325,1.879676 4.30247,5.21827 5.3007,8.323387 0,0 2.85863,-1.75476 2.85863,-1.75476 z" />
    <path
       style="opacity:0.996732;fill:#800000;stroke-width:0.8"
       id="path9"
       d="m 173.84536,64.469442 c 1.9808,6.82123 3.25351,13.80575 4.52375,20.78566 0.4978,2.91556 0.92678,5.86635 1.74189,8.71724 0.16515,0.57764 0.62152,1.7226 1.13062,1.40361 1.29215,-0.80961 2.37455,-1.91364 3.56182,-2.87046 3.15265,-6.52892 7.1605,-12.57332 10.50358,-19.01026 1.48933,-3.20015 3.14563,-6.3008 4.99661,-9.30266 0,0 -2.93589,1.46844 -2.93589,1.46844 v 0 c -1.80228,3.01351 -3.43169,6.11414 -4.92903,9.29248 -3.36891,6.45096 -7.35929,12.52714 -10.62747,19.02759 0.68887,-0.2316 1.38203,-0.45081 2.0666,-0.69482 0.16242,-0.0579 -0.38233,0.26298 -0.49907,0.13609 -0.27941,-0.3037 -0.32076,-0.76211 -0.44029,-1.1571 -0.85452,-2.82392 -1.28188,-5.76284 -1.79693,-8.65886 -1.29224,-6.99493 -2.55843,-13.99652 -4.43275,-20.86453 0,0 -2.86344,1.72758 -2.86344,1.72758 z" />
    <path
       style="opacity:0.996732;fill:#800000;stroke-width:0.8"
       id="path11"
       d="m 206.89314,93.483652 c 0.24605,0.6951 0.67088,1.35101 0.73813,2.0853 0.59709,6.519668 -4.20217,11.879608 -7.59672,16.847478 0,0 2.74312,-1.35397 2.74312,-1.35397 v 0 c 3.48976,-5.12585 8.27352,-10.5288 7.66337,-17.223098 -0.0706,-0.77509 -0.50221,-1.47336 -0.75331,-2.21004 0,0 -2.79459,1.85433 -2.79459,1.85433 z" />
    <path
       style="opacity:0.996732;fill:#800000;stroke-width:0.8"
       id="path13"
       d="m 227.89528,65.581432 c 0.56538,7.10146 0.76095,14.22274 1.40367,21.32083 0.11641,0.43024 0.0653,0.94715 0.34922,1.29071 0.14277,0.17275 0.50164,0.0905 0.66986,-0.0576 1.21324,-1.06796 2.41443,-2.1844 3.36349,-3.49275 0.36528,-0.50356 2.13592,-5.92575 2.46278,-6.83042 0.28675,-0.52163 1.4441,-1.44892 0.86025,-1.5649 -0.75279,-0.14954 -1.44499,0.71726 -1.85215,1.36786 -0.15439,0.24671 0.60427,0.0805 0.83359,0.2597 0.43029,0.33626 0.75038,0.7968 1.0777,1.23393 1.0179,1.35937 1.90875,2.94564 2.77449,4.39409 2.04647,2.36523 2.64222,6.45426 4.99018,8.54356 0.26687,0.23748 0.67737,0.53408 1.001,0.38281 1.37594,-0.64309 2.4947,-1.73309 3.74205,-2.59964 0.28136,-0.74055 0.62678,-1.45983 0.84408,-2.22164 0.55908,-1.96001 1.21932,-5.90806 1.50512,-7.75021 0.65661,-4.23231 1.14324,-8.47765 1.50505,-12.74364 0,0 -2.83908,1.58919 -2.83908,1.58919 v 0 c -0.32642,4.25545 -0.80532,8.48309 -1.48674,12.69866 -0.29389,1.81809 -0.98987,5.79664 -1.60937,7.72642 -0.23639,0.73634 -0.62736,1.41377 -0.94104,2.12065 0.65119,-0.27874 1.44818,-0.33989 1.95355,-0.83621 0.2204,-0.21645 -0.66699,0.003 -0.90663,-0.19195 -0.47229,-0.38419 -0.78461,-0.93572 -1.11122,-1.44952 -1.439,-2.2637 -2.34276,-4.83985 -3.8898,-7.04347 -2.40624,-4.07126 -5.21261,-10.83688 -9.36644,-2.38423 -0.19809,0.54787 -2.50775,6.81076 -2.49225,6.83337 0.39656,0.57843 1.39127,-0.40172 2.08375,-0.29076 0.30851,0.0494 -1.86558,2.49995 -0.68729,-0.6374 -0.74753,-7.10474 -0.89419,-14.2371 -1.35292,-21.36082 0,0 -2.8849,1.6934 -2.8849,1.6934 z" />
    <path
       style="opacity:0.996732;fill:#800000;stroke-width:0.8"
       id="path15"
       d="m 258.47076,60.182212 c 3.03828,0.11289 9.90994,-2.21479 12.0759,0.38126 0.56758,0.68029 0.70886,1.62398 1.06329,2.43597 0.10156,1.27317 0.29726,2.54232 0.30467,3.81952 0.0133,2.28801 -0.51023,7.56171 -0.76285,9.71732 -0.60814,5.18937 -1.40535,10.36214 -2.23395,15.51979 -0.38247,1.60054 -0.81118,8.975348 -3.32279,9.459858 -0.48717,0.094 0.14984,-1.27205 -0.31112,-1.45559 -1.43822,-0.572638 -3.07564,-0.356588 -4.6164,-0.506368 -1.88764,-0.18349 -3.77878,-0.32893 -5.66817,-0.49339 0,0 -2.49001,1.958918 -2.49001,1.958918 v 0 c 1.87701,0.17005 3.75726,0.30739 5.63102,0.51015 1.54123,0.16677 3.07632,0.80979 4.61206,0.59825 8.12916,-1.11973 7.91741,-4.900148 8.96488,-11.610588 0.81376,-5.16375 1.60719,-10.34061 2.21954,-15.53303 0.26123,-2.21511 0.79409,-7.45317 0.77651,-9.7918 -0.01,-1.31609 -0.21569,-2.6234 -0.32354,-3.9351 -0.38676,-0.87304 -0.55445,-1.88103 -1.16027,-2.6191 -2.30847,-2.81238 -8.95429,-0.44248 -12.1519,-0.54456 0,0 -2.60687,2.08849 -2.60687,2.08849 z" />
    <path
       style="opacity:0.996732;fill:#800000;stroke-width:0.8"
       id="path17"
       d="m 179.74829,49.059472 c -4.86301,-0.0896 -8.38415,0.57115 -11.88701,4.57841 -0.69403,0.79395 -0.77924,1.95983 -1.16886,2.93975 -0.23,1.47599 -0.55629,2.94018 -0.69,4.42799 -0.23228,2.58468 -0.32466,10.89569 -0.34773,13.0762 -0.0769,7.27132 -0.0438,14.53723 -0.20157,21.80754 -0.0169,1.99695 -0.61756,7.131128 1.20005,9.105708 2.17224,2.35983 7.29068,2.86431 9.98611,3.41202 0,0 2.51087,-1.93138 2.51087,-1.93138 v 0 c -2.41077,-0.47545 -7.72345,-1.02239 -9.74025,-3.17116 -1.79107,-1.90827 -1.23011,-7.059248 -1.22741,-8.965228 0.11428,-7.26437 0.0631,-14.5279 0.17491,-21.79224 0.0361,-2.3419 0.1788,-10.36908 0.46323,-13.08814 0.15442,-1.47624 0.514,-2.92374 0.771,-4.38561 0.41874,-0.94606 1.205,-1.80487 1.25622,-2.83819 0.0189,-0.38032 -1.39431,0.46615 -1.12529,0.19666 1.54536,-1.54806 5.42735,-1.18776 7.41479,-1.28058 0,0 2.61094,-2.09175 2.61094,-2.09175 z" />
    <path
       style="opacity:0.996732;fill:#800000;stroke-width:0.8"
       id="path19"
       d="m 331.07367,17.59339 c 2.68768,11.088142 4.63003,22.344382 7.26739,33.446842 0.40285,1.00911 0.93287,4.16116 2.91263,4.25275 0.74395,0.0344 1.4634,-0.41812 2.06107,-0.86245 5.91891,-4.4004 6.42093,-6.52006 9.32365,-12.85256 3.31658,-8.24259 5.68455,-16.8215 8.38177,-25.277982 0,0 -2.88994,1.535116 -2.88994,1.535116 v 0 c -2.55082,8.468176 -4.95605,17.010036 -8.32388,25.199036 -0.74405,1.58472 -1.40624,3.21052 -2.23215,4.75416 -0.69394,1.29701 -1.77427,2.38789 -2.31998,3.75391 -0.10972,0.27464 0.7114,0.46495 0.53867,0.70503 -2.39179,3.32432 -4.29907,-1.0779 -4.72167,-2.85123 -2.7281,-11.10795 -4.6831,-22.38014 -7.16704,-33.540125 0,0 -2.83052,1.737503 -2.83052,1.737503 z" />
    <path
       style="opacity:0.996732;fill:#800000;stroke-width:0.8"
       id="path21"
       d="m 376.83978,23.663202 c -1.81178,-1.178145 -3.75825,-1.09147 -5.61475,0.10597 -6.03027,3.88953 -6.46498,5.00775 -8.62004,11.29621 -0.94697,4.75979 -1.97984,13.84958 2.56572,17.33669 0.70702,0.5424 1.63013,0.72039 2.4452,1.08058 0.92253,-0.0419 1.86632,0.0756 2.76761,-0.12566 4.79828,-1.07159 10.41299,-5.74182 12.16458,-10.47506 0.43551,-1.17686 0.58491,-2.4406 0.87737,-3.66091 0.37683,-4.69735 -0.79117,-9.07425 -2.70773,-13.29823 0,0 -2.77775,1.74644 -2.77775,1.74644 v 0 c 1.91613,4.15265 3.05954,8.45919 2.63036,13.08961 -0.30695,1.19772 -0.471,2.44147 -0.92085,3.59316 -1.30286,3.33547 -1.76851,2.94606 -3.9846,5.54747 -0.0411,0.0482 0.10561,0.15482 0.0491,0.18349 -0.90137,0.45764 -1.80617,0.94503 -2.78316,1.20463 -0.86374,0.22951 -1.77999,0.1629 -2.66998,0.24434 -0.78611,-0.31645 -1.67548,-0.44755 -2.35834,-0.94936 -4.49907,-3.30622 -3.40975,-12.44707 -2.4459,-17.01856 3.58946,-9.98947 -0.91859,1.58783 3.56574,-7.25124 0.0719,-0.14172 -0.4115,-0.29128 -0.28248,-0.38405 1.68627,-1.21245 3.54863,-1.47602 5.30526,-0.4112 0,0 2.79459,-1.85432 2.79459,-1.85432 z" />
    <path
       style="opacity:0.996732;fill:#800000;stroke-width:0.8"
       id="path23"
       d="m 399.73814,28.956822 c 6.96055,-9.418374 10.30956,-20.234613 13.02591,-31.471524 0.94096,-6.338145 2.10763,-19.454035 -4.75496,-23.430689 -0.82419,-0.477594 -1.85624,-0.428898 -2.78435,-0.643346 -3.77771,2.158022 -5.17849,2.573822 -8.08588,7.23914 -1.11322,1.786318 -1.49104,3.944898 -2.02567,5.980667 -2.28936,8.717295 -2.62275,17.641183 -3.05382,26.586418 -0.0862,9.072779 0.37006,18.155944 1.27973,27.182994 0.24173,2.39882 0.55679,8.16031 2.34942,10.54198 0.63456,0.84307 1.847,1.02095 2.77049,1.53142 1.29101,-0.33118 2.68453,-0.39034 3.87304,-0.99353 6.81416,-3.45833 11.96358,-8.93912 17.56575,-13.94917 0,0 -2.94501,1.36682 -2.94501,1.36682 v 0 c -2.1008,1.90016 -4.12788,3.88144 -6.24695,5.76121 -1.36984,1.21515 -2.76485,2.40314 -4.19424,3.54763 -0.54119,0.43331 -1.07595,0.9051 -1.71186,1.18126 -1.18467,0.51449 -2.46322,0.77785 -3.69483,1.16678 -0.89451,-0.43496 -2.06876,-0.52298 -2.68354,-1.30489 -1.8099,-2.30191 -2.17072,-8.08624 -2.41917,-10.3987 -0.96672,-8.99804 -1.43828,-18.059473 -1.32591,-27.109136 0.39564,-7.588088 0.38081,-11.484274 1.58121,-18.890903 2.67415,-16.499858 0.27418,0.206068 3.76006,-13.625114 0.16145,-0.640583 -0.50034,-1.432215 -0.12774,-1.977723 0.6196,-0.907125 1.82316,-1.226048 2.73474,-1.839071 0.89865,0.160469 1.89289,0.04733 2.69595,0.481409 6.7736,3.661361 5.64197,17.022494 4.69729,23.075476 -2.78107,11.41684 -6.11355,21.950099 -13.2649,31.467992 0,0 2.98524,-1.4774 2.98524,-1.4774 z" />
    <path
       style="opacity:0.996732;fill:#800000;stroke-width:0.8"
       id="path25"
       d="m 487.23731,25.046742 c 13.64368,-0.65723 27.28679,-1.32958 40.91828,-2.20508 0,0 2.35482,-1.912028 2.35482,-1.912028 v 0 c -13.55419,0.907688 -27.12347,1.591628 -40.70157,2.026648 0,0 -2.57153,2.09046 -2.57153,2.09046 z" />
    <path
       style="opacity:0.996732;fill:#800000;stroke-width:0.8"
       id="path27"
       d="m 491.61712,38.598012 c 12.07152,-1.12802 24.18631,-0.81381 36.28464,-0.51647 0,0 2.33294,-1.85981 2.33294,-1.85981 v 0 c -12.01591,-0.28504 -24.04124,-0.61128 -36.04316,0.28113 0,0 -2.57442,2.09515 -2.57442,2.09515 z" />
    <path
       style="opacity:0.996732;fill:#800000;stroke-width:0.8"
       id="path29"
       d="m 621.85576,-18.23441 c -1.93141,-2.316905 -4.49361,-5.257681 -7.92325,-4.749679 -3.76354,0.557458 -6.7363,4.181956 -9.26841,6.315928 -1.02451,1.899601 -2.24392,3.70635 -3.07352,5.698803 -3.86191,9.275242 -5.02441,19.512972 -6.06595,29.399494 -0.81198,7.707446 -1.42441,15.434966 -2.22755,23.143336 -1.35983,6.25364 -1.35405,16.63599 -7.13378,21.13594 -0.34125,0.26569 -0.32114,-0.84937 -0.66156,-1.11611 -5.46252,-4.28021 -0.86261,1.27653 -5.30112,-4.99315 -0.3152,-1.23151 -0.91871,-2.42361 -0.9456,-3.69454 -0.0371,-1.75542 0.95289,-4.86776 3.32557,-5.03337 0.66811,-0.0466 0.63719,1.28716 1.23848,1.58211 1.53508,0.75299 3.32356,0.83618 4.92311,1.44027 1.88332,0.71126 3.66638,1.66398 5.49957,2.49597 8.5648,3.85935 21.05651,10.1053 30.6762,7.50758 1.46828,-0.3965 2.77242,-1.25138 4.15863,-1.87707 1.84388,-1.34641 3.68776,-2.69282 5.53164,-4.03924 0,0 -2.95112,1.35114 -2.95112,1.35114 v 0 c -0.0547,0.19111 -0.10945,0.38223 -0.16417,0.57334 -1.37197,0.65581 -2.65594,1.54208 -4.11589,1.96741 -9.55648,2.78409 -22.09262,-3.45672 -30.59159,-7.34723 -1.52948,-0.70975 -8.30882,-4.14691 -10.44855,-4.10075 -1.86699,0.0403 -7.62442,1.23003 -9.1482,3.84094 -1.51128,2.58949 -0.3761,4.54288 0.30806,7.10392 0.91045,1.2983 3.13959,5.40969 5.50206,5.30486 11.32116,-0.50234 11.44982,-15.87135 12.87648,-23.53769 0.78715,-7.70639 1.38599,-15.43176 2.22206,-23.133005 1.07306,-9.884329 2.30111,-20.160917 6.29298,-29.389394 0.85744,-1.982245 2.11658,-3.765378 3.17488,-5.648067 0.21506,-0.521535 0.19909,-1.21929 0.64519,-1.564605 4.16336,-3.222714 8.27943,-0.273448 10.83831,3.190577 0,0 2.80704,-1.827718 2.80704,-1.827718 z" />
    <path
       style="opacity:0.996732;fill:#800000;stroke-width:0.8"
       id="path31"
       d="m 643.68546,60.226922 c 2.06983,6.65676 3.78032,13.40744 5.04946,20.26079 0.85375,1.90003 0.18362,5.0641 1.83951,6.65851 1.02699,0.98886 3.91174,-1.84337 4.48928,-2.34797 0.46081,-0.40262 0.64841,-1.03795 0.97262,-1.55693 2.99117,-5.04818 5.35284,-10.4265 7.7048,-15.79126 1.63237,-3.64673 2.60699,-7.57681 4.47983,-11.11115 0,0 -2.96673,1.51077 -2.96673,1.51077 v 0 c -1.76857,3.57199 -2.79999,7.45698 -4.41453,11.09994 -2.35477,5.36574 -4.72388,10.74845 -7.77512,15.76476 -1.04595,1.51155 -2.05272,2.44587 0.92347,0.53876 0.1728,-0.11072 -0.44908,0.21814 -0.60912,0.0897 -0.34293,-0.27529 -0.5379,-0.71325 -0.6843,-1.12793 -0.20827,-0.58993 -1.11255,-5.13172 -1.16552,-5.39021 -1.29869,-6.86621 -3.04122,-13.62501 -4.99804,-20.33267 0,0 -2.84561,1.73492 -2.84561,1.73492 z" />
    <path
       style="opacity:0.996732;fill:#800000;stroke-width:0.8"
       id="path33"
       d="m 742.96293,40.514082 c -2.15916,-4.46572 -7.48804,-7.44124 -12.49818,-6.23563 -1.42207,0.3422 -2.66709,1.20174 -4.00063,1.80262 -4.93485,4.22318 -6.15957,4.07893 -8.4226,9.40061 -0.57861,1.36065 -1.02911,2.79772 -1.22464,4.2633 -0.24993,1.87329 -0.20624,4.68198 2.03856,5.61197 1.0181,0.42178 2.20384,0.0287 3.30576,0.043 2.26885,-1.45938 4.80871,-2.56539 6.80656,-4.37814 3.33805,-3.02876 7.02177,-10.36738 8.64889,-14.06795 4.211,-9.57711 6.66046,-19.721968 9.10861,-29.844422 1.22727,-5.989905 1.91403,-8.605611 2.60947,-14.344393 0.11188,-0.92323 1.08675,-2.840286 0.15838,-2.785455 -4.06786,0.240255 -4.08475,6.132271 -4.47947,8.303907 -0.49976,2.749466 -0.96818,5.504535 -1.45227,8.256803 -2.3479,14.927176 -5.18246,30.08829 -4.33146,45.28003 0.0932,1.66409 0.38723,3.31083 0.58084,4.96625 0.34661,1.05324 0.69322,2.10648 1.03982,3.15972 0,0 2.77795,-1.70661 2.77795,-1.70661 v 0 c -0.35391,-1.02331 -0.70781,-2.04662 -1.06172,-3.06994 -0.20894,-1.63358 -0.5209,-3.25727 -0.62684,-4.90076 -0.97733,-15.16127 1.87936,-30.31633 4.30818,-45.197848 0.51882,-2.768473 1.00334,-5.543591 1.55645,-8.305418 0.35819,-1.78855 1.57903,-3.564857 1.17711,-5.344091 -0.17273,-0.764635 -1.84119,-0.42793 -2.34538,0.172315 -0.57744,0.687443 0.0318,1.799692 -0.0611,2.692646 -0.5692,5.467645 -1.36736,8.621267 -2.4956,14.25003 -2.43228,10.118574 -4.8769,20.246016 -9.15988,29.788006 -2.35853,5.25456 -5.49082,11.41417 -10.21596,15.03009 -1.04122,0.0566 -2.14001,0.51597 -3.12368,0.1699 -3.68081,-1.295 -1.59931,-7.39092 -0.68003,-9.4817 0.64686,-1.47119 1.61892,-2.77676 2.42837,-4.16514 0.23799,-0.5588 0.47599,-1.1176 0.71398,-1.6764 1.30136,-0.62987 2.50765,-1.51515 3.9041,-1.88959 4.85422,-1.30156 10.14658,1.53888 12.1578,5.95703 0,0 2.85863,-1.75476 2.85863,-1.75476 z" />
    <path
       style="opacity:0.996732;fill:#800000;stroke-width:0.8"
       id="path35"
       d="m 756.16687,36.742562 c -0.12508,4.01228 -0.99153,7.95943 -1.30399,11.9516 -0.1435,1.83336 -0.48775,5.31738 0.67267,7.15528 0.40257,0.63758 1.25311,0.83906 1.87966,1.2586 0,0 2.69023,-1.91802 2.69023,-1.91802 v 0 c -0.59099,-0.34505 -1.39824,-0.46253 -1.77296,-1.03517 -1.15756,-1.76898 -0.80081,-5.27283 -0.66192,-7.01649 0.32062,-4.02548 1.20334,-8.00138 1.3842,-12.04302 0,0 -2.88789,1.64722 -2.88789,1.64722 z" />
    <path
       style="opacity:0.996732;fill:#800000;stroke-width:0.8"
       id="path37"
       d="m 763.19846,20.641025 c -0.57238,0.440037 -1.14475,0.880075 -1.71713,1.320112 0,0 2.51842,-2.197112 2.51842,-2.197112 v 0 c -1.28385,0.757109 -2.5677,1.514218 -3.85155,2.271327 0,0 3.05026,-1.394327 3.05026,-1.394327 z" />
    <path
       style="opacity:0.996732;fill:#800000;stroke-width:0.8"
       id="path39"
       d="m 773.24679,32.371012 c 1.13789,7.65127 2.93273,15.25492 5.91079,22.40687 0.40202,0.39901 0.65596,1.06202 1.20605,1.19701 0.50966,0.12507 1.07932,-0.19857 1.47957,-0.53797 1.58791,-1.34647 3.15258,-2.76796 4.39194,-4.4408 0.92497,-1.2485 1.39011,-2.78086 2.01298,-4.20436 1.47803,-3.37783 2.55774,-6.50852 3.82108,-9.97148 1.10772,-3.65147 2.37048,-7.24828 3.76966,-10.79646 0,0 -2.91439,1.52309 -2.91439,1.52309 v 0 c -1.33486,3.54518 -2.54003,7.13433 -3.67014,10.75058 -1.26544,3.44695 -2.35438,6.60402 -3.86088,9.95511 -0.64053,1.42479 -1.76057,2.66921 -2.08424,4.19745 -0.0894,0.42194 1.08143,0.35609 1.02917,0.78421 -0.0607,0.49768 -0.73072,0.90515 -1.23049,0.86504 -0.52431,-0.0421 -0.78064,-0.7052 -1.17096,-1.0578 -3.0527,-7.09043 -4.83443,-14.69345 -5.81966,-22.33712 0,0 -2.87048,1.66663 -2.87048,1.66663 z" />
    <path
       style="opacity:0.996732;fill:#800000;stroke-width:0.8"
       id="path41"
       d="m 824.90431,24.579912 c -0.23179,7.22206 -0.19219,14.56353 1.01274,21.71283 0.25957,1.54018 0.49832,3.10582 1.05336,4.56578 0.31879,0.83856 1.01692,1.47822 1.52538,2.21733 0.69624,-0.11992 1.50762,0.0421 2.08871,-0.35977 1.84059,-1.27276 3.51867,-2.81093 4.96543,-4.51814 0.9742,-1.14958 1.52046,-2.60384 2.20682,-3.9453 1.67991,-3.28333 2.94521,-6.69619 4.82171,-9.87467 -0.5821,0.57224 -1.58051,0.91745 -1.74628,1.7167 -0.15017,0.72404 0.72627,1.29594 0.97717,1.99152 0.44797,1.24193 0.7531,2.53091 1.11234,3.80134 1.24627,4.40725 2.44195,8.78779 3.90528,13.12937 0.47943,0.86074 0.76652,1.86148 1.43827,2.58222 2.09553,2.24833 5.00357,-1.33173 6.08621,-2.60668 0.86032,-1.01314 1.1154,-2.42073 1.51527,-3.6883 1.3369,-4.23784 1.66578,-7.4275 2.38637,-11.87652 0.85885,-6.95371 1.12048,-13.96986 0.95313,-20.969643 0,0 -2.84255,1.633799 -2.84255,1.633799 v 0 c 0.29319,6.956354 0.0657,13.932974 -0.85461,20.841724 -0.73503,4.31984 -1.11585,7.74296 -2.51418,11.85735 -0.4245,1.24901 -1.47186,2.29757 -1.62708,3.60759 -0.0474,0.39972 1.41608,0.28739 1.20625,-0.0561 -0.28387,-0.4647 -1.03467,-0.33994 -1.55201,-0.5099 -0.48163,-0.83532 -0.96326,-1.67065 -1.4449,-2.50597 -1.48628,-4.33446 -2.682,-8.70062 -3.89309,-13.11848 -0.35548,-1.29674 -0.63344,-2.6191 -1.0914,-3.88328 -0.29709,-0.8201 -0.2959,-2.26166 -1.16431,-2.34345 -1.40385,-0.13223 -2.5274,1.25114 -3.79111,1.8767 -1.78576,3.19281 -3.05234,6.60053 -4.74966,9.84 -0.6995,1.33506 -1.74949,2.4972 -2.26462,3.91365 -0.12371,0.34013 0.71972,0.69102 0.48868,0.96961 -0.42397,0.51122 -1.24526,0.4623 -1.86789,0.69344 -0.50826,-0.68963 -1.21002,-1.27213 -1.52479,-2.0689 -0.99048,-2.50723 -1.5654,-7.88963 -1.77318,-10.31347 -0.45347,-5.28977 -0.53598,-10.63831 -0.15115,-15.93376 0,0 -2.89031,1.62139 -2.89031,1.62139 z" />
    <path
       style="opacity:0.996732;fill:#800000;stroke-width:0.8"
       id="path43"
       d="m 723.26692,-10.358829 c -0.72943,0.659634 -1.5294,1.248798 -2.18829,1.978902 -3.07716,3.409764 -5.65523,7.371264 -7.94813,11.314675 -3.98674,6.856541 -7.89071,14.505778 -10.32913,22.057484 -1.40479,4.35058 -2.15791,8.88523 -3.23686,13.32785 -0.25453,4.614 -0.98007,9.22605 -0.76357,13.84199 0.44502,9.48837 2.6225,17.62584 6.75195,26.14493 3.16499,6.5294 8.16615,13.12119 13.00457,18.53173 1.85446,2.07374 3.94639,3.922198 5.91958,5.883298 0,0 2.53379,-1.72502 2.53379,-1.72502 v 0 c -1.98977,-1.936878 -4.10097,-3.756368 -5.9693,-5.810638 -4.86967,-5.35429 -9.8758,-11.88508 -13.04563,-18.39198 -4.12722,-8.47219 -6.28433,-16.58734 -6.7091,-26.03175 -0.20701,-4.60247 0.52896,-9.19905 0.79345,-13.79857 1.09288,-4.43346 1.85658,-8.96129 3.27863,-13.30038 2.47952,-7.56573 6.44926,-15.244084 10.50978,-22.08796 2.41886,-4.076895 4.96259,-7.87312 8.17877,-11.332207 0.68018,-0.73155 1.49862,-1.32113 2.24793,-1.981696 0,0 -3.02844,1.379342 -3.02844,1.379342 z" />
    <path
       style="opacity:0.996732;fill:#800000;stroke-width:0.8"
       id="path45"
       d="m 869.09835,-20.264671 c 10.5138,8.405891 20.92208,17.638487 26.3559,30.324665 1.71975,4.015024 2.5715,8.348602 3.85724,12.522908 0.30245,4.82775 1.1751,9.65346 0.90736,14.48326 -0.86808,15.65896 -7.09963,30.59435 -14.59688,44.12556 -2.07713,3.74884 -4.5376,7.27209 -6.8064,10.90813 0,0 2.58757,-1.29115 2.58757,-1.29115 v 0 c 2.24005,-3.63171 4.6687,-7.15365 6.72015,-10.89513 7.45454,-13.59577 13.66466,-28.57031 14.5409,-44.26236 0.27127,-4.85788 -0.59653,-9.71259 -0.8948,-14.568892 -1.28243,-4.201853 -2.13189,-8.561108 -3.8473,-12.605561 -5.39478,-12.719443 -15.73976,-21.991506 -26.08061,-30.632477 0,0 -2.74313,1.891047 -2.74313,1.891047 z" />
    <path
       style="opacity:0.996732;fill:#800000;stroke-width:0.8"
       id="path47"
       d="m 942.75435,24.875392 c 1.43117,8.24405 3.4601,16.38022 5.80925,24.40807 1.81059,6.18742 0.875,4.03821 3.48757,8.54846 0.71649,0.0212 1.55881,0.46961 2.14946,0.0635 6.62205,-4.55298 7.36343,-10.46743 9.74115,-17.52913 2.14684,-6.37599 1.45891,-4.4986 3.68745,-9.80621 0,0 -2.85837,1.4856 -2.85837,1.4856 v 0 c -2.19382,5.43884 -3.74409,11.07725 -5.85091,16.54149 -0.74725,1.93805 -1.94156,3.70214 -2.53322,5.69321 -0.15028,0.50573 0.73698,1.14189 0.38527,1.53515 -0.44555,0.49818 -1.32565,0.17162 -1.98847,0.25743 -0.61185,-1.00389 -1.378,-1.9287 -1.83554,-3.01166 -0.73473,-1.73905 -1.17927,-3.58745 -1.71707,-5.39713 -2.38389,-8.02169 -4.38221,-16.18107 -5.62794,-24.4609 0,0 -2.84863,1.67212 -2.84863,1.67212 z" />
    <path
       style="opacity:0.996732;fill:#800000;stroke-width:0.8"
       id="path49"
       d="m 985.00311,30.208722 c -1.37708,1.20098 -2.95365,2.20581 -4.13123,3.60295 -2.73197,3.24135 -4.20165,12.59766 -2.71912,16.52524 0.42868,1.13569 1.4249,1.96568 2.13735,2.94851 1.11988,0.24149 2.22833,0.90503 3.35962,0.72445 1.36406,-0.21774 2.64677,-0.9669 3.7069,-1.85245 4.1669,-3.48074 6.51513,-5.27528 5.83206,-10.61317 -0.49519,-3.86964 -2.26157,-5.17748 -4.58903,-7.91495 -0.85442,-0.62487 -1.70884,-1.24973 -2.56326,-1.87459 0,0 -2.67031,1.87999 -2.67031,1.87999 v 0 c 0.85276,0.5942 1.70551,1.18841 2.55827,1.78261 0.94306,1.09405 2.10287,2.03364 2.82919,3.28215 2.53504,4.35767 1.48336,4.43067 1.05933,9.1795 -0.0634,0.71032 0.42845,1.59976 -0.0381,2.1391 -2.47736,2.86376 -3.82191,1.958 -6.76936,1.48202 -0.69215,-0.9324 -1.6665,-1.71074 -2.07644,-2.79719 -1.45535,-3.85706 -0.2461,-9.50254 1.2281,-13.15583 0.44846,-1.11136 1.5578,-1.98491 1.68365,-3.17671 0.0474,-0.44913 -0.90256,0.0356 -1.35384,0.0533 0,0 2.51624,-2.21497 2.51624,-2.21497 z" />
    <path
       style="opacity:0.996732;fill:#800000;stroke-width:0.8"
       id="path51"
       d="m 1014.2888,-2.095048 c -4.1361,17.005497 -6.9971,34.29306 -9.9865,51.52823 -2.127,11.75362 -1.1321,6.22498 -2.9886,16.58527 0,0 2.7224,-1.49102 2.7224,-1.49102 v 0 c 1.756,-10.31533 0.8019,-4.80643 2.8761,-16.52427 2.9834,-17.2988 5.8103,-34.678816 10.3276,-51.657805 0,0 -2.951,1.559595 -2.951,1.559595 z" />
    <path
       style="opacity:0.996732;fill:#800000;stroke-width:0.8"
       id="path53"
       d="m 708.97911,-37.868475 c -0.67444,0.610835 -1.40745,1.16265 -2.02331,1.832505 -12.96819,14.105251 -19.22713,35.105849 -25.10215,52.824428 -6.86069,23.741524 -9.95705,46.826604 -5.20252,71.327104 2.27162,11.70587 4.62016,16.610558 8.71503,27.370158 5.93236,11.75409 2.87675,6.43388 8.9496,16.08346 0,0 2.58706,-1.67719 2.58706,-1.67719 v 0 c -6.17413,-9.53437 -3.06959,-4.26985 -9.0908,-15.92286 -4.16559,-10.74104 -6.51238,-15.514618 -8.81229,-27.233758 -4.7698,-24.30448 -1.65055,-47.68283 5.26158,-71.219271 5.92058,-17.631528 12.47337,-39.089172 25.67153,-52.930822 0.64002,-0.671222 1.40311,-1.213235 2.10466,-1.819853 0,0 -3.05839,1.366099 -3.05839,1.366099 z" />
    <path
       style="opacity:0.996732;fill:#800000;stroke-width:0.8"
       id="path55"
       d="m 1028.282,-50.116396 c 10.484,15.145071 17.829,32.587215 20.8299,50.814148 1.1139,6.765131 1.3633,13.644484 2.0449,20.466726 0.5963,23.201264 -3.5055,45.899604 -11.1338,67.759464 -4.8526,13.905768 -7.8061,18.616428 -14.2751,31.044958 0,0 2.498,-1.27113 2.498,-1.27113 v 0 c 6.3546,-12.41923 9.231,-17.08927 14.0098,-30.963958 7.5471,-21.91215 11.6507,-44.64971 11.1394,-67.875024 -0.652,-6.854084 -0.8729,-13.762924 -1.9558,-20.562251 -2.9174,-18.318132 -10.1992,-35.797571 -20.3817,-51.220129 0,0 -2.7756,1.807196 -2.7756,1.807196 z" />
    <path
       style="opacity:0.996732;fill:#800000;stroke-width:0.8"
       id="path57"
       d="m 1066.0352,47.759102 c 11.6167,-0.0238 23.2296,-0.10921 34.8432,-0.38703 0,0 2.4222,-1.95089 2.4222,-1.95089 v 0 c -11.5543,0.32406 -23.1082,0.43756 -34.6667,0.25595 0,0 -2.5987,2.08197 -2.5987,2.08197 z" />
    <path
       style="opacity:0.996732;fill:#800000;stroke-width:0.8"
       id="path59"
       d="m 1150.6677,9.516596 c -1.1007,1.465665 -2.3355,2.839652 -3.3021,4.396994 -7.7323,12.457212 -11.1913,26.882462 -12.3091,41.380982 -0.2861,3.7109 -0.1887,7.44144 -0.2831,11.16216 0.7843,11.77911 0.01,6.32332 2.0358,16.40713 0,0 2.6718,-1.59688 2.6718,-1.59688 v 0 c -2.1112,-9.9794 -1.296,-4.571 -2.1356,-16.26895 0.089,-3.70607 -0.021,-7.42214 0.2653,-11.11822 1.123,-14.5148 4.6744,-28.99419 12.6081,-41.355048 1.005,-1.565852 2.2906,-2.932776 3.4359,-4.399164 0,0 -2.987,1.390996 -2.987,1.390996 z" />
    <path
       style="opacity:0.996732;fill:#800000;stroke-width:0.8"
       id="path61"
       d="m 1153.7379,40.610522 c 0.6021,9.32069 1.7761,18.57393 3.2622,27.7901 1.0656,5.37706 1.9018,8.36107 7.3608,2.52662 0.9673,-1.03388 2.9087,-6.89307 3.1633,-7.59315 2.7371,-9.30881 4.5059,-18.85665 7.0072,-28.22674 0,0 -2.8625,1.53837 -2.8625,1.53837 v 0 c -2.3347,9.38992 -4.1548,18.91142 -6.9794,28.17422 -0.5725,1.50951 -1.0643,3.05222 -1.7177,4.52855 -0.4569,1.03246 -1.4948,1.85852 -1.6063,2.98207 -0.045,0.45504 1.1356,0.11363 1.3396,-0.29565 0.1723,-0.34581 -0.8621,0.17875 -1.1569,-0.071 -1.1447,-0.96973 -1.5777,-4.28701 -1.7899,-5.19644 -1.5343,-9.22877 -2.7208,-18.50297 -3.1341,-27.85805 0,0 -2.8863,1.70109 -2.8863,1.70109 z" />
    <path
       style="opacity:0.996732;fill:#800000;stroke-width:0.8"
       id="path63"
       d="m 1180.1009,59.807322 c 12.6115,-2.19958 25.5058,-1.7896 38.2605,-2.14673 3.1272,-0.19502 8.3898,0.0405 9.5086,-4.23355 0.1784,-0.68135 -4.895,-5.05554 -5.5943,-5.66017 -0.2442,-0.31597 -0.3718,-1.11909 -0.7326,-0.94791 -0.7715,0.36603 -1.9128,1.25798 -1.5571,2.03423 0.425,0.92714 1.9548,0.58605 2.9153,0.92896 0.7483,0.26716 6.5222,2.49361 7.262,2.96107 0.6687,0.42253 1.0781,1.15783 1.6171,1.73675 -0.4848,0.63541 -0.8468,1.38686 -1.4543,1.90623 -0.4594,0.3928 -1.1009,0.49945 -1.6514,0.74909 -2.0361,0.92335 -4.0812,1.82726 -6.1085,2.76988 -6.7791,3.15212 -5.6855,2.67145 -12.0334,6.0011 0,0 -2.3534,2.08039 -2.3534,2.08039 v 0 c 5.9753,-3.15647 5.6675,-3.0935 12.0294,-6.02373 5.1694,-2.38101 8.4211,-3.29776 13.0644,-7.04162 0.674,-0.54344 0.824,-1.52301 1.2359,-2.28451 -2.5561,-2.66759 -1.0798,-1.59928 -5.2838,-3.33793 -1.2293,-0.50839 -2.4646,-1.0027 -3.7078,-1.47598 -3.0104,-1.14602 -3.7081,-2.02209 -6.7566,0.84359 -0.3067,0.28827 0.5407,0.64513 0.8111,0.9677 1.4816,1.26706 2.7002,2.23481 4.0278,3.68729 0.4931,0.53939 0.6524,1.51792 1.3533,1.72481 0.8373,0.24718 1.8761,-1.11819 2.5562,-0.57076 1.7702,1.42481 -11.6622,0.67787 -6.7074,1.21762 -12.7204,0.41866 -25.551,0.01 -38.1602,1.96512 0,0 -2.5408,2.14906 -2.5408,2.14906 z" />
    <path
       style="opacity:0.996732;fill:#800000;stroke-width:0.8"
       id="path65"
       d="m 1202.7847,47.153842 c -3.9877,1.75881 -8.2956,2.65255 -12.331,4.28108 -0.7511,0.30311 -1.56,0.5469 -2.186,1.06087 -1.1397,0.93574 -2.0205,2.14832 -3.0308,3.22248 2.4766,2.89228 6.2534,3.9582 9.3753,5.95947 1.1701,0.7501 2.2357,1.65202 3.3535,2.47803 0,0 2.6405,-1.85229 2.6405,-1.85229 v 0 c -1.1278,-0.83596 -2.2033,-1.7474 -3.3833,-2.50786 -2.9881,-1.92574 -6.5795,-3.00724 -9.0515,-5.65943 -0.7919,0.17831 -2.1256,1.30717 -2.3758,0.53493 -0.2523,-0.77876 1.4317,-0.80176 2.1875,-1.11634 3.9953,-1.66309 8.2937,-2.50459 12.2759,-4.2039 0,0 2.5257,-2.19704 2.5257,-2.19704 z" />
    <path
       style="opacity:0.996732;fill:#800000;stroke-width:0.8"
       id="path67"
       d="m 1254.6659,45.009022 c -0.9391,4.62777 -1.5125,9.31923 -2.1182,13.99886 -0.1911,1.47628 -0.4681,2.94454 -0.5638,4.43005 -0.1956,3.03731 -0.6361,2.49045 1.168,3.189 4.8495,-2.32568 5.4087,-6.26033 8.1656,-10.14838 0.5027,-0.70894 0.9291,-2.02591 1.7886,-1.89702 0.7311,0.10965 -1.0989,1.32311 -0.8889,2.03194 0.2823,0.95275 1.4092,1.4014 2.1138,2.1021 1.6765,1.81611 6.7437,10.72538 9.9547,9.29041 5.6085,-2.50643 5.2912,-4.03385 7.304,-8.88759 1.6061,-5.72025 1.9034,-11.63665 2.2238,-17.52724 0,0 -2.7839,1.56916 -2.7839,1.56916 v 0 c -0.2786,5.86527 -0.5638,11.75026 -2.2686,17.42233 -0.7105,1.58644 -1.5622,3.11689 -2.1314,4.75931 -0.076,0.22058 0.4873,0.62005 0.2561,0.65184 -4.524,0.62178 -7.2946,-6.4099 -9.8498,-9.11262 -0.7334,-0.76561 -1.1486,-2.16166 -2.2002,-2.29684 -4.7077,-0.60522 -6.4322,3.44948 -8.26,6.57299 -0.6171,1.05455 -1.6148,1.95359 -1.8809,3.1461 -0.083,0.37459 0.7434,0.19117 1.1151,0.28676 -1.6784,-0.028 -1.1858,0.27392 -1.0137,-2.71038 0.085,-1.48019 0.353,-2.94426 0.5411,-4.41493 0.6004,-4.69309 1.1968,-9.39882 2.2422,-14.01857 0,0 -2.9136,1.56272 -2.9136,1.56272 z" />
    <path
       style="opacity:0.996732;fill:#800000;stroke-width:0.8"
       id="path69"
       d="m 1281.064,4.691741 c 10.4029,13.005713 14.5776,29.992461 13.0481,46.511391 -0.5381,5.81189 -2.1821,11.46771 -3.2732,17.20156 -6.5765,17.36206 -5.6147,16.81821 -14.5139,32.699078 -2.3653,4.2209 -5.067,8.24428 -7.6005,12.36642 0,0 2.5299,-1.26453 2.5299,-1.26453 v 0 c 2.4975,-4.11154 5.1579,-8.12844 7.4925,-12.334628 8.8591,-15.96116 7.874,-15.31947 14.4702,-32.76396 1.1061,-5.76362 2.761,-11.44857 3.3183,-17.29084 1.5886,-16.65637 -2.5608,-33.636877 -12.7033,-46.978851 0,0 -2.7681,1.85436 -2.7681,1.85436 z" />
    <path
       style="opacity:0.996732;fill:#800000;stroke-width:0.8"
       id="path71"
       d="m 1322.4905,45.250212 c 10.8318,-1.54865 21.5597,-3.75408 32.4413,-4.92663 0,0 2.4533,-2.01025 2.4533,-2.01025 v 0 c -10.8334,1.23138 -21.521,3.42565 -32.3353,4.81615 0,0 -2.5593,2.12073 -2.5593,2.12073 z" />
    <path
       style="opacity:0.996732;fill:#800000;stroke-width:0.8"
       id="path73"
       d="m 1316.3185,63.211132 c 1.0892,-0.2902 2.1596,-0.66421 3.2678,-0.87058 10.9023,-2.03025 22.2043,-1.70778 33.2399,-1.76138 0,0 2.3711,-1.90173 2.3711,-1.90173 v 0 c -10.9949,0.0684 -22.2342,-0.27537 -33.1202,1.56325 -1.0917,0.18438 -2.1511,0.52549 -3.2266,0.78823 0,0 -2.532,2.18221 -2.532,2.18221 z" />
    <path
       style="opacity:0.996732;fill:#800000;stroke-width:0.8"
       id="path75"
       d="m 475.08416,168.56221 c 15.29726,0.43761 30.60515,0.202 45.88962,1.0044 0,0 2.47382,-1.96222 2.47382,-1.96222 v 0 c -15.25481,-0.68538 -30.52821,-0.42286 -45.78507,-1.10785 0,0 -2.57837,2.06567 -2.57837,2.06567 z" />
    <path
       style="opacity:0.996732;fill:#800000;stroke-width:0.8"
       id="path77"
       d="m 476.13869,189.79474 c 13.13984,-3.55785 26.77836,-4.12641 40.30797,-4.30345 0,0 2.33684,-1.87729 2.33684,-1.87729 v 0 c -13.44384,0.18376 -26.98515,0.70239 -40.09022,4.01472 0,0 -2.55459,2.16602 -2.55459,2.16602 z" />
    <path
       style="opacity:0.996732;fill:#800000;stroke-width:0.8"
       id="path79"
       d="m 604.23536,144.28096 c -0.70426,-2.82594 -1.13445,-5.91879 -2.97746,-8.26222 -0.32421,-0.11936 -0.62716,-0.35953 -0.97265,-0.35807 -0.44086,0.002 -0.88808,0.14817 -1.27049,0.36753 -4.22586,2.42412 -6.07406,4.04062 -8.49427,8.02157 -3.31539,7.39126 -4.03047,15.68343 -5.08267,23.64058 -1.1408,8.199 -1.89609,16.66195 -5.20955,24.3535 -0.5851,1.35818 -1.33035,2.64162 -1.99553,3.96243 -2.32113,3.27188 -4.59915,6.82521 -7.71616,9.43427 -0.7859,0.65784 -1.56845,1.48577 -2.57463,1.68069 -0.39287,0.0761 0.39984,-0.95508 0.0816,-1.19774 -0.72577,-0.55344 -1.75589,-0.49898 -2.63384,-0.74848 -3.85078,-2.21213 -7.72207,-6.10016 -5.68714,-10.9151 0.31132,-0.73664 0.87004,-1.34212 1.30506,-2.01319 0.64585,-0.4861 1.1492,-1.27965 1.93756,-1.45832 0.37446,-0.0849 -0.68431,0.91299 -0.3479,1.09806 0.80215,0.44131 1.84016,0.0379 2.73804,0.21687 3.3343,0.66464 6.49059,2.38289 9.50862,3.85679 6.33929,3.24656 11.78556,7.86185 17.71997,11.73703 0.73406,0.29281 1.41764,0.78307 2.20217,0.87841 0.6632,0.0806 1.39887,-0.024 1.96953,-0.37139 4.91042,-2.9893 5.02391,-4.67439 6.21008,-9.55879 0,0 -2.92105,1.57519 -2.92105,1.57519 v 0 c -0.3212,1.32491 -0.58286,2.56588 -1.0828,3.84961 -0.29251,0.75109 -1.14946,1.39763 -1.01884,2.19302 0.0735,0.44771 1.72305,-0.4442 1.34794,-0.18898 -1.63295,1.11103 -2.42124,0.32728 -4.03971,-0.27299 -5.97425,-3.84333 -11.42176,-8.48147 -17.76482,-11.75232 -2.41553,-1.19347 -9.66248,-4.98962 -12.35573,-4.28692 -3.78781,0.9883 -4.61091,1.93825 -7.04997,3.95541 -0.41719,0.7044 -0.96066,1.34796 -1.25156,2.11321 -1.89866,4.99464 2.01453,8.96784 5.96236,11.31849 0.91014,0.29178 1.78772,1.03276 2.73044,0.87536 7.24421,-1.20954 11.82963,-7.9279 15.59456,-13.48034 0.65926,-1.33214 1.399,-2.6274 1.97777,-3.99643 3.26509,-7.72318 3.98487,-16.20212 5.1675,-24.40772 1.0718,-7.93753 1.7743,-16.23575 5.22323,-23.55968 1.03663,-1.64104 1.40868,-2.44357 2.76372,-3.80259 0.4819,-0.48331 1.28919,-0.69241 1.56981,-1.31456 0.20676,-0.4584 -0.98197,0.36488 -1.31242,0.74392 -0.44088,0.50572 2.01721,-1.43893 1.98409,-0.33851 1.8429,2.25968 2.22291,5.35356 2.87874,8.11349 0,0 2.88637,-1.70109 2.88637,-1.70109 z" />
    <path
       style="opacity:0.996732;fill:#800000;stroke-width:0.8"
       id="path81"
       d="m 609.07788,198.47938 c -1.75241,6.92942 -2.09577,14.08384 -1.61228,21.18548 0.38143,1.64025 0.57822,5.41341 3.05664,5.71722 0.58399,0.0716 1.21161,-0.10806 1.71694,-0.40941 4.37005,-2.60607 3.99226,-2.57106 6.45265,-5.73673 3.48778,-6.21587 4.52954,-13.3422 6.09426,-20.1959 0,0 -2.85034,1.54326 -2.85034,1.54326 v 0 c -1.51464,6.83886 -2.58188,13.94824 -6.18776,20.0791 -0.63061,0.77624 -1.47777,1.41835 -1.89183,2.32872 -0.12796,0.28134 1.16633,-0.34652 0.91104,-0.17232 -3.2358,2.20807 -4.19779,-2.6738 -4.49266,-4.78179 -0.49186,-7.08556 -0.15035,-14.2476 1.7689,-21.12493 0,0 -2.96556,1.5673 -2.96556,1.5673 z" />
    <path
       style="opacity:0.996732;fill:#800000;stroke-width:0.8"
       id="path83"
       d="m 675.47928,185.96184 c -4.90659,-3.83701 -11.43393,-5.06285 -16.95681,-1.50083 -2.22317,1.43385 -4.14746,3.28516 -6.22119,4.92774 -2.33674,3.67365 -4.78275,8.09054 -2.77088,12.5567 0.50591,1.12308 1.30801,2.19017 2.34366,2.85701 1.07842,0.69439 2.42458,1.1081 3.7053,1.03788 1.61888,-0.0888 3.08569,-0.99656 4.62853,-1.49484 2.50452,-1.89105 5.27994,-3.46869 7.51356,-5.67314 3.37028,-3.32625 6.73976,-10.02028 8.52719,-14.14981 3.47764,-8.03445 5.50818,-16.11177 7.29552,-24.62376 0.3824,-2.85444 1.07482,-6.16214 0.78269,-9.13816 -0.1812,-1.84582 -3.26043,2.13426 -4.05472,3.81026 -0.78438,1.6551 -0.69389,3.59723 -0.99367,5.4041 -0.41223,2.4847 -0.76143,4.97946 -1.14214,7.4692 -1.09776,10.10563 -2.8443,20.33889 -2.37674,30.54995 0.0689,1.50567 0.36183,2.99271 0.54274,4.48907 0,0 2.77157,-1.62695 2.77157,-1.62695 v 0 c -0.19098,-1.47444 -0.4942,-2.93866 -0.57293,-4.42334 -0.54015,-10.186 1.17799,-20.40826 2.34714,-30.4798 0.40572,-2.49929 0.77008,-5.00565 1.21717,-7.49788 0.32584,-1.81639 1.36964,-3.59979 1.10119,-5.42555 -0.1098,-0.74671 -1.33995,-0.70146 -2.0426,-0.97699 -0.15343,-0.0602 0.35569,0.15913 0.37444,0.32287 0.1262,1.10241 0.1265,2.22204 0.0436,3.32855 -0.14245,1.9008 -0.47879,3.78208 -0.71819,5.67312 -3.03619,14.65989 -7.24538,30.02195 -18.18456,40.88545 -1.49286,0.53881 -2.89811,1.47145 -4.4786,1.61644 -1.22456,0.11233 -2.53503,-0.23411 -3.58337,-0.87687 -1.00358,-0.61532 -1.78243,-1.63568 -2.26549,-2.7092 -1.97054,-4.37925 0.56007,-8.71648 2.89454,-12.25249 1.44125,-2.37194 0.94279,-2.17739 4.95347,-3.28872 4.60841,-1.27696 8.97508,0.23943 12.57647,3.10104 0,0 2.74313,-1.89105 2.74313,-1.89105 z" />
    <path
       style="opacity:0.996732;fill:#800000;stroke-width:0.8"
       id="path85"
       d="m 690.39382,186.7497 c -0.50431,4.62899 -1.37051,9.237 -1.51232,13.90236 -0.0313,1.02971 -0.15307,2.08556 0.0777,3.08956 0.1679,0.73051 0.72339,1.31305 1.08509,1.96957 0.53317,0.339 1.06634,0.67799 1.59951,1.01699 0,0 2.69763,-1.93001 2.69763,-1.93001 v 0 c -0.50494,-0.28929 -1.00987,-0.57859 -1.5148,-0.86789 -0.34411,-0.60514 -0.87724,-1.13678 -1.03234,-1.81541 -0.22658,-0.99143 -0.10987,-2.03338 -0.0796,-3.04992 0.1391,-4.67198 0.99744,-9.28989 1.59995,-13.91232 0,0 -2.9208,1.59707 -2.9208,1.59707 z" />
    <path
       style="opacity:0.996732;fill:#800000;stroke-width:0.8"
       id="path87"
       d="m 703.24067,187.91816 c 0.81099,4.70205 1.10974,11.07505 3.29767,15.35025 0.28502,0.55695 0.76769,0.9881 1.15154,1.48215 0.48918,0.006 1.04086,0.25861 1.46755,0.0193 1.5974,-0.89598 3.10315,-2.0011 4.38971,-3.30464 0.75538,-0.76536 1.13804,-1.82824 1.62337,-2.78783 2.09851,-4.14918 3.37392,-8.52349 4.63675,-12.97569 1.30936,-5.10083 0.70582,-2.70173 1.81853,-7.19531 0,0 -2.87207,1.54849 -2.87207,1.54849 v 0 c -1.06941,4.46778 -0.48367,2.08187 -1.76965,7.15467 -1.27661,4.44086 -2.55402,8.82274 -4.73123,12.92869 -0.50146,0.94571 -1.48246,1.67845 -1.69493,2.72759 -0.0794,0.39228 1.54217,-0.3802 1.18355,-0.20246 -0.39195,0.19424 -0.85834,0.16932 -1.28751,0.25398 -0.37422,-0.45771 -0.84841,-0.84936 -1.12267,-1.37312 -2.19922,-4.20004 -2.51644,-10.65116 -3.21347,-15.30189 0,0 -2.87714,1.67584 -2.87714,1.67584 z" />
    <path
       style="opacity:0.996732;fill:#800000;stroke-width:0.8"
       id="path89"
       d="m 749.09825,180.83096 c -1.4585,7.87082 -1.81759,15.97651 -0.2673,23.85075 0.35493,0.417 0.53805,1.40065 1.0648,1.25099 4.93775,-1.4029 6.30983,-6.04307 8.21128,-10.10828 2.86519,-6.12562 0.82656,-2.11577 3.56984,-7.31936 0.45215,-0.57805 2.08712,-1.80285 1.35646,-1.73415 -0.76809,0.0722 -1.49594,0.97789 -1.51565,1.74912 -0.0195,0.76212 0.99389,1.16013 1.42524,1.78873 1.50738,2.19674 2.73164,4.57892 4.23665,6.77727 0.79414,1.15999 1.6824,2.25264 2.5236,3.37896 0.92329,0.73814 1.69173,1.72972 2.76987,2.21442 4.50011,2.02316 8.81462,-3.09215 10.02457,-6.87663 1.25008,-3.91001 0.98712,-7.08289 1.06448,-11.15017 -0.28596,-5.4244 -0.80211,-10.86688 -2.43945,-16.06388 0,0 -2.81919,1.72789 -2.81919,1.72789 v 0 c 1.72484,5.12161 2.25811,10.51388 2.51285,15.89369 -0.11163,4.04096 0.14144,7.19298 -1.1988,11.0533 -0.44384,1.27841 -1.40475,2.3202 -1.97047,3.54955 -0.0429,0.0932 0.36769,0.15606 0.2651,0.15634 -3.64174,0.01 -2.39832,0.14002 -5.51597,-2.27871 -0.83666,-1.11842 -1.72316,-2.20123 -2.50997,-3.35526 -3.73718,-5.48146 -0.75724,-1.67929 -4.19684,-6.84367 -0.47903,-0.71923 -0.70663,-2.02118 -1.56976,-2.06316 -3.08901,-0.15026 -3.98504,1.69386 -5.33944,3.54905 -1.92624,3.74424 -3.50244,7.67571 -5.51844,11.37072 -0.58991,1.08123 -1.6776,1.93991 -1.94374,3.14251 -0.1096,0.49524 3.68698,-1.1853 0.32281,-1.48705 -1.62361,-7.83844 -1.22219,-15.94651 0.39344,-23.76357 0,0 -2.93597,1.5906 -2.93597,1.5906 z" />
    <path
       style="opacity:0.996732;fill:#800000;stroke-width:0.8"
       id="path91"
       d="m 824.00136,188.89864 c 10.31875,1.10113 20.69133,1.62732 30.97209,3.0599 0,0 2.52138,-1.96421 2.52138,-1.96421 v 0 c -10.26156,-1.38408 -20.61188,-1.86505 -30.88254,-3.18744 0,0 -2.61093,2.09175 -2.61093,2.09175 z" />
    <path
       style="opacity:0.996732;fill:#800000;stroke-width:0.8"
       id="path93"
       d="m 896.16791,174.22245 c 0.33774,4.50164 1.47516,8.97646 2.85557,13.2646 0.73616,2.28682 1.8478,6.14735 4.10888,7.73098 0.8346,0.58455 1.985,0.46131 2.9775,0.69196 1.96841,-1.23084 4.16219,-2.15908 5.90522,-3.69252 3.51566,-3.09293 6.99345,-12.49529 8.76961,-17.06599 0,0 -2.87341,1.50157 -2.87341,1.50157 v 0 c -2.33123,6.08707 -4.65402,12.42824 -9.20763,17.2623 -0.95672,-0.16218 -2.05911,0.0462 -2.87015,-0.48653 -2.26001,-1.48452 -3.38883,-5.39214 -4.094,-7.58909 -1.37426,-4.28149 -2.46711,-8.76549 -2.67464,-13.26967 0,0 -2.89695,1.65239 -2.89695,1.65239 z" />
    <path
       style="opacity:0.996732;fill:#800000;stroke-width:0.8"
       id="path95"
       d="m 938.45901,187.64128 c 11.42359,-0.23924 22.85571,0.12571 34.25566,-0.7708 3.16876,-0.9229 5.54039,-1.06707 7.43368,-4.57927 0.83325,-1.54575 -3.66746,-5.70674 -4.87019,-6.47209 -0.74939,0.87182 -2.11873,1.47314 -2.24816,2.61546 -0.087,0.76755 1.16682,1.01456 1.78426,1.47872 1.85293,1.39293 6.20161,3.4961 6.88858,5.87201 0.25326,0.87591 -0.16414,1.81617 -0.24621,2.72426 -2.40919,4.26668 -6.03308,7.60896 -9.4204,11.07472 0,0 2.88472,-1.36203 2.88472,-1.36203 v 0 c 3.41897,-3.51979 7.1114,-6.89508 9.39356,-11.31808 0.0415,-0.97505 0.41408,-1.99318 0.12448,-2.92515 -0.75898,-2.44251 -4.99804,-4.47919 -6.91199,-5.94407 -0.58849,-0.45042 -0.95358,-1.40207 -1.69367,-1.44023 -1.16073,-0.0599 -2.18647,0.78919 -3.27971,1.18378 1.56404,0.79484 3.16172,2.37055 4.0054,3.89757 0.34933,0.63224 0.11213,1.56693 0.62596,2.07461 0.35033,0.34615 1.90833,-0.23491 1.47748,0.004 -1.06438,0.58936 -2.31922,0.73635 -3.47882,1.10452 -11.3575,0.98099 -22.75636,0.64729 -34.14507,0.67711 0,0 -2.57956,2.1053 -2.57956,2.1053 z" />
    <path
       style="opacity:0.996732;fill:#800000;stroke-width:0.8"
       id="path97"
       d="m 959.03433,174.7306 c -5.48444,3.01365 -11.21848,5.53942 -16.94759,8.0448 -1.37899,0.94412 -3.08836,1.53105 -4.13696,2.83236 -0.32653,0.40522 0.35835,1.02793 0.75221,1.36807 0.58962,0.50921 6.1755,3.55917 6.39549,3.68145 0,0 2.61783,-1.88601 2.61783,-1.88601 v 0 c -0.003,-0.002 -5.68658,-3.18249 -6.20348,-3.59386 -0.28367,-0.22575 -0.18106,-0.89601 -0.54043,-0.94383 -0.50203,-0.0668 -0.90177,0.46128 -1.35266,0.69192 5.70661,-2.49565 11.42175,-5.00681 16.89935,-7.97993 0,0 2.51624,-2.21497 2.51624,-2.21497 z" />
    <path
       style="opacity:0.996732;fill:#800000;stroke-width:0.8"
       id="path99"
       d="m 1002.5904,172.60433 c 2.0649,6.47425 4.6764,12.74015 7.1592,19.05996 0.3941,0.84841 1.2801,3.65773 2.6881,4.11379 0.522,0.1691 1.1602,-0.0281 1.6103,-0.34194 4.8442,-3.3777 5.1997,-5.33315 7.4889,-10.23952 1.4024,-2.93627 2.3028,-6.07161 3.5991,-9.05072 0.2555,-0.5872 0.4642,-1.21006 0.8435,-1.72607 0.1532,-0.2085 0.841,-0.56751 0.6885,-0.35845 -0.7889,1.08173 -1.7579,2.01989 -2.6368,3.02983 0.1948,4.37455 -0.4324,8.72441 -0.552,13.0909 -0.052,1.91695 -0.2024,5.02243 0.6136,6.98631 0.2137,0.51441 0.7319,0.83988 1.0979,1.25982 0.5631,-0.0541 1.1892,0.1023 1.6891,-0.16224 6.8966,-3.64914 9.0204,-9.34862 11.8877,-16.14187 2.4556,-5.68457 2.9918,-11.79504 3.982,-17.81594 0,0 -2.8922,1.59141 -2.8922,1.59141 v 0 c -0.8696,6.00838 -1.513,12.05622 -3.9493,17.70648 -1.3132,3.06353 -1.8941,4.67187 -3.5357,7.54011 -0.5975,1.04385 -1.2363,2.06771 -1.9486,3.03676 -0.5991,0.81483 -1.5204,1.3993 -1.9762,2.30207 -0.1573,0.31154 1.3321,-0.40519 0.9883,-0.34551 -0.5082,0.0882 -0.9906,0.28791 -1.4858,0.43187 -0.3482,-0.36244 -0.845,-0.62604 -1.0445,-1.08732 -0.8299,-1.91865 -0.6907,-5.00034 -0.6409,-6.8698 0.1174,-4.41628 0.7815,-8.80908 0.6219,-13.23356 -1.0944,0.0176 -2.1996,-0.10205 -3.2831,0.0529 -0.8646,0.1236 -1.0375,1.42448 -1.3763,2.22942 -1.2545,2.98014 -2.1766,6.09077 -3.5727,9.01381 -0.5435,1.14639 -1.0531,2.30953 -1.6306,3.43916 -0.5195,1.01605 -1.4995,1.86473 -1.6588,2.9947 -0.057,0.40417 1.3103,-0.22994 1.2131,0.16648 -0.6543,2.66812 -4.5967,-2.34409 -4.0774,-3.32204 -2.4991,-6.31652 -5.1183,-12.58328 -7.0516,-19.10551 0,0 -2.8587,1.75476 -2.8587,1.75476 z" />
    <path
       style="opacity:0.996732;fill:#800000;stroke-width:0.8"
       id="path101"
       d="m 1048.6344,116.10722 c 11.5197,8.20924 20.3807,20.20247 23.9244,34.04117 1.2559,4.90454 1.4935,10.01484 2.2402,15.02226 -0.2131,5.41433 0.1394,10.88069 -0.6392,16.24299 -1.7614,12.13237 -5.6108,22.14532 -11.6103,32.79135 -5.9553,10.56748 -11.1811,16.05937 -18.7593,25.13566 0,0 2.5468,-1.22715 2.5468,-1.22715 v 0 c 7.5079,-9.07171 12.7131,-14.60307 18.6179,-25.14516 5.9879,-10.69048 9.8404,-20.7455 11.6062,-32.91181 0.7815,-5.38392 0.4324,-10.87208 0.6486,-16.30812 -0.7348,-5.039 -0.9624,-10.17847 -2.2044,-15.11699 -3.5025,-13.92759 -12.2991,-25.93386 -23.6533,-34.46258 0,0 -2.7176,1.93838 -2.7176,1.93838 z" />
    <path
       style="opacity:0.996732;fill:#800000;stroke-width:0.8"
       id="path103"
       d="m 574.61932,102.49779 c -12.23225,5.88065 -21.1654,17.23388 -28.11901,28.56481 -3.12248,5.0881 -6.07492,10.31153 -8.47118,15.7793 -2.55483,5.8296 -4.22526,12.00803 -6.33789,18.01204 -0.78549,6.24728 -2.30912,12.44555 -2.35647,18.74184 -0.0924,12.28354 2.70257,22.65744 7.61213,33.76008 3.53481,7.99373 9.3431,16.62385 14.65357,23.60967 2.11275,2.77929 4.46686,5.36654 6.7003,8.04981 0,0 2.48168,-1.65524 2.48168,-1.65524 v 0 c -2.25423,-2.65997 -4.63149,-5.22038 -6.76269,-7.9799 -5.358,-6.93764 -11.17976,-15.4847 -14.73856,-23.46235 -4.92511,-11.04046 -7.72059,-21.37739 -7.62054,-33.61025 0.0514,-6.2791 1.58371,-12.45836 2.37556,-18.68754 2.13219,-5.99855 3.81718,-12.17538 6.39657,-17.99566 4.3969,-9.92142 10.73207,-19.79442 17.56098,-28.24663 0.3762,-0.46562 7.92572,-9.01531 10.923,-11.0869 0.97637,-0.67482 2.10892,-1.08958 3.16337,-1.63437 0,0 2.53918,-2.15871 2.53918,-2.15871 z" />
    <path
       style="opacity:0.996732;fill:#800000;stroke-width:0.8"
       id="path105"
       d="m 1104.1191,180.5 c -0.1455,-0.2014 -0.2096,-0.7053 -0.4365,-0.60419 -1.1218,0.49977 -2.3295,1.10836 -3.0019,2.13604 -0.347,0.5303 0.2223,1.24938 0.3864,1.86149 0.988,3.68505 2.4583,7.23958 3.761,10.81935 1.2673,2.60979 1.8208,6.12675 4.0058,8.25962 0.3038,0.29657 0.7408,0.7196 1.1386,0.57103 3.9189,-1.46396 3.7775,-2.05205 5.5001,-4.90582 4.0142,-6.9508 5.8101,-14.99748 10.0067,-21.84036 0,0 -2.9588,1.48369 -2.9588,1.48369 v 0 c -3.9863,6.94787 -5.9052,14.90469 -9.9844,21.81746 -0.5156,0.76684 -1.6276,1.37996 -1.547,2.30053 0.054,0.6214 1.4002,-0.27379 1.6755,-0.83352 0.1678,-0.34109 -0.783,-0.15256 -1.0652,-0.40724 -0.5042,-0.45509 -0.8642,-1.05554 -1.2059,-1.64254 -1.266,-2.17433 -1.9022,-4.13204 -2.821,-6.49751 -1.2906,-3.56372 -2.782,-7.12002 -3.6546,-10.81884 -0.1362,-0.57728 0.3202,-1.67112 -0.2663,-1.75935 -4.5358,-0.68227 -3.0382,0.95017 -2.3642,1.85423 0,0 2.8317,-1.79407 2.8317,-1.79407 z" />
    <path
       style="opacity:0.996732;fill:#800000;stroke-width:0.8"
       id="path107"
       d="m 1141.0782,186.23589 c -5.0461,-4.20266 -8.9302,-3.03 -13.9498,1.28331 -0.9158,0.78699 -1.3885,1.97599 -2.0827,2.96398 -0.421,1.23277 -1.0009,2.42226 -1.263,3.69829 -0.9704,4.72425 0.2754,10.66493 5.7451,11.87365 1.2594,0.27829 2.5794,-0.0163 3.8691,-0.0245 4.2796,-2.03787 5.8231,-2.29461 9.1382,-6.9615 1.9072,-2.68492 2.3263,-9.22121 0.6067,-12.14632 -0.49,-0.83351 -1.3932,-1.34103 -2.0899,-2.01154 0,0 -2.7057,1.85083 -2.7057,1.85083 v 0 c 0.6743,0.61963 1.5522,1.07335 2.023,1.85888 2.5649,4.28026 0.3248,7.7962 -0.7306,11.84935 -0.1392,0.53469 0.3059,1.27444 -0.095,1.65485 -0.9861,0.93612 -2.4152,1.24963 -3.6228,1.87444 -3.0103,0.11065 -4.3928,0.73388 -6.9171,-1.32755 -4.1298,-3.37245 -2.7647,-9.48418 -1.0413,-13.61822 0.7257,-0.96982 0.9343,-2.66652 2.1098,-2.9587 0.8868,-0.22039 1.7688,-0.56131 2.6825,-0.56418 2.1092,-0.007 4.0256,1.30103 5.5523,2.58806 0,0 2.771,-1.88318 2.771,-1.88318 z" />
    <path
       style="opacity:0.996732;fill:#800000;stroke-width:0.8"
       id="path109"
       d="m 1144.6987,194.18408 c 8.6698,-4.45728 14.922,-12.05411 18.3498,-21.12431 0.8098,-2.14287 1.2708,-4.4018 1.9062,-6.60271 1.0665,-4.78142 2.912,-22.90842 -7.1512,-12.10168 -1.1501,1.23508 -1.5682,2.98883 -2.3524,4.48325 -0.7293,2.28878 -1.5957,4.53834 -2.1881,6.86633 -2.5142,9.88017 -3.9777,22.75259 -2.2673,32.88272 0.3242,1.91986 1.0418,3.75211 1.5627,5.62817 0.8955,1.32071 1.5267,2.86612 2.6864,3.96212 3.6617,3.46053 7.6505,2.46975 11.9652,1.56044 0,0 2.4773,-2.0748 2.4773,-2.0748 v 0 c -4.0894,0.94716 -8.2371,2.00306 -11.7594,-1.23747 -1.1491,-1.05725 -1.7772,-2.56802 -2.6659,-3.85203 -0.5251,-1.85053 -1.2463,-3.65635 -1.5755,-5.55158 -1.7788,-10.24145 -0.3217,-22.80844 2.324,-32.77182 0.6181,-2.32781 1.5256,-4.56897 2.2884,-6.85345 0.8281,-1.4691 1.8481,-2.84548 2.4843,-4.40731 0.081,-0.19975 -0.8128,-0.25874 -0.6312,-0.14233 0.5406,0.3466 1.3687,0.31633 1.7302,0.84701 2.417,3.54775 0.8401,10.52946 0.3173,14.23206 -0.6422,2.18554 -1.1077,4.43096 -1.9266,6.55661 -1.6759,4.3503 -3.739,7.82391 -6.6262,11.44816 -1.1371,1.42731 -2.511,2.64955 -3.7218,4.01486 -0.2198,0.24786 -0.3008,0.61722 -0.5642,0.81817 -0.6528,0.49805 -1.4199,0.82492 -2.1299,1.23739 0,0 -2.5321,2.1822 -2.5321,2.1822 z" />
    <path
       style="opacity:0.996732;fill:#800000;stroke-width:0.8"
       id="path117"
       d="m 905.57767,149.57245 c -4.38809,3.4547 -8.52282,7.09624 -12.09877,11.39424 -5.18234,7.19412 -6.27871,14.10798 -6.48115,22.76094 0.48667,9.2123 0.95996,18.48065 3.06899,27.48533 0.30253,1.08784 0.60505,2.17568 0.90757,3.26352 0,0 2.78376,-1.69037 2.78376,-1.69037 v 0 c -0.30582,-1.08045 -0.61163,-2.1609 -0.91745,-3.24136 -2.11655,-8.9731 -2.61698,-18.21435 -3.04912,-27.40082 0.2573,-8.62764 1.37915,-15.4615 6.6192,-22.58829 3.62327,-4.28514 7.79915,-7.92645 12.21722,-11.37751 0,0 -3.05025,1.39432 -3.05025,1.39432 z" />
    <path
       style="opacity:0.996732;fill:#800000;stroke-width:0.8"
       id="path119"
       d="m 1044.6622,148.93019 c 3.0234,4.96347 6.2141,9.82135 7.8956,15.45002 0.4695,1.5719 0.7568,3.1926 1.1352,4.7889 0.1231,1.79521 0.4236,3.58703 0.3692,5.38563 -0.1391,4.60269 -1.2241,9.18693 -2.4503,13.59131 -2.1361,7.67306 -5.1577,14.89858 -8.3944,22.15324 -2.7977,6.18113 -7.2202,11.22043 -11.6199,16.27059 0,0 2.9278,-1.40322 2.9278,-1.40322 v 0 c 4.3578,-5.04933 8.6914,-10.12165 11.4437,-16.28796 3.214,-7.27368 6.2309,-14.52519 8.3709,-22.20484 1.24,-4.44961 2.3341,-9.06285 2.4716,-13.71257 0.054,-1.81697 -0.2532,-3.62671 -0.3797,-5.44006 -0.3815,-1.60919 -0.6728,-3.24245 -1.1443,-4.82758 -1.6831,-5.65803 -4.8777,-10.54474 -7.8184,-15.59118 0,0 -2.807,1.82772 -2.807,1.82772 z" />
    <path
       style="opacity:0.996732;fill:#800000;stroke-width:0.8"
       id="path125"
       d="m 160.35909,369.07555 c -2.04659,-4.26155 -6.02549,-7.52676 -10.95694,-7.49037 -1.18621,0.009 -2.34219,0.37789 -3.51328,0.56683 -3.69724,2.16162 -5.23495,2.70891 -8.21724,6.874 -1.9488,2.72172 -2.41773,8.71839 -1.40628,11.87014 0.31819,0.99153 1.00286,1.82531 1.5043,2.73796 0.83712,0.48998 1.57032,1.23482 2.51138,1.46994 2.39764,0.59906 5.0678,-0.40781 7.04031,-1.6274 7.2004,-4.45195 9.20332,-7.60386 13.54018,-14.45097 6.36553,-12.78506 8.25106,-27.01586 9.11126,-41.09979 -0.0126,-2.26069 0.92395,-13.95694 -4.37604,-5.19715 -0.67157,1.10997 -0.46819,2.55263 -0.65553,3.83635 -0.28774,1.97163 -0.51296,3.95188 -0.76944,5.92781 -2.03195,15.10107 -3.88584,30.26485 -4.13326,45.51368 0,0 2.75116,-1.56452 2.75116,-1.56452 v 0 c 0.14738,-15.24074 1.99223,-30.40164 4.14417,-45.47545 0.28278,-1.98436 0.51974,-3.9758 0.84834,-5.9531 0.2124,-1.27811 1.2785,-2.6157 0.774,-3.80909 -0.29561,-0.69926 -1.61998,-0.11258 -2.2578,0.29916 -0.27271,0.17604 0.47645,0.48462 0.55627,0.79925 0.50558,1.99297 0.35088,5.38399 0.36101,7.17425 -0.79812,14.05119 -2.70881,28.24324 -9.16672,40.94734 -4.40648,6.83387 -2.12438,3.84217 -7.15132,9.63305 -0.3775,0.43487 -0.65107,0.99468 -1.14116,1.29706 -1.91541,1.1818 -4.44336,2.32706 -6.81525,1.83427 -0.89821,-0.18662 -1.61162,-0.87698 -2.41743,-1.31547 -0.48655,-0.87581 -1.15406,-1.67328 -1.45964,-2.62742 -0.742,-2.31685 -0.58856,-5.30299 -0.0201,-7.60159 0.3455,-1.39698 1.20401,-2.63522 1.5308,-4.03669 0.11148,-0.47813 -0.56517,-1.0739 -0.25114,-1.45129 0.77181,-0.9275 2.04231,-1.2856 3.06346,-1.9284 1.14893,-0.21445 2.27856,-0.60795 3.4468,-0.64334 4.82459,-0.14616 8.75938,3.02842 10.66647,7.24571 0,0 2.85863,-1.75476 2.85863,-1.75476 z" />
    <path
       style="opacity:0.996732;fill:#800000;stroke-width:0.8"
       id="path127"
       d="m 170.31161,364.65568 c 0.42841,6.18633 0.0779,12.35873 1.04962,18.50905 0.42539,2.26872 0.92587,3.51896 2.66055,4.96195 0,0 2.73626,-1.9047 2.73626,-1.9047 v 0 c -1.7392,-1.32531 -2.13689,-2.54834 -2.57643,-4.72577 -0.99651,-6.16012 -0.62965,-12.33823 -0.98363,-18.54162 0,0 -2.88637,1.70109 -2.88637,1.70109 z" />
    <path
       style="opacity:0.996732;fill:#800000;stroke-width:0.8"
       id="path129"
       d="m 180.47512,364.91867 c 0.83832,7.12185 2.68718,14.03951 4.50481,20.95521 0.78789,1.8605 1.17604,6.45771 3.21215,7.71645 1.41577,0.87523 4.27881,-2.15687 5.0792,-3.02265 0.61973,-0.67035 0.80898,-1.63685 1.21347,-2.45527 2.80698,-7.37605 5.84862,-14.65632 8.78978,-21.97861 1.36409,-3.28789 0.77817,-1.84495 1.77227,-4.3229 0,0 -2.94633,1.53804 -2.94633,1.53804 v 0 c -0.93122,2.44902 -0.37377,1.01771 -1.70108,4.28264 -2.92868,7.3306 -5.94509,14.62528 -8.83917,21.96977 -1.29013,2.41894 -2.32959,2.97322 0.40651,1.93094 0.32185,-0.1226 -0.70146,0.36733 -1.01055,0.21538 -0.49091,-0.24134 -0.80903,-0.76211 -1.07452,-1.24041 -0.94896,-1.70962 -1.63116,-4.54643 -2.14051,-6.30381 -1.81616,-6.91245 -3.66959,-13.83553 -4.38329,-20.97162 0,0 -2.88274,1.68684 -2.88274,1.68684 z" />
    <path
       style="opacity:0.996732;fill:#800000;stroke-width:0.8"
       id="path131"
       d="m 275.67389,346.38579 c -1.44927,-5.14841 -6.91929,-8.61487 -12.06874,-9.25495 -1.81132,-0.22515 -3.64985,0.0697 -5.47478,0.10447 -2.02559,0.72529 -4.21734,1.09347 -6.07677,2.17586 -3.17303,1.84704 -6.21326,3.99508 -8.87268,6.52631 -6.59129,6.27358 -11.64462,17.38334 -13.50456,26.14496 -0.67532,3.18124 -0.71494,6.46484 -1.0724,9.69726 0.33168,2.88012 0.29893,5.82603 0.99505,8.64037 1.80898,7.31347 5.95756,13.28569 14.43172,11.50281 6.57421,-1.38314 12.03632,-6.94065 16.92494,-10.79013 1.92033,-2.62861 4.14345,-5.06079 5.76099,-7.88583 5.94387,-10.38101 8.43952,-25.80001 7.24782,-37.67258 -0.20772,-2.06944 -0.88714,-4.06397 -1.3307,-6.09596 -0.63927,-1.29579 -1.27853,-2.59159 -1.91779,-3.88738 0,0 -2.72089,1.72471 -2.72089,1.72471 v 0 c 0.64641,1.26073 1.29283,2.52145 1.93925,3.78217 0.45837,1.999 1.15838,3.9576 1.37512,5.997 1.25611,11.81911 -1.30709,27.17958 -7.29702,37.47464 -1.63528,2.8106 -3.87713,5.22132 -5.8157,7.83198 -1.47363,1.39496 -2.71678,3.08331 -4.42089,4.1849 -3.78539,2.447 -9.14584,4.99571 -13.90836,3.22131 -7.35119,-2.73887 -8.11126,-13.25262 -8.63115,-19.49101 0.36105,-3.21222 0.40226,-6.47675 1.08314,-9.63668 1.42331,-6.6055 4.1579,-13.01155 7.83361,-18.67206 1.24657,-1.91969 6.38572,-8.7881 9.52071,-10.54933 1.85532,-1.0423 3.98789,-1.48704 5.98183,-2.23056 1.79782,-0.0553 3.60656,-0.37148 5.39345,-0.16597 5.01428,0.57666 10.43945,3.95957 11.73843,9.02477 0,0 2.88637,-1.70108 2.88637,-1.70108 z" />
    <path
       style="opacity:0.996732;fill:#800000;stroke-width:0.8"
       id="path133"
       d="m 244.13498,373.12277 c 3.90522,10.62461 8.09402,21.1392 13.70363,31.00146 1.12138,1.97151 2.38206,3.86047 3.57309,5.79071 3.7293,4.92855 1.87082,2.79931 5.43588,6.50688 0,0 2.693,-1.82621 2.693,-1.82621 v 0 c -3.61024,-3.61331 -1.72747,-1.52972 -5.50482,-6.37753 -1.2015,-1.91512 -2.47827,-3.78502 -3.60448,-5.74535 -5.65417,-9.84192 -9.78957,-20.38907 -13.46629,-31.09769 0,0 -2.83001,1.74773 -2.83001,1.74773 z" />
    <path
       style="opacity:0.996732;fill:#800000;stroke-width:0.8"
       id="path135"
       d="m 287.10954,325.9491 c 0.37929,-4.40271 0.43731,-10.43115 3.5807,-13.91963 0.53726,-0.59625 1.3076,-0.93105 1.9614,-1.39657 -0.24144,0.54124 -0.94982,1.07565 -0.72431,1.62372 0.26734,0.6497 1.30251,0.58422 1.82574,1.05307 0.61909,0.55474 1.17589,1.21446 1.5392,1.96213 1.61754,3.32883 0.60443,7.03547 -0.0503,10.42897 -0.63951,3.62299 -4.59079,10.862 -2.78809,14.34595 1.27016,2.45476 3.777,2.7633 6.07774,3.59649 3.10687,0.8536 6.34881,1.05627 9.47506,1.80786 1.40637,0.33811 2.76481,0.85124 4.14722,1.27686 0,0 2.57119,-1.93647 2.57119,-1.93647 v 0 c -1.39543,-0.43171 -2.76643,-0.9522 -4.18629,-1.29513 -3.10563,-0.75007 -6.32722,-0.95132 -9.41671,-1.7871 -2.09188,-0.7284 -4.67378,-1.0542 -5.84732,-3.32402 -1.6405,-3.17301 2.17409,-10.83022 2.80206,-14.23162 0.79736,-4.26168 2.01098,-9.38026 -1.63847,-12.76624 -0.55869,-0.51836 -1.18031,-1.27865 -1.93941,-1.21084 -1.71869,0.15353 -3.23148,1.21139 -4.84722,1.81709 -0.63023,0.5014 -1.37473,0.88584 -1.8907,1.5042 -3.16453,3.79259 -3.05238,9.49431 -3.55746,14.10884 0,0 2.90601,-1.65756 2.90601,-1.65756 z" />
    <path
       style="opacity:0.996732;fill:#800000;stroke-width:0.8"
       id="path137"
       d="m 282.24418,390.69641 c 1.16555,10.51039 1.0537,21.0988 1.73651,31.64211 0,0 2.77608,-1.60828 2.77608,-1.60828 v 0 c -0.73825,-10.5611 -0.66958,-21.16105 -1.66396,-31.70595 0,0 -2.84863,1.67212 -2.84863,1.67212 z" />
    <path
       style="opacity:0.996732;fill:#800000;stroke-width:0.8"
       id="path139"
       d="m 368.53962,369.54285 c 7.89857,0.22713 15.79777,0.42621 23.69739,0.61301 0,0 2.43498,-1.94126 2.43498,-1.94126 v 0 c -7.84896,-0.18917 -15.69867,-0.37869 -23.54178,-0.7472 0,0 -2.59059,2.07545 -2.59059,2.07545 z" />
    <path
       style="opacity:0.996732;fill:#800000;stroke-width:0.8"
       id="path141"
       d="m 366.72508,383.09992 c 7.83089,-0.0866 15.6574,0.39704 23.4776,0.74087 0,0 2.40388,-1.90791 2.40388,-1.90791 v 0 c -7.753,-0.36786 -15.50704,-0.87318 -23.27054,-0.92471 0,0 -2.61094,2.09175 -2.61094,2.09175 z" />
    <path
       style="opacity:0.996732;fill:#800000;stroke-width:0.8"
       id="path143"
       d="m 519.26039,346.34888 c -4.12628,-7.72092 -11.27487,-9.46659 -19.35687,-5.87969 -2.66604,1.18323 -4.95437,3.07985 -7.43155,4.61977 -3.18867,3.16403 -6.84546,5.91756 -9.56601,9.49209 -4.49475,5.90562 -8.00436,15.56116 -9.44718,22.70344 -1.22019,6.04024 -1.91848,15.02887 0.57011,21.09684 0.9394,2.29055 3.08519,3.87272 4.62779,5.80909 2.41036,0.318 4.84798,1.43551 7.23107,0.95401 3.21236,-0.64905 6.19865,-2.33259 8.88477,-4.21016 11.59414,-8.1042 18.87049,-18.32616 22.62275,-31.92566 0.96528,-3.4985 1.12104,-7.17136 1.68156,-10.75704 -0.68235,-7.03626 0.0496,-8.83322 -3.40077,-14.5982 -0.81459,-1.36103 -2.07547,-2.39923 -3.1132,-3.59884 0,0 -2.66243,1.78451 -2.66243,1.78451 v 0 c 1.03783,1.16113 2.29523,2.15835 3.11349,3.48341 3.48864,5.64935 2.75171,7.40326 3.46199,14.35975 -0.55448,3.55833 -0.70083,7.20475 -1.66343,10.67499 -2.47694,8.92945 -5.88515,14.71543 -11.54571,22.02398 -3.8938,5.02744 -8.4101,9.39335 -14.93001,10.84856 -2.32136,0.51812 -4.73015,-0.50424 -7.09522,-0.75637 -1.54009,-1.87718 -3.68194,-3.39207 -4.62026,-5.63155 -1.23499,-2.94752 -1.60158,-6.24219 -1.69319,-9.43666 -0.42859,-14.94665 6.13557,-28.87383 15.27356,-40.27813 2.43906,-1.5491 4.68962,-3.4454 7.3172,-4.64731 7.83354,-3.58323 15.01753,-2.06725 18.9033,5.64407 0,0 2.83824,-1.7749 2.83824,-1.7749 z" />
    <path
       style="opacity:0.996732;fill:#800000;stroke-width:0.8"
       id="path145"
       d="m 495.19923,370.53195 c 0.53886,12.57568 6.28537,24.38327 12.44163,35.1197 4.06693,4.53612 1.89122,2.76449 6.30117,5.58096 0,0 2.64507,-1.88726 2.64507,-1.88726 v 0 c -4.40362,-2.67378 -2.22541,-0.9706 -6.30658,-5.38849 -6.20183,-10.64665 -11.97625,-22.48413 -12.16192,-35.04754 0,0 -2.91937,1.62263 -2.91937,1.62263 z" />
    <path
       style="opacity:0.996732;fill:#800000;stroke-width:0.8"
       id="path147"
       d="m 525.98253,391.68361 c 0.4894,9.37196 0.55778,18.75087 1.30072,28.10866 0,0 2.75361,-1.60062 2.75361,-1.60062 v 0 c -0.79232,-9.37335 -0.89055,-18.768 -1.19116,-28.16653 0,0 -2.86317,1.65849 -2.86317,1.65849 z" />
    <path
       style="opacity:0.996732;fill:#800000;stroke-width:0.8"
       id="path149"
       d="m 576.00843,388.16164 c -1.58478,-4.57129 -6.43171,-7.99403 -11.3997,-6.46669 -1.27015,0.39049 -2.32596,1.28567 -3.48894,1.92851 -3.78608,3.77402 -5.74431,4.11861 -6.36686,9.00942 -0.14166,1.11287 -0.1131,2.30211 0.27634,3.35419 0.29635,0.80059 0.90113,1.58432 1.68057,1.93248 0.84013,0.37527 1.91954,0.4257 2.75993,0.051 2.1539,-0.96034 3.93069,-2.6069 5.89603,-3.91035 1.02785,-1.47185 2.238,-2.83193 3.08356,-4.41555 5.421,-10.15281 6.73338,-24.32133 7.75306,-35.68262 -3.00487,7.10955 1.29546,-5.88438 -0.0893,-4.97278 -4.15182,2.7332 -3.54262,3.61232 -3.96624,8.04538 -0.21313,2.23029 -0.36087,4.46637 -0.52928,6.70048 -0.20583,2.73037 -0.39562,5.46191 -0.59343,8.19287 -0.51365,8.28833 -1.20713,16.60037 -0.83505,24.91332 0.0885,1.97627 0.35609,3.94043 0.53413,5.91065 0,0 2.72918,-1.59091 2.72918,-1.59091 v 0 c -0.19208,-1.9521 -0.47803,-3.89724 -0.57625,-5.8563 -0.41615,-8.30012 0.28676,-16.60338 0.8256,-24.87743 0.23615,-3.00881 0.87684,-11.5902 1.25388,-14.94618 0.17145,-1.52605 1.17776,-3.11405 0.65929,-4.55953 -0.26762,-0.74611 -1.62379,-0.4772 -2.36892,-0.20689 -1.50206,0.54488 8.32339,6.90717 0.19808,4.7894 -0.93044,11.31407 -2.26862,25.5122 -7.84883,35.54131 -0.87276,1.56858 -2.12212,2.89571 -3.18318,4.34356 -1.27613,1.7357 -3.87574,0.82496 -4.56407,-1.03899 -0.37415,-1.0132 -0.39113,-2.16217 -0.23862,-3.23141 0.18598,-1.30393 0.97041,-2.46317 1.23488,-3.75347 0.10687,-0.52143 -0.093,-1.06046 -0.13953,-1.59069 1.12984,-0.67572 2.14507,-1.59769 3.38954,-2.02715 4.78937,-1.65277 9.59499,1.61026 11.02774,6.11546 0,0 2.88637,-1.70109 2.88637,-1.70109 z" />
    <path
       style="opacity:0.996732;fill:#800000;stroke-width:0.8"
       id="path151"
       d="m 583.26726,380.69364 c -0.45197,7.52313 -1.49189,15.06619 -0.67565,22.59496 0,0 2.83594,-1.66047 2.83594,-1.66047 v 0 c -0.89684,-7.51553 0.16114,-15.05439 0.75907,-22.55712 0,0 -2.91936,1.62263 -2.91936,1.62263 z" />
    <path
       style="opacity:0.996732;fill:#800000;stroke-width:0.8"
       id="path153"
       d="m 584.20564,373.52493 c 0.41202,-1.25376 0.14904,-0.70666 0.72889,-1.66884 0,0 -2.99578,1.5149 -2.99578,1.5149 v 0 c -0.51991,1.04229 -0.28083,0.4581 -0.66659,1.77244 0,0 2.93348,-1.6185 2.93348,-1.6185 z" />
    <path
       style="opacity:0.996732;fill:#800000;stroke-width:0.8"
       id="path155"
       d="m 590.47486,380.61106 c 1.36605,7.47096 3.50346,14.74693 5.71833,22.00005 0.30444,0.85827 0.43964,1.79703 0.91331,2.57481 1.10893,1.82085 3.42319,-0.70181 5.05058,-2.74734 0.75465,-0.94855 0.95296,-2.231 1.35445,-3.37469 0.93055,-2.65075 2.1542,-7.06328 2.91458,-9.70789 1.65319,-5.81988 0.85902,-3.06753 2.37561,-8.25906 0,0 -2.85861,1.52588 -2.85861,1.52588 v 0 c -1.47018,5.17361 -0.69438,2.43005 -2.32469,8.23144 -0.8101,2.77999 -1.96605,6.94723 -2.98848,9.70573 -0.42123,1.13646 -1.52266,2.12837 -1.44235,3.33772 0.0367,0.55258 1.18841,0.23811 1.66061,-0.0512 0.98949,-0.60633 -8.16884,-0.37627 -1.88891,-2.9245 -2.24838,-7.2491 -4.39597,-14.53238 -5.62099,-22.03849 0,0 -2.86344,1.72758 -2.86344,1.72758 z" />
    <path
       style="opacity:0.996732;fill:#800000;stroke-width:0.8"
       id="path157"
       d="m 673.10446,360.53618 c -0.78731,-6.09946 -2.51052,-14.16392 -8.03465,-17.82551 -1.29809,-0.86042 -2.88124,-1.18317 -4.32185,-1.77475 -1.77088,0.12676 -3.61699,-0.14591 -5.31263,0.38028 -2.06114,0.6396 -3.99455,1.73926 -5.71523,3.04182 -8.60569,6.51455 -13.50037,13.80517 -16.77783,24.03756 -1.00385,3.13406 -1.43579,6.42329 -2.15368,9.63493 -0.0826,3.10667 -0.47596,6.22063 -0.2477,9.32 0.48503,6.58609 2.70734,15.7269 9.36652,19.01139 4.82135,2.37802 7.63298,0.55336 12.34288,-0.78679 2.98472,-1.93965 6.20238,-3.56097 8.95416,-5.81896 6.59185,-5.409 10.78063,-13.7097 12.41589,-21.94297 1.41496,-7.12405 0.72799,-9.4564 0.11581,-16.48242 -1.37721,-4.7972 -1.31058,-7.43052 -4.99472,-10.85009 -0.9628,-0.89366 -2.31513,-1.24202 -3.4727,-1.86303 0,0 -2.62017,1.90092 -2.62017,1.90092 v 0 c 1.14368,0.57146 2.47711,0.86315 3.43105,1.71438 3.69038,3.29308 3.62491,5.9435 4.99489,10.64672 0.22837,2.63616 0.70886,5.26255 0.68511,7.90848 -0.10777,12.00758 -4.52824,22.12117 -13.38072,30.22802 -1.11122,1.01762 -2.49573,1.689 -3.74359,2.5335 -4.54447,1.38157 -7.40561,3.26078 -12.13327,1.02502 -6.64255,-3.14135 -8.85026,-12.23438 -9.32652,-18.71746 -0.22619,-3.07895 0.1715,-6.17211 0.25725,-9.25816 0.72673,-3.19572 1.16503,-6.47104 2.18018,-9.58716 2.4683,-7.57665 4.5022,-10.2004 8.87857,-16.61885 2.73726,-4.01451 3.28757,-5.33873 8.47566,-7.06611 1.6521,-0.55006 3.46768,-0.32126 5.20153,-0.4819 1.41475,0.55732 2.9692,0.84348 4.24425,1.67196 5.5062,3.57772 7.15261,11.66424 7.81436,17.69503 0,0 2.87715,-1.67585 2.87715,-1.67585 z" />
    <path
       style="opacity:0.996732;fill:#800000;stroke-width:0.8"
       id="path159"
       d="m 648.20177,379.75577 c 4.20058,10.25212 10.3497,19.57613 16.03637,29.04525 3.6203,5.27053 1.75131,2.98692 5.44534,6.97998 0,0 2.68879,-1.81536 2.68879,-1.81536 v 0 c -3.73084,-3.89796 -1.84263,-1.65583 -5.49416,-6.86635 -5.69591,-9.43153 -11.85706,-18.75574 -15.83074,-29.07844 0,0 -2.8456,1.73492 -2.8456,1.73492 z" />
    <path
       style="opacity:0.996732;fill:#800000;stroke-width:0.8"
       id="path161"
       d="m 686.02232,396.90611 c -0.33435,12.65186 -1.85016,25.21503 -3.30388,37.77381 -0.17153,1.93527 -0.34306,3.87054 -0.5146,5.80581 0,0 2.76062,-1.54323 2.76062,-1.54323 v 0 c 0.1624,-1.92691 0.32479,-3.85383 0.48718,-5.78075 1.41263,-12.60294 2.89197,-25.20205 3.47198,-37.87869 0,0 -2.9013,1.62305 -2.9013,1.62305 z" />
    <path
       style="opacity:0.996732;fill:#800000;stroke-width:0.8"
       id="path163"
       d="m 734.77192,380.82873 c 14.19653,0.29462 28.34616,-0.78166 42.50443,-1.61514 0,0 2.42904,-1.97072 2.42904,-1.97072 v 0 c -14.10391,0.90928 -28.20831,1.98369 -42.3551,1.52019 0,0 -2.57837,2.06567 -2.57837,2.06567 z" />
    <path
       style="opacity:0.996732;fill:#800000;stroke-width:0.8"
       id="path165"
       d="m 726.18291,392.12765 c 17.49926,0.61749 34.99623,-0.3649 52.49823,-0.26091 0,0 2.36293,-1.89145 2.36293,-1.89145 v 0 c -17.42093,-0.0413 -34.85069,0.96714 -52.26243,0.0704 0,0 -2.59873,2.08197 -2.59873,2.08197 z" />
    <path
       style="opacity:0.996732;fill:#800000;stroke-width:0.8"
       id="path167"
       d="m 889.14875,348.81159 c -0.65507,-0.36004 -1.25287,-0.85358 -1.96522,-1.0801 -8.14974,-2.5916 -19.11459,1.77116 -25.56818,6.5333 -3.64198,2.68744 -6.76117,6.01929 -10.14175,9.02894 -4.56439,7.89574 -7.62098,10.81709 -7.77538,20.32882 -0.15719,9.68408 5.55507,19.62909 16.03585,20.67561 3.32519,0.33203 6.60553,-1.01764 9.9083,-1.52646 8.22797,-5.09611 13.32997,-6.97366 18.46208,-16.23803 4.73854,-8.5539 2.28633,-20.99206 -3.46776,-28.37974 -1.53377,-1.9692 -3.81607,-3.21843 -5.7241,-4.82765 -1.96276,-0.60565 -3.92552,-1.21129 -5.88828,-1.81694 0,0 -2.51488,1.89783 -2.51488,1.89783 v 0 c 1.95176,0.5616 3.90352,1.1232 5.85528,1.68479 1.9042,1.56472 4.18372,2.76108 5.71261,4.69417 1.87251,2.36756 3.36368,5.09949 4.30227,7.96842 2.47095,7.55276 1.89349,12.70688 -0.93795,20.07753 -0.98977,2.57652 -2.20927,5.22176 -4.19458,7.13922 -2.63726,2.54713 -6.19457,3.9242 -9.29186,5.8863 -3.26114,0.54389 -6.48984,1.91997 -9.78343,1.63167 -10.37563,-0.90821 -16.04971,-10.72144 -15.86449,-20.28529 0.1831,-9.45424 3.26785,-12.35505 7.86132,-20.17253 1.72914,-1.92009 3.14254,-4.18066 5.18741,-5.76026 6.12762,-4.73339 17.26902,-9.09652 25.14946,-6.6079 0.68864,0.21747 1.26175,0.70288 1.89263,1.05432 0,0 2.75065,-1.90602 2.75065,-1.90602 z" />
    <path
       style="opacity:0.996732;fill:#800000;stroke-width:0.8"
       id="path169"
       d="m 859.05845,376.87253 c 1.1204,10.47194 5.07851,22.56112 12.31697,30.43671 1.43291,1.55903 3.24004,2.72714 4.86005,4.09071 4.28594,1.81446 4.68414,2.67835 9.23962,2.16524 1.2096,-0.13624 2.34012,-0.67126 3.51018,-1.00689 0,0 2.47301,-2.10327 2.47301,-2.10327 v 0 c -5.68543,1.80499 -6.97165,1.88007 -12.63919,-0.84513 -1.61564,-1.33605 -3.41967,-2.47248 -4.84691,-4.00816 -7.2709,-7.82331 -11.17137,-19.91913 -12.04684,-30.39166 0,0 -2.86689,1.66245 -2.86689,1.66245 z" />
    <path
       style="opacity:0.996732;fill:#800000;stroke-width:0.8"
       id="path171"
       d="m 898.12165,394.93881 c -1.91552,8.72821 -2.11859,17.75 -2.56031,26.64748 -0.068,1.42574 -0.13593,2.85149 -0.2039,4.27723 0,0 2.80594,-1.58436 2.80594,-1.58436 v 0 c 0.0557,-1.41822 0.1115,-2.83644 0.16725,-4.25466 0.42364,-8.90215 0.62518,-17.96254 2.75658,-26.65299 0,0 -2.96556,1.5673 -2.96556,1.5673 z" />
    <path
       style="opacity:0.996732;fill:#800000;stroke-width:0.8"
       id="path173"
       d="m 970.74805,354.1109 c -4.69553,-6.4715 -12.16874,-13.18112 -20.92606,-11.56158 -2.3771,0.43961 -4.48872,1.79636 -6.73308,2.69454 -2.92236,2.48277 -6.27542,4.53354 -8.76708,7.44832 -7.3123,8.55402 -10.54141,25.83352 -5.47122,36.14376 1.08027,2.19671 3.04687,3.83232 4.57031,5.74847 2.08284,0.99794 3.99961,2.46797 6.24851,2.99381 8.91696,2.08498 17.67126,-3.19129 23.51567,-9.41747 4.67256,-4.97777 5.59802,-10.03834 7.67806,-16.25963 0.96796,-8.02807 1.72272,-14.55845 -5.6392,-19.90865 -1.54211,-1.12072 -3.501,-1.50977 -5.2515,-2.26465 0,0 -2.54972,1.88074 -2.54972,1.88074 v 0 c 1.7318,0.71366 3.66647,1.05895 5.1954,2.14099 7.31845,5.17936 6.52565,11.70454 5.56206,19.56811 -2.89656,8.48211 -2.28914,8.97703 -7.78196,16.12592 -1.06845,1.39058 -2.23593,2.80783 -3.75394,3.68587 -4.26485,2.46686 -9.55589,3.68421 -14.45482,2.60607 -2.21826,-0.48819 -4.1205,-1.91243 -6.18076,-2.86865 -1.51484,-1.8728 -3.47149,-3.46185 -4.54451,-5.61841 -4.19062,-8.42231 -2.75436,-19.17748 0.76706,-27.50791 2.74034,-6.4827 4.46606,-7.89218 8.50895,-12.46025 2.20687,-0.92479 4.27449,-2.30409 6.62063,-2.77437 8.63944,-1.73173 16.07833,4.89571 20.5653,11.3928 0,0 2.8219,-1.78783 2.8219,-1.78783 z" />
    <path
       style="opacity:0.996732;fill:#800000;stroke-width:0.8"
       id="path175"
       d="m 938.08485,374.94859 c 0.44131,11.1767 4.63547,21.6485 9.00106,31.79153 2.73407,4.91645 1.2187,2.78442 4.36964,6.51791 0,0 2.70827,-1.81026 2.70827,-1.81026 v 0 c -3.16205,-3.63295 -1.63733,-1.54637 -4.3902,-6.3901 -4.42576,-10.11705 -8.60989,-20.59904 -8.80387,-31.80249 0,0 -2.8849,1.69341 -2.8849,1.69341 z" />
    <path
       style="opacity:0.996732;fill:#800000;stroke-width:0.8"
       id="path177"
       d="m 973.47316,399.26716 c -2.4329,4.10959 -4.34475,8.63938 -4.79834,13.44045 -0.0976,1.03294 -0.0259,2.07491 -0.0388,3.11237 0.36809,3.30006 1.96488,6.78242 5.936,6.27116 2.94095,-0.37863 5.7186,-2.95805 7.85955,-4.41467 0.6794,-0.85594 1.4961,-1.61895 2.03819,-2.56782 2.95688,-5.1757 1.68688,-11.10856 -0.60013,-16.20431 -2.2136,-2.17096 -0.90058,-1.60855 -3.89672,-1.78286 0,0 -2.58161,2.063 -2.58161,2.063 v 0 c 2.81463,-0.10264 1.56589,-0.54887 3.69837,1.46571 2.27402,5.00865 3.48502,10.83594 0.44364,15.87713 -0.55962,0.92759 -1.38811,1.66361 -2.08217,2.49541 1.02569,0.14507 2.03751,0.24071 -2.29304,1.0259 -2.53633,0.45987 -4.38908,-0.94784 -5.19479,-3.27832 -0.28437,-0.82252 -0.32411,-1.71014 -0.48617,-2.56521 0.018,-1.02071 -0.0481,-2.04639 0.0541,-3.06212 0.4809,-4.77751 2.41549,-9.31565 4.9606,-13.33731 0,0 -3.01865,1.46149 -3.01865,1.46149 z" />
    <path
       style="opacity:0.996732;fill:#800000;stroke-width:0.8"
       id="path179"
       d="m 1043.4464,353.16025 c -1.0244,-3.71812 -2.8262,-8.77637 -6.9681,-10.05511 -0.7934,-0.24496 -1.6561,-0.12303 -2.4842,-0.18454 -3.383,1.82229 -4.6238,2.17573 -7.3407,6.3256 -1.3699,2.09235 -2.9403,10.1135 -3.2357,12.03103 -0.9573,6.21614 -1.1121,11.78872 -1.4745,18.08765 -0.1499,15.07969 -0.5543,30.15782 -0.6668,45.23746 0,0 2.8232,-1.61075 2.8232,-1.61075 v 0 c -0.1479,-15.03305 0.3005,-30.07231 0.4692,-45.10352 0.4006,-6.39602 0.5645,-11.80367 1.59,-18.09841 3.9758,-24.40509 -0.9636,7.92904 3.3983,-11.97436 0.1046,-0.4772 -0.7321,-0.98047 -0.4653,-1.38974 0.4991,-0.76585 1.548,-0.97278 2.322,-1.45918 0.7992,0.021 1.6259,-0.1459 2.3975,0.0631 4.1005,1.11046 5.8484,6.21838 6.7487,9.83189 0,0 2.8864,-1.70109 2.8864,-1.70109 z" />
    <path
       style="opacity:0.996732;fill:#800000;stroke-width:0.8"
       id="path181"
       d="m 1006.0467,376.44415 c 12.4929,1.05846 25.059,0.72929 37.5839,0.72858 0,0 2.4244,-1.94259 2.4244,-1.94259 v 0 c -12.4575,0.0187 -24.9709,0.37016 -37.385,-0.84501 0,0 -2.6233,2.05902 -2.6233,2.05902 z" />
    <path
       style="opacity:0.996732;fill:#800000;stroke-width:0.8"
       id="path183"
       d="m 1103.0205,380.84014 c 11.3431,-0.11717 22.696,0.11489 34.0216,0.75601 1.4956,0.15532 2.9911,0.31063 4.4867,0.46594 0,0 2.5272,-1.98288 2.5272,-1.98288 v 0 c -1.5089,-0.15108 -3.0179,-0.30216 -4.5269,-0.45325 -11.2886,-0.59849 -22.5983,-0.8126 -33.9017,-0.87431 0,0 -2.6069,2.08849 -2.6069,2.08849 z" />
    <path
       style="opacity:0.996732;fill:#800000;stroke-width:0.8"
       id="path185"
       d="m 1102.2784,391.36944 c 11.3856,3.43688 23.3134,4.21193 35.0196,5.96308 0,0 2.4954,-1.94015 2.4954,-1.94015 v 0 c -11.6681,-1.6839 -23.5766,-2.43762 -34.8717,-6.03629 0,0 -2.6433,2.01336 -2.6433,2.01336 z" />
    <path
       style="opacity:0.996732;fill:#800000;stroke-width:0.8"
       id="path187"
       d="m 1168.5306,390.7596 c 0.9679,-0.0919 1.9325,-0.22937 2.9037,-0.27561 3.8751,-0.18454 7.7584,-0.11527 11.6368,-0.21093 7.9934,-0.19714 15.9849,-0.50734 23.9756,-0.79158 0,0 2.4196,-1.95347 2.4196,-1.95347 v 0 c -7.9848,0.31528 -15.9709,0.63554 -23.9609,0.78913 -3.8434,0.0739 -7.6896,-0.0166 -11.532,0.0982 -0.9629,0.0288 -1.9221,0.13333 -2.8831,0.19999 0,0 -2.5597,2.14426 -2.5597,2.14426 z" />
    <path
       style="opacity:0.996732;fill:#800000;stroke-width:0.8"
       id="path189"
       d="m 1268.2143,355.81165 c -0.8747,-0.0589 -1.754,-0.28527 -2.6239,-0.17671 -7.2165,0.90063 -14.5077,6.17275 -19.292,11.18995 -2.1133,2.21627 -3.7789,4.86938 -5.1514,7.60695 -1.3815,2.75544 -2.0272,5.82188 -3.0408,8.73282 -0.1803,2.88812 -0.7745,5.78007 -0.5408,8.66435 0.5143,6.34808 3.869,14.76197 10.9046,16.46024 5.5021,1.32809 7.984,-1.52867 12.3517,-4.1879 2.659,-2.76968 5.7804,-5.15996 7.9769,-8.30904 1.7566,-2.51845 2.801,-5.49965 3.7021,-8.43501 2.3661,-7.70781 2.8195,-17.35415 0.6821,-25.18486 -0.4449,-1.63007 -1.3344,-3.10479 -2.0016,-4.65719 0,0 -2.706,1.6952 -2.706,1.6952 v 0 c 0.677,1.51662 1.5797,2.95151 2.0311,4.54986 2.2338,7.90952 1.7523,17.19554 -0.6999,24.98797 -1.646,5.23023 -3.9994,8.77413 -6.6736,13.28029 -4.1865,2.66177 -6.7162,5.6015 -12.1014,4.42043 -6.9824,-1.53134 -10.3087,-9.89067 -10.804,-16.11596 -0.2273,-2.85718 0.374,-5.7202 0.561,-8.58031 1.0261,-2.8876 1.6825,-5.93463 3.0782,-8.66281 3.9746,-7.76903 10.2072,-14.16556 19.1457,-15.41474 0.833,-0.11642 1.68,0.0877 2.52,0.13153 0,0 2.682,-1.99506 2.682,-1.99506 z" />
    <path
       style="opacity:0.996732;fill:#800000;stroke-width:0.8"
       id="path191"
       d="m 1250.1426,389.19026 c 0.5331,1.1668 1.0277,2.35196 1.5992,3.50041 2.1042,4.22831 3.1626,5.67642 5.2909,10.07419 2.652,5.47993 4.8576,11.17888 7.1444,16.81643 0,0 2.6999,-1.68238 2.6999,-1.68238 v 0 c -2.3306,-5.62769 -4.553,-11.32779 -7.186,-16.82379 -1.637,-3.41719 -3.5682,-6.68822 -5.2051,-10.10548 -0.5501,-1.14841 -1.0086,-2.33847 -1.513,-3.50771 0,0 -2.8303,1.72833 -2.8303,1.72833 z" />
    <path
       style="opacity:0.996732;fill:#800000;stroke-width:0.8"
       id="path193"
       d="m 1285.0517,410.97071 c -1.4539,1.14116 -3.0355,2.1361 -4.3617,3.42349 -2.4218,2.35104 -4.381,7.78521 -3.5545,11.12764 0.1856,0.75027 0.6679,1.39401 1.0019,2.09101 0.5717,0.38433 1.0496,0.97558 1.7153,1.15298 3.3649,0.89671 7.6998,-3.12583 8.7698,-6.17469 1.1985,-3.41472 0.6274,-4.04428 -0.029,-7.39052 -2.8226,-2.64399 -1.1682,-2.08793 -4.9233,-1.78299 0,0 -2.5356,2.08424 -2.5356,2.08424 v 0 c 3.5133,-0.61192 1.95,-1.04026 4.6682,1.36139 0.2168,1.15814 0.6665,2.29628 0.6504,3.47444 -0.017,1.262 -0.2933,2.53437 -0.7481,3.71172 -1.2304,3.18548 -1.7408,3.75252 -4.7771,1.80173 -0.3165,-0.65817 -0.7792,-1.26435 -0.9496,-1.97451 -0.7031,-2.92961 0.5043,-6.01268 1.968,-8.48451 0.5026,-0.84863 1.4607,-1.45182 1.7294,-2.40078 0.1025,-0.36181 -0.7391,0.13908 -1.1086,0.20862 0,0 2.4845,-2.22926 2.4845,-2.22926 z" />
    <path
       style="opacity:0.996732;fill:#800000;stroke-width:0.8"
       id="path195"
       d="m 1336.5616,355.49015 c -9.5146,-7.90247 -19.9622,2.22742 -27.2731,8.04093 -1.6503,2.2148 -3.5727,4.25073 -4.9508,6.6444 -4.6024,7.99426 -6.2512,17.17594 -3.9643,26.19314 1.7337,6.83584 3.4846,8.04806 7.559,13.31121 1.8017,0.98489 3.392,2.55008 5.405,2.95466 1.9559,0.3931 4.1115,0.1083 5.9471,-0.67313 9.9273,-4.22604 14.5547,-12.28266 17.8435,-22.0708 1.1625,-3.45985 1.7367,-7.09025 2.605,-10.63537 0.9766,-8.6012 1.8112,-17.53375 -1.8302,-25.68038 -0.6217,-1.39102 -1.6421,-2.56701 -2.4632,-3.85052 0,0 -2.6938,1.74988 -2.6938,1.74988 v 0 c 0.8274,1.24756 1.8522,2.3847 2.4822,3.74266 3.7327,8.04609 2.8797,16.91199 1.8948,25.44444 -0.883,3.53326 -1.4659,7.15538 -2.649,10.59978 -2.2683,6.60383 -4.862,11.40873 -9.5503,16.49841 -2.1079,2.28843 -6.035,3.56114 -9.0328,3.02816 -1.9899,-0.35378 -3.5774,-1.88198 -5.3661,-2.82298 -4.0561,-5.17585 -5.8139,-6.37408 -7.5252,-13.13496 -2.2706,-8.97008 -0.5454,-18.09406 4.0951,-25.9991 1.3976,-2.38091 3.3383,-4.39827 5.0074,-6.5974 1.0323,-1.06125 1.9004,-2.31184 3.097,-3.18375 5.3815,-3.92144 12.9845,-6.66868 18.5557,-1.73157 0,0 2.807,-1.82771 2.807,-1.82771 z" />
    <path
       style="opacity:0.996732;fill:#800000;stroke-width:0.8"
       id="path197"
       d="m 1320.8475,382.25211 c 1.7053,8.31387 5.9699,15.74458 10.0312,23.08906 0,0 2.6664,-1.70515 2.6664,-1.70515 v 0 c -4.0531,-7.30643 -8.3182,-14.72623 -9.8237,-23.05498 0,0 -2.8739,1.67107 -2.8739,1.67107 z" />
    <path
       style="opacity:0.996732;fill:#800000;stroke-width:0.8"
       id="path199"
       d="m 1341.3115,396.67883 c 1.1449,9.1114 1.5961,18.29498 2.5878,27.4229 0,0 2.7856,-1.63022 2.7856,-1.63022 v 0 c -1.0503,-9.14672 -1.5276,-18.34851 -2.5105,-27.5014 0,0 -2.8629,1.70872 -2.8629,1.70872 z" />
    <path
       style="opacity:0.996732;fill:#800000;stroke-width:0.8"
       id="path201"
       d="m 1386.935,347.55145 c -5.6954,-3.06807 -10.5913,-1.23165 -15.1283,3.59692 -3.1188,3.31925 -4.2689,9.96004 -5.3411,13.8596 -1.9915,11.33734 -2.8452,22.83027 -3.6397,34.29966 -0.4856,7.0106 -0.7866,13.95431 -1.7913,20.90888 0,0 2.8229,-1.56093 2.8229,-1.56093 v 0 c 0.8441,-6.9145 1.0692,-13.83386 1.5305,-20.78409 0.762,-11.4791 1.6588,-22.98075 3.7746,-34.30517 2.4104,-8.34573 1.3585,-7.15067 5.563,-13.74142 0.2796,-0.43823 0.5866,-0.94179 1.069,-1.13543 2.9534,-1.18553 5.733,-0.7783 8.3932,0.76001 0,0 2.7472,-1.89803 2.7472,-1.89803 z" />
    <path
       style="opacity:0.996732;fill:#800000;stroke-width:0.8"
       id="path203"
       d="m 1349.1275,378.94392 c 10.8202,2.14733 21.9596,2.19445 32.9522,2.64441 0,0 2.4415,-1.94065 2.4415,-1.94065 v 0 c -10.9186,-0.39265 -21.999,-0.43275 -32.7231,-2.70578 0,0 -2.6706,2.00202 -2.6706,2.00202 z" />
  </g>
</svg>
